<svg width="38" height="34" viewBox="0 0 38 34" fill="none" xmlns="http://www.w3.org/2000/svg">
<path fill-rule="evenodd" clip-rule="evenodd" d="M34 12H23.4834L25.0667 4.38337L25.1167 3.85004C25.1167 3.16671 24.8333 2.53337 24.3834 2.08337L22.6167 0.333374L11.65 11.3167C11.0334 11.9167 10.6667 12.75 10.6667 13.6667V30.3334C10.6667 32.1667 12.1667 33.6667 14 33.6667H29C30.3833 33.6667 31.5667 32.8334 32.0667 31.6334L37.1 19.8834C37.25 19.5 37.3333 19.1 37.3333 18.6667V15.3334C37.3333 13.5 35.8333 12 34 12ZM34 18.6666L29 30.3333H14V13.6666L21.2333 6.43328L19.3833 15.3333H34V18.6666ZM7.33335 13.6667H0.666687V33.6667H7.33335V13.6667Z" fill="#002647"/>
</svg>
