<svg width="117" height="66" viewBox="0 0 117 66" fill="none" xmlns="http://www.w3.org/2000/svg">
    <g clip-path="url(#clip0)">
        <path opacity="0.1" d="M65.1392 9.00161C58.389 8.96277 51.919 7.23538 45.7333 5.32242C39.5476 3.40945 33.4169 1.27854 26.8057 0.342017C22.5537 -0.257875 17.7081 -0.239534 14.3438 1.80722C11.1066 3.77737 10.1242 7.06599 9.62755 10.1075C9.25266 12.396 9.05875 14.7998 10.2868 16.9049C11.139 18.3658 12.618 19.5753 13.6555 20.9692C17.2632 25.8191 14.9482 31.9637 11.2855 36.8739C9.56183 39.1775 7.56242 41.3839 6.25247 43.8223C4.94251 46.2607 4.37694 49.0347 5.63304 51.4591C6.87836 53.863 9.75036 55.6217 12.8443 56.8333C19.1291 59.2922 26.4782 59.8608 33.6356 60.1101C49.4833 60.6625 65.3827 59.8705 81.239 59.0797C87.1079 58.7862 93.0017 58.4906 98.7586 57.5691C101.956 57.0556 105.251 56.282 107.539 54.5546C110.448 52.36 111.094 48.7499 109.048 46.1388C105.618 41.7572 96.4026 40.8714 93.9658 36.1392C92.6236 33.5335 93.8646 30.5654 95.6636 28.0752C99.5224 22.7333 106.09 17.9687 106.297 11.9655C106.44 7.84175 103.128 3.79571 98.1155 1.96798C92.8541 0.0453071 85.6472 0.476885 81.8853 3.95108C78.0158 7.52778 71.104 9.03614 65.1392 9.00161Z" fill="#FAA53B"/>
        <path d="M61.301 26.3197C61.301 26.3197 58.3407 21.0663 53.8808 19.5526C52.0064 18.9293 50.3845 17.714 49.2582 16.0892C48.7295 15.3138 48.273 14.4914 47.8944 13.6324" stroke="#535461" stroke-width="2" stroke-miterlimit="10"/>
        <path d="M45.0913 12.6613C45.5987 13.1555 47.9654 13.6658 47.9654 13.6658C47.9654 13.6658 47.3848 11.3127 46.8774 10.8185C46.6334 10.5813 46.3053 10.4508 45.9653 10.4559C45.6253 10.461 45.3012 10.6011 45.0643 10.8455C44.8275 11.0898 44.6973 11.4184 44.7023 11.759C44.7074 12.0995 44.8473 12.4241 45.0913 12.6613Z" fill="#FAA53B"/>
        <path d="M46.4346 16.9232C47.1295 17.0613 49.3939 16.2014 49.3939 16.2014C49.3939 16.2014 47.6196 14.5398 46.9291 14.4017C46.5952 14.336 46.249 14.4059 45.9666 14.5959C45.6842 14.7859 45.4886 15.0805 45.4231 15.4148C45.3575 15.7492 45.4272 16.096 45.6169 16.3788C45.8066 16.6617 46.1008 16.8575 46.4346 16.9232Z" fill="#FAA53B"/>
        <path d="M51.3039 21.5292C51.9729 21.2972 53.494 19.4112 53.494 19.4112C53.494 19.4112 51.1348 18.8717 50.4658 19.1026C50.3045 19.156 50.1554 19.2409 50.0272 19.3525C49.8989 19.464 49.7941 19.6 49.7188 19.7525C49.6435 19.905 49.5992 20.0709 49.5885 20.2407C49.5777 20.4105 49.6008 20.5807 49.6564 20.7415C49.7119 20.9023 49.7988 21.0504 49.9119 21.1773C50.0251 21.3041 50.1623 21.4072 50.3156 21.4805C50.4689 21.5538 50.6352 21.5958 50.8049 21.6042C50.9746 21.6125 51.1442 21.587 51.3039 21.5292Z" fill="#FAA53B"/>
        <path d="M55.7767 24.1855C56.4748 24.0701 58.2921 22.4678 58.2921 22.4678C58.2921 22.4678 56.0579 21.5356 55.3587 21.6511C55.0232 21.7066 54.7234 21.8934 54.5253 22.1703C54.3272 22.4472 54.247 22.7915 54.3025 23.1276C54.3579 23.4637 54.5443 23.764 54.8208 23.9624C55.0973 24.1608 55.4411 24.241 55.7767 24.1855Z" fill="#FAA53B"/>
        <path d="M51.361 14.3596C51.361 15.0696 50.0801 17.1261 50.0801 17.1261C50.0801 17.1261 48.7971 15.0707 48.7971 14.3607C48.7971 14.0202 48.9321 13.6936 49.1726 13.4528C49.413 13.2121 49.739 13.0768 50.079 13.0768C50.419 13.0768 50.7451 13.2121 50.9855 13.4528C51.2259 13.6936 51.361 14.0202 51.361 14.3607V14.3596Z" fill="#FAA53B"/>
        <path d="M56.5524 17.5317C56.3369 18.2093 54.5055 19.7878 54.5055 19.7878C54.5055 19.7878 53.8958 17.4411 54.1069 16.7668C54.2085 16.4417 54.4349 16.1703 54.7362 16.0124C55.0375 15.8545 55.3891 15.8229 55.7137 15.9246C56.0383 16.0264 56.3092 16.2531 56.4669 16.5549C56.6246 16.8567 56.6561 17.2088 56.5545 17.5339L56.5524 17.5317Z" fill="#FAA53B"/>
        <path d="M61.1749 21.308C61.0812 22.0115 59.5364 23.8792 59.5364 23.8792C59.5364 23.8792 58.5399 21.6695 58.6336 20.966C58.6789 20.6285 58.8562 20.3228 59.1265 20.1162C59.3968 19.9096 59.738 19.8191 60.075 19.8644C60.412 19.9098 60.7172 20.0873 60.9235 20.3581C61.1297 20.6288 61.2202 20.9705 61.1749 21.308Z" fill="#FAA53B"/>
        <path opacity="0.25" d="M45.0913 12.6613C45.5987 13.1555 47.9654 13.6658 47.9654 13.6658C47.9654 13.6658 47.3848 11.3127 46.8774 10.8185C46.6334 10.5813 46.3053 10.4508 45.9653 10.4559C45.6253 10.461 45.3012 10.6011 45.0643 10.8455C44.8275 11.0898 44.6973 11.4184 44.7023 11.759C44.7074 12.0995 44.8473 12.4241 45.0913 12.6613Z" fill="black"/>
        <path opacity="0.25" d="M46.4346 16.9232C47.1295 17.0613 49.3939 16.2014 49.3939 16.2014C49.3939 16.2014 47.6196 14.5398 46.9291 14.4017C46.5952 14.336 46.249 14.4059 45.9666 14.5959C45.6842 14.7859 45.4886 15.0805 45.4231 15.4148C45.3575 15.7492 45.4272 16.096 45.6169 16.3788C45.8066 16.6617 46.1008 16.8575 46.4346 16.9232Z" fill="black"/>
        <path opacity="0.25" d="M51.3039 21.5292C51.9729 21.2972 53.494 19.4112 53.494 19.4112C53.494 19.4112 51.1348 18.8717 50.4658 19.1026C50.3045 19.156 50.1554 19.2409 50.0272 19.3525C49.8989 19.464 49.7941 19.6 49.7188 19.7525C49.6435 19.905 49.5992 20.0709 49.5885 20.2407C49.5777 20.4105 49.6008 20.5807 49.6564 20.7415C49.7119 20.9023 49.7988 21.0504 49.9119 21.1773C50.0251 21.3041 50.1623 21.4072 50.3156 21.4805C50.4689 21.5538 50.6352 21.5958 50.8049 21.6042C50.9746 21.6125 51.1442 21.587 51.3039 21.5292Z" fill="black"/>
        <path opacity="0.25" d="M55.7767 24.1855C56.4748 24.0701 58.2921 22.4678 58.2921 22.4678C58.2921 22.4678 56.0579 21.5356 55.3587 21.6511C55.0232 21.7066 54.7234 21.8934 54.5253 22.1703C54.3272 22.4472 54.247 22.7915 54.3025 23.1276C54.3579 23.4637 54.5443 23.764 54.8208 23.9624C55.0973 24.1608 55.4411 24.241 55.7767 24.1855Z" fill="black"/>
        <path opacity="0.25" d="M51.361 14.3596C51.361 15.0696 50.0801 17.1261 50.0801 17.1261C50.0801 17.1261 48.7971 15.0707 48.7971 14.3607C48.7971 14.0202 48.9321 13.6936 49.1726 13.4528C49.413 13.2121 49.739 13.0768 50.079 13.0768C50.419 13.0768 50.7451 13.2121 50.9855 13.4528C51.2259 13.6936 51.361 14.0202 51.361 14.3607V14.3596Z" fill="black"/>
        <path opacity="0.25" d="M56.5524 17.5317C56.3369 18.2093 54.5055 19.7878 54.5055 19.7878C54.5055 19.7878 53.8958 17.4411 54.1069 16.7668C54.2085 16.4417 54.4349 16.1703 54.7362 16.0124C55.0375 15.8545 55.3891 15.8229 55.7137 15.9246C56.0383 16.0264 56.3092 16.2531 56.4669 16.5549C56.6246 16.8567 56.6561 17.2088 56.5545 17.5339L56.5524 17.5317Z" fill="black"/>
        <path opacity="0.25" d="M61.1749 21.308C61.0812 22.0115 59.5364 23.8792 59.5364 23.8792C59.5364 23.8792 58.5399 21.6695 58.6336 20.966C58.6789 20.6285 58.8562 20.3228 59.1265 20.1162C59.3968 19.9096 59.738 19.8191 60.075 19.8644C60.412 19.9098 60.7172 20.0873 60.9235 20.3581C61.1297 20.6288 61.2202 20.9705 61.1749 21.308Z" fill="black"/>
        <path d="M61.1318 26.2161C61.1318 26.2161 60.5501 20.2107 57.0867 17.017C55.6249 15.6869 54.6334 13.9177 54.261 11.9751C54.0916 11.0516 54.0072 10.1143 54.0089 9.17529" stroke="#535461" stroke-width="2" stroke-miterlimit="10"/>
        <path d="M51.8382 7.14905C52.1021 7.80721 54.0595 9.23465 54.0595 9.23465C54.0595 9.23465 54.4807 6.84695 54.2157 6.18879C54.1547 6.02981 54.0626 5.8846 53.945 5.7616C53.8273 5.63861 53.6864 5.54029 53.5304 5.47238C53.3744 5.40446 53.2065 5.36832 53.0365 5.36604C52.8664 5.36376 52.6976 5.39539 52.5399 5.4591C52.3821 5.5228 52.2386 5.61731 52.1177 5.73711C51.9968 5.8569 51.9009 5.9996 51.8356 6.15688C51.7703 6.31416 51.7369 6.48289 51.7374 6.65323C51.7378 6.82357 51.7721 6.99211 51.8382 7.14905Z" fill="#FAA53B"/>
        <path d="M51.3384 11.5867C51.918 11.9946 54.3343 12.1262 54.3343 12.1262C54.3343 12.1262 53.3928 9.89279 52.8143 9.48495C52.5361 9.28893 52.1916 9.21161 51.8566 9.26998C51.5215 9.32836 51.2233 9.51765 51.0276 9.79622C50.8319 10.0748 50.7547 10.4198 50.813 10.7554C50.8713 11.091 51.0603 11.3896 51.3384 11.5857V11.5867Z" fill="#FAA53B"/>
        <path d="M53.9303 17.7788C54.6359 17.8382 56.7894 16.7301 56.7894 16.7301C56.7894 16.7301 54.8503 15.2789 54.1447 15.2196C53.8058 15.191 53.4695 15.2983 53.2097 15.5181C52.9499 15.7378 52.7879 16.0519 52.7593 16.3913C52.7307 16.7307 52.8379 17.0675 53.0573 17.3277C53.2767 17.5879 53.5904 17.7502 53.9292 17.7788H53.9303Z" fill="#FAA53B"/>
        <path d="M56.9445 22.0212C57.6296 22.1992 59.9393 21.472 59.9393 21.472C59.9393 21.472 58.2727 19.7133 57.5876 19.5299C57.4219 19.4775 57.2472 19.4595 57.0743 19.4768C56.9014 19.4941 56.7338 19.5465 56.5817 19.6307C56.4296 19.7149 56.2961 19.8292 56.1895 19.9666C56.0829 20.1041 56.0053 20.2618 55.9614 20.4303C55.9176 20.5987 55.9083 20.7743 55.9343 20.9464C55.9603 21.1185 56.021 21.2835 56.1126 21.4314C56.2043 21.5793 56.325 21.707 56.4674 21.8067C56.6099 21.9064 56.7711 21.9761 56.9412 22.0115L56.9445 22.0212Z" fill="#FAA53B"/>
        <path d="M56.8842 11.2468C56.5976 11.8942 54.5939 13.2558 54.5939 13.2558C54.5939 13.2558 54.2524 10.8563 54.539 10.2078C54.6765 9.89634 54.932 9.65236 55.2492 9.52954C55.5664 9.40672 55.9193 9.41512 56.2303 9.5529C56.5413 9.69069 56.7849 9.94656 56.9075 10.2642C57.0301 10.5819 57.0217 10.9354 56.8842 11.2468Z" fill="#FAA53B"/>
        <path d="M60.3454 16.2543C59.8779 16.7862 57.5596 17.4843 57.5596 17.4843C57.5596 17.4843 57.9507 15.0922 58.4214 14.5592C58.5325 14.4325 58.6675 14.3289 58.8186 14.2544C58.9697 14.1799 59.1339 14.136 59.302 14.125C59.4701 14.1141 59.6386 14.1365 59.7981 14.1908C59.9575 14.2451 60.1047 14.3303 60.2312 14.4416C60.3578 14.5529 60.4612 14.6881 60.5356 14.8394C60.61 14.9908 60.6539 15.1553 60.6648 15.3236C60.6757 15.4919 60.6534 15.6607 60.5991 15.8204C60.5449 15.9801 60.4598 16.1275 60.3487 16.2543H60.3454Z" fill="#FAA53B"/>
        <path d="M63.044 21.5821C62.6734 22.1863 60.5059 23.2674 60.5059 23.2674C60.5059 23.2674 60.4876 20.843 60.8582 20.2377C61.041 19.9578 61.3255 19.7602 61.6514 19.6871C61.9773 19.6139 62.3189 19.6709 62.6035 19.8459C62.888 20.021 63.0933 20.3003 63.1755 20.6245C63.2578 20.9487 63.2106 21.2922 63.044 21.5821Z" fill="#FAA53B"/>
        <path opacity="0.1" d="M89.0373 64.4021C89.3551 65.0495 87.1069 65.7454 84.3221 65.9461C81.8272 66.1263 79.7761 65.8328 79.5164 65.3063C79.2568 64.7797 80.8458 64.141 83.2869 63.8529C86.0113 63.5336 88.7195 63.7612 89.0373 64.4021Z" fill="#FAA53B"/>
        <path d="M23.5652 30.1619L57.8849 17.9882V60.0443L23.5652 59.3278V30.1619Z" fill="white"/>
        <path opacity="0.2" d="M23.5652 30.1619L57.8849 17.9882V60.0443L23.5652 59.3278V30.1619Z" fill="#FAA53B"/>
        <path d="M0 37.107L19.5794 30.1619V59.3278H0V37.107Z" fill="white"/>
        <path opacity="0.2" d="M0 37.107L19.5794 30.1619V59.3278H0V37.107Z" fill="#FAA53B"/>
        <path d="M57.8849 17.9882L92.2034 30.1619V59.3278L57.8849 60.0443V17.9882Z" fill="white"/>
        <path opacity="0.5" d="M57.8849 17.9882L92.2034 30.1619V59.3278L57.8849 60.0443V17.9882Z" fill="#FAA53B"/>
        <path d="M116.123 37.1944L96.297 30.1619V59.3278H116.123V37.1944Z" fill="white"/>
        <path opacity="0.5" d="M116.123 37.1944L96.297 30.1619V59.3278H116.123V37.1944Z" fill="#FAA53B"/>
        <path d="M11.4094 42.1705C11.2704 42.1705 11.1573 42.3604 11.1573 42.5945V47.8727C11.1646 48.3935 11.0421 48.9079 10.8007 49.3692C10.5755 49.7652 10.2308 50.0166 9.90118 50.0166H9.68572C9.36254 50.0166 9.04583 49.7749 8.79806 49.3487C8.53973 48.8886 8.40499 48.3693 8.40701 47.8414V41.0311C8.40026 40.6547 8.49717 40.2836 8.6871 39.9587C8.867 39.6738 9.10292 39.5163 9.35069 39.5163C9.59847 39.5163 9.82577 39.6738 9.99706 39.9565C10.1787 40.2865 10.2701 40.6587 10.2621 41.0355V47.3947C10.2621 47.8587 10.0466 48.2687 9.79237 48.2687C9.57692 48.2687 9.33561 47.9191 9.33561 47.3947V43.763C9.33561 43.53 9.2225 43.339 9.08353 43.339C8.94456 43.339 8.83037 43.53 8.83037 43.763V47.3904C8.83037 48.355 9.24404 49.0822 9.79237 49.0822C10.0595 49.0822 10.3062 48.9161 10.484 48.6129C10.6828 48.2369 10.7804 47.8156 10.7673 47.3904V41.0311C10.7784 40.4443 10.633 39.8652 10.3461 39.3534C10.0789 38.9056 9.72235 38.6607 9.34208 38.6607C8.9618 38.6607 8.60522 38.9056 8.33483 39.3534C8.04721 39.866 7.90212 40.4465 7.91469 41.0344V47.8436C7.91469 48.6237 8.11291 49.4156 8.44256 49.9615C8.7722 50.5075 9.21819 50.8247 9.67495 50.8247H9.89579C10.3429 50.8247 10.791 50.5075 11.125 49.9529C11.2979 49.6601 11.4281 49.344 11.5117 49.0142C11.6082 48.6407 11.6567 48.2564 11.6561 47.8706V42.5837C11.6561 42.3496 11.5483 42.1597 11.405 42.1597L11.4094 42.1705Z" fill="white"/>
        <path d="M59.6387 53.9223C59.6387 53.9223 60.2775 54.7596 59.3435 56.023C58.4095 57.2865 57.6382 58.3546 57.9506 59.1401C57.9506 59.1401 59.3597 56.7934 60.5059 56.7664C61.6521 56.7395 60.8991 55.3336 59.6387 53.9223Z" fill="#FAA53B"/>
        <path opacity="0.1" d="M59.6387 53.9223C59.6941 54.0036 59.738 54.0922 59.769 54.1856C60.8872 55.5019 61.483 56.7297 60.4079 56.761C59.406 56.7902 58.2048 58.5834 57.9172 59.0365C57.926 59.0732 57.9372 59.1092 57.9506 59.1444C57.9506 59.1444 59.3597 56.7977 60.5059 56.7707C61.6521 56.7438 60.8991 55.3336 59.6387 53.9223Z" fill="black"/>
        <path d="M60.8258 54.9894C60.8258 55.2839 60.7924 55.5224 60.7515 55.5224C60.7105 55.5224 60.6782 55.2839 60.6782 54.9894C60.6782 54.6948 60.7191 54.8329 60.7601 54.8329C60.801 54.8329 60.8258 54.6948 60.8258 54.9894Z" fill="#FFD037"/>
        <path d="M61.233 55.3411C60.9756 55.4814 60.7504 55.5666 60.731 55.531C60.7116 55.4954 60.9045 55.3519 61.1619 55.2073C61.4194 55.0628 61.3181 55.1696 61.3375 55.2073C61.3569 55.2451 61.4916 55.1998 61.233 55.3411Z" fill="#FFD037"/>
        <path d="M56.2636 53.9223C56.2636 53.9223 55.6248 54.7596 56.5588 56.023C57.4928 57.2865 58.2619 58.3546 57.9506 59.1401C57.9506 59.1401 56.5426 56.7934 55.3953 56.7664C54.248 56.7395 55.0021 55.3336 56.2636 53.9223Z" fill="#FAA53B"/>
        <path opacity="0.1" d="M56.2636 53.9223C56.2081 54.0036 56.1643 54.0922 56.1332 54.1856C55.014 55.5019 54.4182 56.7297 55.4944 56.761C56.4952 56.7902 57.6974 58.5834 57.9851 59.0365C57.9758 59.0732 57.9643 59.1092 57.9506 59.1444C57.9506 59.1444 56.5426 56.7977 55.3953 56.7707C54.248 56.7438 55.0021 55.3336 56.2636 53.9223Z" fill="black"/>
        <path d="M55.0764 54.9894C55.0764 55.2839 55.1088 55.5224 55.1497 55.5224C55.1906 55.5224 55.224 55.2839 55.224 54.9894C55.224 54.6948 55.182 54.8329 55.1422 54.8329C55.1023 54.8329 55.0764 54.6948 55.0764 54.9894Z" fill="#FFD037"/>
        <path d="M54.6682 55.3411C54.9267 55.4814 55.1519 55.5666 55.1713 55.531C55.1906 55.4954 54.9978 55.3519 54.7403 55.2073C54.4829 55.0628 54.5841 55.1696 54.5648 55.2073C54.5454 55.2451 54.4064 55.1998 54.6682 55.3411Z" fill="#FFD037"/>
        <path opacity="0.1" d="M57.9506 65.5404C61.6394 65.5404 64.6297 65.081 64.6297 64.5143C64.6297 63.9476 61.6394 63.4882 57.9506 63.4882C54.2619 63.4882 51.2715 63.9476 51.2715 64.5143C51.2715 65.081 54.2619 65.5404 57.9506 65.5404Z" fill="#FAA53B"/>
        <path d="M61.3892 58.0126L61.3569 58.2737L61.3117 58.6427L61.2934 58.7959L61.2481 59.166L61.2287 59.3192L61.1846 59.6882L60.6729 63.8853C60.6276 64.2597 60.0168 64.5521 59.2789 64.5521H56.6234C55.8855 64.5521 55.2757 64.2597 55.2294 63.8853L54.7177 59.6882L54.6724 59.3192L54.6541 59.166L54.6089 58.7959L54.5895 58.6427L54.5453 58.2737L54.513 58.0126C54.4872 57.7968 54.8179 57.6209 55.2359 57.6209H60.6675C61.0854 57.6209 61.4151 57.8 61.3892 58.0126Z" fill="#444053"/>
        <path d="M61.357 58.2737L61.3117 58.6427H54.5895L54.5454 58.2737H61.357Z" fill="#9D9CB5"/>
        <path d="M61.2934 58.797L61.2481 59.166H54.6542L54.6089 58.797H61.2934Z" fill="#9D9CB5"/>
        <path d="M61.2287 59.3203L61.1845 59.6892H54.7177L54.6725 59.3203H61.2287Z" fill="#9D9CB5"/>
        <path d="M44.9652 35.222L43.9364 36.5912C43.9279 36.604 43.9157 36.614 43.9016 36.6199C43.8874 36.6258 43.8718 36.6275 43.8567 36.6247L42.7935 36.37C42.7734 36.3624 42.7558 36.3492 42.7429 36.3321C42.7299 36.3149 42.722 36.2944 42.7202 36.2729L42.5306 34.8628C42.5249 34.8249 42.5338 34.7864 42.5554 34.7549L43.582 33.3878C43.6204 33.333 43.6391 33.2666 43.6347 33.1997C43.6304 33.1328 43.6035 33.0694 43.5583 33.0199C43.3639 32.8255 43.1044 32.7102 42.8301 32.6962C42.815 32.6946 42.7999 32.6946 42.7848 32.6962C42.4983 32.7178 41.8842 32.9304 41.4102 33.5982C40.9502 34.2456 40.4687 35.4389 40.8953 36.7725C40.9459 36.9333 41.003 37.1458 40.8328 37.3713C40.6626 37.5968 36.2598 43.0897 36.2598 43.0897C35.8472 43.5612 35.8774 44.433 36.2598 44.9401C36.3411 45.0559 36.4482 45.1512 36.5725 45.2186C36.6967 45.286 36.8349 45.3236 36.9762 45.3285C37.1138 45.326 37.2484 45.288 37.367 45.2183C37.4857 45.1486 37.5845 45.0494 37.6538 44.9304C37.6538 44.9304 41.7625 39.1257 41.9629 38.8613C41.9898 38.8171 42.027 38.78 42.0712 38.7532C42.1155 38.7263 42.1655 38.7105 42.2171 38.707C42.2883 38.7107 42.3566 38.7359 42.4132 38.7793C42.6317 38.9288 42.8908 39.0075 43.1554 39.0048C43.7695 39.0048 44.4147 38.6272 44.809 38.105C45.2156 37.58 45.452 36.9429 45.4866 36.2794C45.5003 35.9173 45.4158 35.5583 45.2421 35.2404C45.2306 35.2143 45.2124 35.1919 45.1893 35.1753C45.1661 35.1588 45.139 35.1488 45.1107 35.1463C45.0824 35.1439 45.0539 35.1491 45.0283 35.1615C45.0027 35.1739 44.9809 35.1929 44.9652 35.2167V35.222ZM37.2089 44.2798C37.1841 44.3176 37.1503 44.3487 37.1105 44.3702C37.0707 44.3917 37.0262 44.403 36.9811 44.403C36.9359 44.403 36.8914 44.3917 36.8516 44.3702C36.8118 44.3487 36.778 44.3176 36.7532 44.2798C36.693 44.1906 36.6608 44.0854 36.6608 43.9777C36.6608 43.87 36.693 43.7648 36.7532 43.6756C36.778 43.6377 36.8118 43.6067 36.8516 43.5852C36.8914 43.5637 36.9359 43.5524 36.9811 43.5524C37.0262 43.5524 37.0707 43.5637 37.1105 43.5852C37.1503 43.6067 37.1841 43.6377 37.2089 43.6756C37.2693 43.7647 37.3016 43.8698 37.3018 43.9775C37.302 44.0852 37.27 44.1905 37.21 44.2798H37.2089Z" fill="white"/>
        <path d="M81.3887 37.8687C81.1043 34.5758 78.8754 32.0101 76.164 32.0101C74.3692 32.0101 72.7889 33.1311 71.8398 34.8434C71.5485 34.6921 71.2254 34.6125 70.8972 34.6114C69.5269 34.6114 68.4195 36.1219 68.3947 37.8245C66.9943 38.3812 66.0721 40.0903 66.0721 41.8835C66.0721 44.0813 67.4984 46.0212 69.2565 46.0212H80.8307C82.5899 46.0212 84.0162 44.0791 84.0162 41.8835C84.0162 39.9263 82.8807 38.201 81.3887 37.8687ZM78.7742 37.1135L74.0891 42.9937C74.0288 43.0682 73.8737 43.2343 73.6819 43.2343C73.5998 43.2247 73.5207 43.1975 73.4501 43.1545C73.3794 43.1115 73.3189 43.0537 73.2726 42.9851L71.3066 40.5305C71.2794 40.4946 71.2647 40.4509 71.2647 40.4059C71.2647 40.3609 71.2794 40.3171 71.3066 40.2812L71.9303 39.5022C71.9415 39.4865 71.9562 39.4736 71.9732 39.4644C71.9902 39.4552 72.009 39.4501 72.0283 39.4494C72.0476 39.45 72.0665 39.4551 72.0836 39.4643C72.1006 39.4735 72.1152 39.4864 72.1264 39.5022L73.683 41.4443L77.9576 36.0637C77.969 36.0481 77.9837 36.0353 78.0007 36.0261C78.0176 36.017 78.0364 36.0117 78.0557 36.0108C78.0751 36.0109 78.0942 36.0158 78.1113 36.025C78.1283 36.0342 78.1429 36.0475 78.1537 36.0637L78.7666 36.8567C78.7967 36.8917 78.8138 36.936 78.8152 36.9821C78.8166 37.0283 78.8021 37.0735 78.7742 37.1102V37.1135Z" fill="white"/>
        <path d="M109.761 43.0833C110.349 43.0833 110.826 42.4461 110.826 41.6602C110.826 40.8742 110.349 40.237 109.761 40.237C109.172 40.237 108.695 40.8742 108.695 41.6602C108.695 42.4461 109.172 43.0833 109.761 43.0833Z" fill="white"/>
        <path d="M109.761 43.6325C109.643 43.6319 109.527 43.613 109.415 43.5764L108.364 45.0081C108.355 45.0201 108.35 45.0347 108.35 45.0496C108.35 45.0646 108.355 45.0791 108.364 45.0912L110.034 47.4649C110.09 47.5451 110.119 47.6403 110.119 47.7378C110.119 47.8353 110.09 47.9305 110.034 48.0108C110.011 48.0432 109.98 48.0698 109.945 48.0885C109.909 48.1072 109.87 48.1175 109.83 48.1187C109.79 48.1176 109.751 48.1073 109.715 48.0886C109.68 48.0699 109.649 48.0433 109.626 48.0108L107.962 45.6371C107.958 45.6318 107.953 45.6274 107.948 45.6244C107.942 45.6213 107.936 45.6198 107.929 45.6198C107.923 45.6198 107.917 45.6213 107.911 45.6244C107.905 45.6274 107.901 45.6318 107.897 45.6371L107.491 46.1895C107.152 46.6492 106.701 46.5801 106.217 46.5834C105.732 46.5866 105.261 46.3104 104.916 45.8443L104.526 45.3134C104.523 45.3081 104.518 45.3037 104.512 45.3007C104.507 45.2977 104.5 45.2961 104.494 45.2961C104.488 45.2961 104.481 45.2977 104.476 45.3007C104.47 45.3037 104.465 45.3081 104.462 45.3134L102.797 47.6871C102.774 47.7195 102.743 47.7461 102.707 47.7648C102.672 47.7835 102.633 47.7939 102.593 47.795C102.553 47.7939 102.514 47.7836 102.478 47.7649C102.443 47.7462 102.412 47.7196 102.389 47.6871C102.334 47.6068 102.304 47.5116 102.304 47.4141C102.304 47.3167 102.334 47.2215 102.389 47.1412L104.06 44.7675C104.067 44.7549 104.071 44.7406 104.071 44.726C104.071 44.7114 104.067 44.697 104.06 44.6844L101.669 41.4346C101.64 41.3958 101.594 41.4228 101.594 41.4756V47.9795C101.594 48.5017 101.917 48.929 102.304 48.929L110.116 49.2527C110.507 49.2527 110.826 48.8211 110.826 48.3032V43.0239C110.558 43.3983 110.181 43.6325 109.761 43.6325Z" fill="white"/>
        <path d="M108.285 41.6601C108.284 41.3348 108.345 41.0124 108.467 40.7107L102.302 40.387C102.218 40.3891 102.136 40.4087 102.06 40.4445C101.984 40.4804 101.917 40.5317 101.862 40.5952L105.345 45.3318C105.44 45.4765 105.568 45.5961 105.719 45.6806C105.87 45.7652 106.039 45.812 106.212 45.8173C106.535 45.8173 106.85 45.9694 107.081 45.6555L108.867 43.2257C108.512 42.8642 108.285 42.2978 108.285 41.6601Z" fill="white"/>
        <path d="M116.976 58.7193C116.976 58.7193 115.717 58.6437 115.866 59.5263C115.858 59.5708 115.864 59.6167 115.883 59.6575C115.902 59.6984 115.934 59.7321 115.973 59.754C115.973 59.754 115.973 59.6882 116.103 59.7108C116.148 59.7181 116.194 59.7203 116.239 59.7173C116.301 59.7125 116.359 59.6884 116.406 59.6482C116.406 59.6482 116.76 59.5015 116.898 58.9221C116.898 58.9221 117 58.7959 116.996 58.7635L116.78 58.8541C116.821 58.9427 116.826 59.0434 116.795 59.1357C116.795 59.1357 116.789 58.8595 116.748 58.866C116.739 58.866 116.64 58.9199 116.64 58.9199C116.64 58.9199 116.765 59.1864 116.671 59.3807C116.671 59.3807 116.707 59.057 116.601 58.9394L116.452 59.0268C116.452 59.0268 116.598 59.3019 116.499 59.5274C116.499 59.5274 116.525 59.1821 116.42 59.0473L116.285 59.1552C116.285 59.1552 116.423 59.4281 116.339 59.6148C116.339 59.6148 116.328 59.2123 116.256 59.1832C116.204 59.2268 116.158 59.2764 116.119 59.331C116.119 59.331 116.213 59.5285 116.154 59.6321C116.154 59.6321 116.119 59.3645 116.09 59.3634C116.028 59.454 115.984 59.5553 115.959 59.6623C115.965 59.5498 116.001 59.4408 116.062 59.3461C115.994 59.359 115.931 59.3916 115.881 59.44C115.881 59.44 115.899 59.3148 116.096 59.303C116.132 59.251 116.173 59.2033 116.219 59.1606C116.116 59.1516 116.012 59.1638 115.913 59.1962C115.913 59.1962 116.021 59.0775 116.255 59.1314L116.388 59.0235C116.27 59.0042 116.149 59.0042 116.03 59.0235C116.03 59.0235 116.153 58.9156 116.424 58.9955L116.57 58.9081C116.458 58.8833 116.343 58.8732 116.229 58.8779C116.353 58.8314 116.49 58.8337 116.612 58.8843L116.72 58.8379C116.72 58.8379 116.563 58.8067 116.517 58.8023C116.472 58.798 116.469 58.784 116.469 58.784C116.568 58.7678 116.67 58.7793 116.763 58.8174C116.837 58.791 116.908 58.7582 116.976 58.7193Z" fill="#FAA53B"/>
        <path opacity="0.1" d="M116.109 59.9817C116.601 59.9817 117 59.914 117 59.8306C117 59.7472 116.601 59.6796 116.109 59.6796C115.617 59.6796 115.218 59.7472 115.218 59.8306C115.218 59.914 115.617 59.9817 116.109 59.9817Z" fill="#FAA53B"/>
        <path d="M97.5812 58.756C97.5812 58.756 96.0622 58.6643 96.2411 59.727C96.2318 59.7811 96.2398 59.8367 96.264 59.886C96.2882 59.9352 96.3273 59.9755 96.3757 60.0011C96.3757 60.0011 96.3757 59.9223 96.5319 59.9493C96.5864 59.9586 96.6417 59.9611 96.6968 59.9569C96.7715 59.9521 96.8427 59.9229 96.8993 59.8738C96.8993 59.8738 97.3302 59.6968 97.4918 58.9977C97.4918 58.9977 97.6157 58.8455 97.6103 58.8056L97.3539 58.9135C97.4028 59.02 97.4094 59.1412 97.3722 59.2523C97.3722 59.2523 97.3647 58.92 97.3151 58.9286C97.3054 58.9286 97.1815 58.9923 97.1815 58.9923C97.1815 58.9923 97.3323 59.316 97.2192 59.5501C97.2192 59.5501 97.2623 59.152 97.1341 59.0106L96.9542 59.1185C96.9542 59.1185 97.1298 59.4519 97.0113 59.7249C97.0113 59.7249 97.0415 59.3073 96.9165 59.1444L96.7528 59.2728C96.7528 59.2728 96.9187 59.5965 96.8174 59.8263C96.8174 59.8263 96.8045 59.3408 96.7172 59.3041C96.6552 59.3564 96.5998 59.4162 96.5524 59.4821C96.5524 59.4821 96.6601 59.7206 96.5955 59.8468C96.5955 59.8468 96.5524 59.5231 96.5169 59.5231C96.4427 59.6329 96.3894 59.7554 96.3596 59.8846C96.3667 59.7487 96.409 59.6171 96.4824 59.5026C96.4018 59.5173 96.327 59.5548 96.2669 59.6105C96.2669 59.6105 96.2896 59.4584 96.5212 59.4454C96.5639 59.3824 96.6138 59.3244 96.6698 59.2728C96.545 59.2621 96.4193 59.2768 96.3003 59.316C96.3003 59.316 96.4231 59.1725 96.7118 59.2372L96.8734 59.1056C96.7307 59.0824 96.5852 59.0824 96.4425 59.1056C96.4425 59.1056 96.5901 58.9793 96.9176 59.071L97.0932 58.9631C96.9578 58.9332 96.8191 58.9212 96.6806 58.9275C96.6806 58.9275 96.8433 58.8391 97.1449 58.934L97.2699 58.8779C97.2699 58.8779 97.0813 58.8412 97.0253 58.8348C96.9693 58.8283 96.9672 58.8132 96.9672 58.8132C97.0871 58.7934 97.2101 58.8072 97.3227 58.8531C97.4116 58.8286 97.4981 58.7961 97.5812 58.756Z" fill="#FAA53B"/>
        <path opacity="0.1" d="M96.5351 60.2805C97.1289 60.2805 97.6102 60.1989 97.6102 60.0982C97.6102 59.9975 97.1289 59.9158 96.5351 59.9158C95.9414 59.9158 95.46 59.9975 95.46 60.0982C95.46 60.1989 95.9414 60.2805 96.5351 60.2805Z" fill="#FAA53B"/>
        <path d="M88.0516 48.1198C88.0516 48.1198 88.1755 48 88.1346 47.9191C88.1226 47.894 88.1164 47.8665 88.1164 47.8387C88.1164 47.8109 88.1226 47.7834 88.1346 47.7583C88.1346 47.7583 87.8567 46.6643 87.7532 46.5542C87.6853 46.4741 87.6331 46.3818 87.5992 46.2823C87.61 46.261 87.6152 46.2372 87.6143 46.2133C87.6097 46.103 87.5722 45.9966 87.5065 45.9079C87.4257 45.7883 87.3812 45.6478 87.3784 45.5033C87.3773 45.4854 87.3773 45.4674 87.3784 45.4494C87.3474 45.3682 87.2974 45.2957 87.2325 45.238C87.1676 45.1803 87.0898 45.1392 87.0056 45.1182C87.0412 44.8862 87.0896 44.6542 87.1047 44.4212C87.1532 43.6907 86.8817 42.9818 86.6146 42.2978C86.5562 42.1282 86.4777 41.9663 86.3808 41.8155C86.2613 41.6579 86.1099 41.5274 85.9365 41.4325C85.7631 41.3377 85.5716 41.2807 85.3746 41.2653C85.2297 41.247 85.0824 41.2614 84.9437 41.3073C84.8067 41.3689 84.6811 41.4532 84.5721 41.5566C84.4568 41.6537 84.3415 41.7529 84.2349 41.8587L84.222 41.8716L84.1842 41.9115L84.1692 41.9266L84.1336 41.9666L84.1207 41.9806C84.1056 41.9989 84.0894 42.0173 84.0744 42.0367C84.0604 42.055 84.0464 42.0723 84.0334 42.0906L84.0205 42.109L83.9925 42.1489L83.9796 42.1694C83.9699 42.1834 83.9623 42.1975 83.9537 42.2115L83.9419 42.2309C83.9311 42.2514 83.9192 42.2719 83.9085 42.2935L83.8697 42.3798V42.3917L83.8471 42.4489C83.818 42.5179 83.79 42.587 83.7544 42.6528L83.748 42.6636L83.6704 42.7574C83.635 42.804 83.6053 42.8548 83.5821 42.9085L83.5745 42.9257C83.5745 42.9333 83.5691 42.9419 83.5659 42.9495L83.5584 42.9689C83.5563 42.9773 83.5538 42.9856 83.5508 42.9937C83.5508 43.0002 83.5508 43.0067 83.5508 43.0142L83.5443 43.038C83.5443 43.0455 83.5443 43.052 83.5443 43.0595C83.5443 43.0671 83.5443 43.0757 83.539 43.0833V43.1059V43.1297C83.539 43.1383 83.539 43.1469 83.539 43.1566C83.539 43.1663 83.539 43.1696 83.539 43.175C83.539 43.1804 83.539 43.2052 83.539 43.2203C83.539 43.2354 83.539 43.2322 83.539 43.2386C83.5384 43.2483 83.5384 43.2581 83.539 43.2678C83.5384 43.2742 83.5384 43.2807 83.539 43.2872C83.5384 43.2962 83.5384 43.3052 83.539 43.3142V43.3336C83.539 43.3433 83.539 43.3519 83.539 43.3606C83.5385 43.367 83.5385 43.3735 83.539 43.38L83.5454 43.408C83.5454 43.408 83.5454 43.4199 83.5454 43.4253L83.5551 43.4555C83.5551 43.4555 83.5551 43.4652 83.5605 43.4695C83.5659 43.4738 83.5713 43.4997 83.5777 43.5138C83.6108 43.5861 83.6513 43.6548 83.6984 43.7188C83.7296 43.7619 83.762 43.804 83.7943 43.8472L83.8406 43.9119C83.872 43.9549 83.9004 43.9999 83.9257 44.0468C84.0013 44.1913 84.038 44.3531 84.0322 44.5162C84.0263 44.6793 83.9781 44.8381 83.8923 44.9768L83.8535 45.0362C83.8322 45.0691 83.8173 45.1057 83.8094 45.144C83.8056 45.1774 83.8091 45.2112 83.8197 45.2431C83.8303 45.275 83.8477 45.3041 83.8708 45.3285L83.7749 45.3534C83.6962 45.3749 83.6424 45.3922 83.6424 45.3922C83.5772 45.3864 83.5115 45.3864 83.4463 45.3922C83.3558 45.4208 83.2744 45.473 83.2104 45.5433C83.2104 45.5433 82.7989 45.5929 82.6642 45.4731C82.5296 45.3534 82.0577 45.3124 82.0577 45.3124C82.0577 45.3124 81.9241 45.0513 81.7798 44.9703C81.6354 44.8894 81.2864 44.7394 81.2756 44.6596C81.2456 44.5751 81.2003 44.4968 81.142 44.4287C81.0712 44.4135 80.999 44.4048 80.9266 44.4028L80.904 44.364L80.6163 43.8666C80.6163 43.8666 80.2554 43.4447 80.0605 43.4048C79.8655 43.3649 80.3352 43.8526 80.3578 43.8752C80.2912 43.8275 80.2084 43.8082 80.1276 43.8216C80.0468 43.8349 79.9747 43.8798 79.9269 43.9464C79.7739 44.1169 80.18 44.5172 80.4321 44.7384L80.473 44.774C80.4749 44.7961 80.4781 44.8181 80.4827 44.8398C80.5959 45.4321 81.2228 45.9446 81.2228 45.9446C81.2228 45.9446 81.295 46.2759 81.532 46.3568C81.7205 46.4204 82.7332 46.8801 83.261 46.9718C83.2169 47.0861 83.1651 47.3516 83.3838 47.7421C83.3838 47.7421 83.4355 48.4348 83.3224 48.5255C83.2093 48.6161 83.2147 49.6195 83.2147 49.6195C83.2147 49.6195 82.7838 51.3663 83.2147 51.7375C83.242 51.761 83.2729 51.7799 83.3063 51.7936C83.3063 51.8205 83.3138 51.8486 83.317 51.8777C83.3364 52.0525 83.3429 52.2338 83.2966 52.3093C83.1888 52.4798 83.3321 52.9416 83.3321 52.9416C83.3321 52.9416 82.9163 55.3012 83.1016 56.1342C83.2186 56.7565 83.2734 57.389 83.2653 58.0223C83.2653 58.0223 83.2039 58.7549 83.5228 59.1973C83.5579 59.3019 83.5785 59.4108 83.5842 59.521C83.6051 59.7326 83.6608 59.9393 83.749 60.1327C83.8212 60.273 83.9645 60.8664 83.8417 61.0261C83.7189 61.1858 83.9753 62.9347 83.9753 62.9347C83.9753 62.9347 83.7695 63.4742 83.9753 63.758L83.9817 63.7655C83.8597 63.7641 83.7384 63.7467 83.6208 63.7137C83.3903 63.636 83.5627 63.9295 83.8363 64.1302C83.7167 64.4021 83.553 64.7668 83.498 64.8855C83.2599 64.9265 82.7881 64.9933 82.5112 64.9275C82.131 64.838 82.6761 65.4497 83.1899 65.5609C83.5528 65.6287 83.9221 65.6555 84.2909 65.6407L84.6227 65.2739C84.8908 65.3099 85.1617 65.32 85.4317 65.3041L85.4026 65.645H85.5976V65.2911C85.7204 65.2793 85.8476 65.2631 85.979 65.2393C85.979 65.2393 85.9865 64.866 85.9628 64.5132L86.0824 64.524L86.1007 64.3287L86.5241 64.4053L86.9043 61.2764C86.9043 61.2764 86.9464 60.1122 87.039 59.4595C87.1317 58.8067 86.8429 56.6175 86.8429 56.6175C86.8429 56.6175 86.8225 56.5096 86.802 56.3068C86.7815 56.1039 86.802 54.9203 86.802 54.9203C86.802 54.9203 86.9561 54.273 86.9259 54.2179C86.8957 54.1629 86.9356 53.8867 86.9356 53.8867C87.582 52.5672 86.7869 51.3749 86.5101 51.021C86.526 51.0062 86.5357 50.9857 86.537 50.9639C86.5386 50.9564 86.5386 50.9487 86.537 50.9412C86.4934 50.8296 86.4415 50.7214 86.3819 50.6175L86.5435 50.4114C86.5995 50.4924 86.6393 50.5528 86.6393 50.5528C86.6393 50.5528 86.8139 50.1611 86.9895 50.0133C87.1651 49.8655 88.0075 48.4575 88.0075 48.4575C88.0075 48.4575 88.2035 48.3259 88.1001 48.2158C87.9967 48.1057 88.0516 48.1198 88.0516 48.1198ZM85.4597 59.2242C85.4459 59.1787 85.4207 59.1375 85.3865 59.1045C85.3865 59.1045 85.3563 58.8887 85.3455 58.6114C85.4069 58.8272 85.4694 58.9836 85.4694 58.9836L85.4597 59.2242ZM85.9445 64.3568C85.9445 64.3373 85.9445 64.3179 85.9445 64.2996H85.9596L85.9445 64.3568ZM86.0716 50.0737V50.0608C86.0693 50.0331 86.0743 50.0053 86.086 49.9802C86.0977 49.955 86.1158 49.9333 86.1384 49.9173C86.1502 49.91 86.1597 49.8996 86.166 49.8872C86.1723 49.8749 86.175 49.861 86.174 49.8472C86.169 49.8017 86.1518 49.7585 86.1244 49.722C86.1449 49.7371 86.2084 49.7716 86.2515 49.6465C86.258 49.627 86.2613 49.6066 86.2612 49.5861C86.2509 49.4814 86.2084 49.3826 86.1395 49.3034L86.6049 48.3215C86.6558 48.3367 86.7076 48.3486 86.76 48.3571C86.6383 48.7348 86.5381 49.1847 86.5381 49.1847L86.1783 49.9777C86.2026 49.9872 86.2242 50.0028 86.2408 50.023L86.0716 50.0737Z" fill="url(#paint0_linear)"/>
        <path d="M84.5236 63.7407C84.5236 63.7407 83.9193 63.8151 83.6252 63.7137C83.3311 63.6123 83.7157 64.1453 84.1132 64.2758C84.3937 64.3582 84.683 64.4075 84.975 64.4225L85.4415 63.9823L85.937 64.0212L85.8508 64.5078L86.0049 64.5218L86.0641 63.8852L84.5236 63.7407Z" fill="#444053"/>
        <path opacity="0.1" d="M84.5236 63.7407C84.5236 63.7407 83.9193 63.8151 83.6252 63.7137C83.3311 63.6123 83.7157 64.1453 84.1132 64.2758C84.3937 64.3582 84.683 64.4075 84.975 64.4225L85.4415 63.9823L85.937 64.0212L85.8508 64.5078L86.0049 64.5218L86.0641 63.8852L84.5236 63.7407Z" fill="black"/>
        <path d="M83.651 64.8531C83.651 64.8531 82.9249 65.0117 82.5575 64.9221C82.1902 64.8326 82.717 65.44 83.2136 65.549C83.5637 65.6169 83.9205 65.6437 84.2768 65.6288L84.7939 65.0419L85.3994 65.0322L85.3498 65.6331H85.5394V64.8531H83.651Z" fill="#444053"/>
        <path opacity="0.1" d="M83.651 64.8531C83.651 64.8531 82.9249 65.0117 82.5575 64.9221C82.1902 64.8326 82.717 65.44 83.2136 65.549C83.5637 65.6169 83.9205 65.6437 84.2768 65.6288L84.7939 65.0419L85.3994 65.0322L85.3498 65.6331H85.5394V64.8531H83.651Z" fill="black"/>
        <path d="M86.3334 51.0286C86.3334 51.0286 87.5755 52.4118 86.8311 53.9741C86.8311 53.9741 86.7913 54.2535 86.8203 54.3032C86.8494 54.3528 86.7018 55.0001 86.7018 55.0001C86.7018 55.0001 86.6814 56.174 86.7018 56.3736C86.7223 56.5732 86.7417 56.6811 86.7417 56.6811C86.7417 56.6811 87.0196 58.8509 86.9302 59.4983C86.8408 60.1456 86.801 61.3001 86.801 61.3001L86.4336 64.4053L84.5258 64.0471L85.3876 59.7863L85.4177 59.0311C85.4177 59.0311 85.0601 58.1064 85.2184 57.6382C85.3768 57.1699 85.1786 51.2088 85.1786 51.2088L86.3334 51.0286Z" fill="#444053"/>
        <path opacity="0.02" d="M86.3334 51.0286C86.3334 51.0286 87.5755 52.4118 86.8311 53.9741C86.8311 53.9741 86.7913 54.2535 86.8203 54.3032C86.8494 54.3528 86.7018 55.0001 86.7018 55.0001C86.7018 55.0001 86.6814 56.174 86.7018 56.3736C86.7223 56.5732 86.7417 56.6811 86.7417 56.6811C86.7417 56.6811 87.0196 58.8509 86.9302 59.4983C86.8408 60.1456 86.801 61.3001 86.801 61.3001L86.4336 64.4053L84.5258 64.0471L85.3876 59.7863L85.4177 59.0311C85.4177 59.0311 85.0601 58.1064 85.2184 57.6382C85.3768 57.1699 85.1786 51.2088 85.1786 51.2088L86.3334 51.0286Z" fill="black"/>
        <path d="M85.4199 57.717C85.2044 58.1345 85.3401 59.1498 85.3401 59.1498C85.6278 59.399 85.4694 61.5688 85.4694 61.5688C85.4694 61.5688 85.6676 63.7083 85.7926 63.9576C85.9176 64.2068 85.9003 65.2307 85.9003 65.2307C84.4395 65.4994 83.4851 64.9221 83.4851 64.9221C83.4851 64.9221 83.9526 63.8572 83.9623 63.8076C83.9677 63.7795 84.0302 63.8551 84.0485 63.8777L83.9623 63.7579C83.763 63.4796 83.9623 62.9423 83.9623 62.9423C83.9623 62.9423 83.7135 61.216 83.833 61.0509C83.9526 60.8858 83.8136 60.3043 83.7436 60.1651C83.6581 59.9725 83.6042 59.7674 83.5842 59.5576C83.5784 59.4494 83.5585 59.3424 83.5249 59.2393C83.2168 58.8013 83.2761 58.0752 83.2761 58.0752C83.2843 57.4478 83.2313 56.8212 83.1177 56.2043C82.9389 55.3778 83.3407 53.0386 83.3407 53.0386C83.3407 53.0386 83.2071 52.5812 83.3063 52.4118C83.3515 52.3363 83.345 52.1572 83.3256 51.9802C83.3019 51.7644 83.2567 51.5637 83.2567 51.5637L85.9703 51.0847C86.0274 51.1796 86.0781 51.2713 86.1276 51.3598C87.025 53.0203 86.4196 53.6364 86.4196 53.6364L85.8432 55.408C85.8432 55.408 85.6385 57.2983 85.4199 57.717Z" fill="#444053"/>
        <path d="M81.1226 44.7286L80.7348 45.0523C80.7348 45.0523 80.6583 44.9919 80.5571 44.9002C80.3136 44.6844 79.9215 44.2841 80.0691 44.1158C80.0913 44.0833 80.1199 44.0556 80.153 44.0343C80.1862 44.0131 80.2233 43.9988 80.2621 43.9923C80.3009 43.9857 80.3406 43.9871 80.3789 43.9963C80.4172 44.0054 80.4532 44.0222 80.4849 44.0456C80.4633 44.0219 80.013 43.5396 80.1983 43.5785C80.3836 43.6173 80.737 44.0359 80.737 44.0359L81.0149 44.529L81.1226 44.7286Z" fill="#EFB7B9"/>
        <path d="M86.314 50.104L85.8572 50.2432L86.2041 50.8495L86.6016 50.3327L86.314 50.104Z" fill="#EFB7B9"/>
        <path d="M85.2411 44.4007C85.9598 44.4007 86.5424 43.8171 86.5424 43.0973C86.5424 42.3775 85.9598 41.7939 85.2411 41.7939C84.5224 41.7939 83.9398 42.3775 83.9398 43.0973C83.9398 43.8171 84.5224 44.4007 85.2411 44.4007Z" fill="#EFB7B9"/>
        <path d="M84.4751 43.5731C84.4751 43.5731 85.6601 45.4537 84.5354 45.6134C83.4108 45.7731 86.0436 46.9168 86.0436 46.9168L87.0272 45.922C87.0272 45.922 86.0038 44.1504 86.1654 43.4739C86.3269 42.7974 84.4751 43.5731 84.4751 43.5731Z" fill="#EFB7B9"/>
        <path opacity="0.1" d="M86.1309 51.3598C85.8686 51.44 85.6012 51.5024 85.3305 51.5465C85.3305 51.5465 83.8654 52.1938 83.3321 51.978C83.3084 51.7623 83.2632 51.5616 83.2632 51.5616L85.9704 51.0847C86.0307 51.1796 86.0835 51.2713 86.1309 51.3598Z" fill="black"/>
        <path d="M87.4785 46.4398L87.2135 46.989L86.9151 47.6061L86.872 47.6946L86.5176 48.4617L86.0673 49.4328C86.0673 49.4328 86.2268 49.6216 86.175 49.7716C86.1233 49.9216 86.0555 49.8503 86.0468 49.8417C86.0544 49.8536 86.1546 49.9831 86.0652 50.0402C86.0388 50.0631 86.0193 50.0929 86.0088 50.1262C85.9984 50.1596 85.9974 50.1952 86.0059 50.229C86.0059 50.229 86.3733 50.8365 86.4433 51.0555C86.5133 51.2745 85.3305 51.4634 85.3305 51.4634C85.3305 51.4634 83.651 52.21 83.233 51.841C82.815 51.472 83.233 49.7414 83.233 49.7414C83.233 49.7414 83.233 48.7466 83.3407 48.657C83.4485 48.5675 83.4 47.8802 83.4 47.8802C83.1124 47.3526 83.3106 47.0537 83.3106 47.0537L83.2309 45.7007C83.2309 45.7007 83.3601 45.5615 83.4592 45.5518C83.5223 45.5454 83.5858 45.5454 83.6488 45.5518C83.6488 45.5518 83.7005 45.5335 83.777 45.513C83.9365 45.4677 84.2004 45.4051 84.2941 45.4515C84.4331 45.5216 85.3283 45.3436 85.3283 45.3436C85.7136 45.2871 86.1016 45.251 86.4907 45.2357C86.6236 45.2278 86.7569 45.2424 86.885 45.2789C86.9714 45.2983 87.0515 45.3393 87.1179 45.3979C87.1844 45.4566 87.2351 45.531 87.2652 45.6144C87.2504 45.7762 87.2927 45.9381 87.3848 46.0719C87.5464 46.3308 87.4785 46.4398 87.4785 46.4398Z" fill="#FF6484"/>
        <path opacity="0.1" d="M81.1226 44.7287L80.7348 45.0523C80.7348 45.0523 80.6583 44.9919 80.557 44.9002C80.5258 44.5647 80.8113 44.5204 81.0127 44.5291L81.1226 44.7287Z" fill="black"/>
        <path d="M83.4021 45.6943L83.233 45.704C83.233 45.704 82.8355 45.7536 82.7062 45.6339C82.5769 45.5141 82.1202 45.4753 82.1202 45.4753C82.1202 45.4753 81.9909 45.2163 81.8519 45.1365C81.713 45.0566 81.3747 44.9077 81.365 44.8279C81.3363 44.7443 81.2925 44.6668 81.2357 44.5992C81.2357 44.5992 80.4903 44.42 80.6002 45.007C80.71 45.5939 81.3155 46.1021 81.3155 46.1021C81.3155 46.1021 81.3855 46.4258 81.6139 46.51C81.8422 46.5941 83.3224 47.2868 83.5616 47.1077C83.8007 46.9286 83.4021 45.6943 83.4021 45.6943Z" fill="#FF6484"/>
        <path opacity="0.1" d="M87.387 46.0687C87.2948 45.9349 87.2525 45.773 87.2674 45.6112C87.2372 45.5278 87.1865 45.4534 87.1201 45.3948C87.0536 45.3361 86.9735 45.2952 86.8871 45.2757C86.8242 45.2569 86.7596 45.2443 86.6943 45.2379C86.7795 45.258 86.8583 45.299 86.9238 45.3572C86.9892 45.4154 87.0392 45.489 87.0692 45.5713C87.0536 45.7332 87.0959 45.8953 87.1887 46.0288C87.3471 46.2877 87.2782 46.3978 87.2782 46.3978L87.0131 46.9459L86.7137 47.5652L86.6717 47.6537L86.3172 48.4208L85.8669 49.3918C85.8669 49.3918 86.0253 49.5807 85.9747 49.7306C85.924 49.8806 85.8562 49.8094 85.8465 49.8008C85.8551 49.8126 85.9542 49.9421 85.8659 49.9993C85.8395 50.0222 85.8199 50.052 85.8093 50.0852C85.7987 50.1185 85.7974 50.1541 85.8055 50.1881C85.8055 50.1881 86.174 50.7956 86.2429 51.0146C86.3118 51.2336 85.1301 51.4224 85.1301 51.4224C85.1301 51.4224 83.9634 51.9403 83.3332 51.9004C83.8718 52.1108 85.3294 51.4623 85.3294 51.4623C85.3294 51.4623 86.5144 51.2735 86.4422 51.0545C86.37 50.8355 86.0048 50.228 86.0048 50.228C85.9963 50.1941 85.9973 50.1586 86.0078 50.1252C86.0182 50.0919 86.0377 50.0621 86.0641 50.0392C86.1503 49.982 86.0533 49.8526 86.0458 49.8407C86.0544 49.8493 86.1276 49.9097 86.174 49.7706C86.2203 49.6314 86.0662 49.4318 86.0662 49.4318L86.5165 48.4607L86.8709 47.6936L86.914 47.6051L87.2124 46.988L87.4774 46.4388C87.4774 46.4388 87.5464 46.3276 87.387 46.0687Z" fill="black"/>
        <path d="M87.2975 46.2909L87.4763 46.4398C87.5088 46.5384 87.5596 46.6299 87.6261 46.7096C87.7252 46.8174 87.9934 47.9029 87.9934 47.9029C87.9821 47.9279 87.9762 47.9552 87.9762 47.9827C87.9762 48.0102 87.9821 48.0375 87.9934 48.0625C88.0333 48.1424 87.9137 48.2622 87.9137 48.2622C87.9137 48.2622 87.8545 48.2416 87.9536 48.3517C88.0527 48.4618 87.8642 48.5901 87.8642 48.5901C87.8642 48.5901 87.0497 49.9831 86.8806 50.133C86.7115 50.283 86.5424 50.6725 86.5424 50.6725C86.5424 50.6725 86.189 50.1158 86.105 50.105L86.4529 49.3184C86.4529 49.3184 86.691 48.2244 86.8698 48.0237C87.0487 47.823 86.7804 47.1379 86.7804 47.1379L87.2975 46.2909Z" fill="#FF6484"/>
        <path opacity="0.1" d="M87.4117 48.3204C87.2631 48.4995 87.0002 48.5362 86.7654 48.5114C86.7309 48.5114 86.6975 48.5028 86.663 48.4963C86.6124 48.4866 86.5618 48.4747 86.5122 48.4607C86.3348 48.4094 86.1678 48.3273 86.0188 48.2179C85.9876 48.1896 85.9509 48.168 85.9111 48.1543C85.8638 48.1487 85.8158 48.1578 85.7738 48.1804C85.7318 48.203 85.6978 48.2379 85.6763 48.2805C85.6256 48.3614 85.6019 48.4564 85.5502 48.5373C85.4939 48.6134 85.4202 48.6749 85.3353 48.7165C85.2504 48.7582 85.1567 48.7789 85.0622 48.7768C84.873 48.7716 84.6859 48.7351 84.5085 48.6689C84.6672 48.4995 84.7883 48.2984 84.864 48.0788C84.8965 47.933 84.9059 47.783 84.892 47.6342C84.8489 46.9297 84.6044 46.1874 84.0302 45.7774C83.9311 45.7062 83.8147 45.622 83.7781 45.5152C83.9375 45.4699 84.2015 45.4073 84.2952 45.4537C84.4342 45.5238 85.3294 45.3458 85.3294 45.3458C85.7146 45.2893 86.1027 45.2532 86.4917 45.2379C86.6247 45.23 86.758 45.2446 86.886 45.2811C86.8216 45.5737 86.8107 45.8757 86.8537 46.1723C86.8945 46.3553 86.9605 46.5318 87.0498 46.6966C87.1015 46.7948 87.1575 46.893 87.2103 46.9912C87.3622 47.2631 87.5065 47.536 87.5335 47.8425C87.5564 48.0116 87.5127 48.183 87.4117 48.3204Z" fill="black"/>
        <path opacity="0.1" d="M85.4468 49.7231C85.5226 49.7029 85.6013 49.696 85.6795 49.7026C85.7449 49.7221 85.8047 49.7568 85.854 49.804H85.3434C85.212 49.804 85.0137 49.8116 84.9125 49.7188C85.0008 49.6292 85.3175 49.7382 85.4468 49.7231Z" fill="black"/>
        <path d="M83.6769 42.9441C83.5993 43.0509 83.5504 43.1758 83.535 43.3069C83.5195 43.438 83.5379 43.5709 83.5885 43.6929C83.6704 43.886 83.8277 44.036 83.9246 44.2216C83.9975 44.3655 84.0328 44.5257 84.0272 44.687C84.0215 44.8483 83.9751 45.0056 83.8923 45.1441C83.8545 45.1929 83.8274 45.2491 83.8126 45.3091C83.7889 45.4613 83.9462 45.5702 84.0711 45.6587C84.6442 46.0687 84.8888 46.811 84.933 47.5156C84.9478 47.6642 84.9387 47.8143 84.906 47.9601C84.8306 48.1798 84.7095 48.381 84.5505 48.5503C84.7281 48.616 84.9151 48.6524 85.1042 48.6582C85.1988 48.6598 85.2924 48.6388 85.3773 48.5969C85.4621 48.5551 85.5358 48.4936 85.5922 48.4176C85.6439 48.3377 85.6676 48.2428 85.7183 48.1608C85.7397 48.1181 85.7737 48.083 85.8158 48.0604C85.8578 48.0379 85.9058 48.0288 85.9531 48.0345C85.9928 48.0485 86.0294 48.0702 86.0609 48.0982C86.2799 48.2595 86.5373 48.3607 86.8074 48.3917C87.039 48.4186 87.3019 48.3798 87.4538 48.2007C87.5551 48.0622 87.5987 47.8896 87.5755 47.7195C87.5238 47.1164 87.0142 46.6406 86.8968 46.0493C86.8009 45.5692 86.9733 45.0782 87.0045 44.5906C87.0519 43.8677 86.7891 43.1631 86.5316 42.4866C86.4745 42.3189 86.3986 42.1582 86.3054 42.0076C86.1916 41.8535 86.0462 41.7257 85.879 41.6327C85.7117 41.5396 85.5265 41.4835 85.3359 41.4681C85.1948 41.4494 85.0513 41.4638 84.9168 41.5102C84.7838 41.5711 84.6621 41.6543 84.557 41.7562C84.3114 41.972 84.0582 42.1878 83.9106 42.4877C83.8525 42.6085 83.8148 42.738 83.7501 42.8545" fill="#925978"/>
        <g opacity="0.1">
            <path opacity="0.1" d="M83.9117 42.6808C83.9752 42.5632 84.0194 42.4337 84.0711 42.314C84.1269 42.2019 84.1963 42.0971 84.2779 42.0022C84.1293 42.1402 84.0058 42.303 83.9128 42.4834C83.8567 42.601 83.819 42.7261 83.7576 42.8405L83.8363 42.7736C83.8162 42.8012 83.7978 42.83 83.7813 42.8599C83.8318 42.8056 83.8755 42.7455 83.9117 42.6808Z" fill="black"/>
            <path opacity="0.1" d="M86.9679 48.2233C86.6977 48.1917 86.4405 48.0902 86.2213 47.9288C86.1894 47.9015 86.1529 47.88 86.1136 47.8651C86.0662 47.8601 86.0184 47.8696 85.9765 47.8923C85.9346 47.915 85.9005 47.95 85.8788 47.9925C85.8684 48.0095 85.859 48.0272 85.8508 48.0453C85.8846 48.03 85.9225 48.0266 85.9585 48.0356C85.9982 48.0496 86.0348 48.0712 86.0662 48.0993C86.2853 48.2606 86.5426 48.3618 86.8128 48.3927C87.0444 48.4197 87.3072 48.3809 87.4591 48.2018C87.4782 48.1787 87.4948 48.1538 87.5087 48.1273C87.3445 48.2198 87.1538 48.2537 86.9679 48.2233Z" fill="black"/>
            <path opacity="0.1" d="M85.2604 48.4888C85.0716 48.483 84.885 48.4466 84.7078 48.3809C84.866 48.2109 84.9868 48.0095 85.0622 47.7896C85.0952 47.6443 85.1047 47.4946 85.0902 47.3462C85.0471 46.6416 84.8037 45.8983 84.2284 45.4893C84.1034 45.3998 83.9472 45.2908 83.9698 45.1387C83.9859 45.079 84.0133 45.0229 84.0506 44.9736C84.1334 44.8353 84.1799 44.6782 84.1855 44.5171C84.1912 44.3559 84.1559 44.196 84.083 44.0522C83.986 43.8666 83.8287 43.7156 83.7458 43.5235C83.7022 43.4172 83.6828 43.3026 83.6887 43.1879C83.6947 43.0731 83.7259 42.9611 83.7802 42.86C83.7527 42.8889 83.7236 42.9163 83.693 42.942C83.6707 42.9729 83.6466 43.0024 83.6208 43.0304C83.5664 43.1314 83.5352 43.2433 83.5294 43.3579C83.5236 43.4725 83.5434 43.5869 83.5874 43.6929C83.6693 43.886 83.8266 44.036 83.9235 44.2216C83.9964 44.3655 84.0317 44.5257 84.0261 44.687C84.0204 44.8483 83.974 45.0056 83.8912 45.1441C83.8534 45.1929 83.8263 45.2492 83.8115 45.3092C83.7878 45.4613 83.9451 45.5703 84.07 45.6587C84.6431 46.0687 84.8877 46.811 84.9319 47.5156C84.9467 47.6643 84.9376 47.8143 84.9049 47.9601C84.8295 48.1799 84.7084 48.381 84.5494 48.5503C84.727 48.616 84.914 48.6525 85.1031 48.6582C85.1977 48.6598 85.2913 48.6388 85.3762 48.5969C85.461 48.5551 85.5347 48.4936 85.5911 48.4176C85.5976 48.4068 85.6041 48.396 85.6095 48.3852C85.5047 48.451 85.384 48.4869 85.2604 48.4888Z" fill="black"/>
        </g>
        <path d="M7.65294 61.3454C7.42953 61.3163 7.21537 61.2378 7.02597 61.1156L7.00658 61.1016C7.02212 61.0792 7.0331 61.0539 7.0389 61.0272C7.01228 60.9758 6.99825 60.9189 6.99796 60.861C6.99878 60.8061 6.98776 60.7516 6.96564 60.7013V60.4316C6.90189 60.3413 6.87004 60.2324 6.87515 60.1219C6.86761 59.8986 6.85899 58.8024 6.85899 58.8024C6.84652 58.745 6.84397 58.6859 6.85145 58.6276C6.85899 58.5003 6.85899 58.4528 6.85899 58.4528C6.8324 58.3789 6.82426 58.2997 6.83529 58.2219C6.84219 58.1484 6.82145 58.0749 6.77712 58.0158L6.89993 57.4116C6.89993 57.4116 6.9678 55.3271 6.76958 54.6981C6.76958 54.6981 6.76958 54.6981 6.76958 54.6905C6.78574 54.2859 6.54012 53.6116 6.67909 53.1412C6.81806 52.6707 6.83529 52.5693 6.83529 52.5693C6.83529 52.5693 6.22125 51.0275 6.06612 50.6618C5.9769 50.4247 5.86882 50.1953 5.74294 49.9756C5.73289 49.9619 5.72319 49.9489 5.71386 49.9367L5.6977 49.9173C5.73146 49.8616 5.75175 49.7988 5.75695 49.7339C5.76556 49.626 5.7494 49.49 5.83235 49.4102C5.86396 49.3845 5.89786 49.3617 5.93362 49.3422C5.99677 49.3008 6.04702 49.2424 6.07864 49.1737C6.11026 49.105 6.12197 49.0288 6.11244 48.9538C6.08837 48.8354 6.03208 48.726 5.94978 48.6377C5.95883 48.5849 5.96352 48.5315 5.96378 48.478C5.96354 48.3566 5.93846 48.2365 5.8901 48.1251C5.84175 48.0138 5.77113 47.9136 5.68261 47.8306V47.781C5.68386 47.6709 5.64947 47.5634 5.58458 47.4746L5.60721 47.4907L5.56842 47.4573C5.54967 47.4379 5.52827 47.4211 5.50486 47.4077C5.32257 47.283 5.10954 47.2111 4.88912 47.1996C4.6687 47.1882 4.44939 47.2378 4.25523 47.3429C4.15797 47.3943 4.07446 47.4683 4.01177 47.5587C3.88357 47.7572 3.91589 48.013 3.8491 48.2385C3.78231 48.464 3.63365 48.6301 3.50761 48.8178C3.38157 49.0056 3.27707 49.2278 3.32447 49.4469C3.35895 49.6066 3.47098 49.749 3.46883 49.9108C3.46355 49.9966 3.42827 50.0778 3.36917 50.1402C3.31007 50.2025 3.23093 50.242 3.14565 50.2518H3.09717C3.25737 50.3489 3.43827 50.4065 3.62503 50.4201C3.62503 50.4352 3.61641 50.4492 3.61318 50.4643C3.46667 51.034 3.33201 51.759 3.33201 51.759C3.33201 51.759 3.4225 52.4906 3.23398 53.0624C3.04546 53.6342 3.07024 54.8114 3.07024 54.8114C3.07024 54.8114 3.59379 54.5406 3.62718 54.7153C3.66058 54.8901 3.62718 54.9376 3.62718 54.9376C3.70283 54.9776 3.7805 55.0136 3.85988 55.0455V55.1156L3.83618 55.4285C3.8278 55.4933 3.83788 55.5591 3.86526 55.6184C3.91051 55.7058 3.86526 55.9421 3.86526 55.9421C3.86526 55.9421 3.82648 55.9658 3.86526 56.0781C3.88248 56.169 3.87197 56.263 3.8351 56.3478C3.8351 56.3478 3.78878 56.9434 3.78016 57.0707C3.74218 57.2373 3.68731 57.3996 3.61641 57.5551C3.61641 57.5551 3.75646 57.7299 3.61641 57.7547C3.47637 57.7795 3.46129 57.9921 3.46129 57.9921C3.46129 57.9921 3.29754 58.128 3.29754 58.1755C2.80273 58.7268 2.48155 59.4122 2.37432 60.1457C2.37432 60.1457 2.20196 60.3043 2.22674 60.4553C2.24074 60.5406 2.21273 60.5697 2.1858 60.5794C2.21596 60.5794 2.24936 60.6031 2.23428 60.6776C2.21058 60.8049 2.14486 61.0746 2.14486 61.0746H2.15671C2.02205 61.23 1.82707 61.49 1.79691 61.722V61.75L1.7215 61.9151L2.36786 62.2011L2.42495 62.1137C2.42495 62.1137 2.71151 62.4373 3.039 62.5107C3.09527 62.5231 3.15267 62.5296 3.21028 62.5301C3.39268 62.5262 3.57291 62.4897 3.74245 62.4222C3.74245 62.4222 3.97945 62.1288 3.36541 62.0727C3.36541 62.0727 3.0056 61.6594 3.04223 61.4846C3.05377 61.411 3.06132 61.3368 3.06485 61.2624C3.06485 61.2462 3.06485 61.23 3.06485 61.2149L3.10686 61.2214L3.11441 61.0876C3.12363 61.0766 3.13057 61.0639 3.13483 61.0502C3.13908 61.0364 3.14056 61.022 3.13918 61.0077C3.13918 60.9527 3.08963 60.9441 3.13918 60.9128C3.18874 60.8815 3.18766 60.9128 3.18766 60.834C3.18766 60.7553 3.15534 60.7779 3.2286 60.6981C3.30185 60.6182 3.22105 60.4758 3.22105 60.4758C3.26639 60.4419 3.3041 60.3988 3.33175 60.3494C3.3594 60.3 3.37637 60.2452 3.38157 60.1888C3.37403 60.0227 3.9299 58.9653 4.04409 58.9254C4.15828 58.8855 4.1669 58.6783 4.1669 58.6783C4.1669 58.6783 4.3231 58.7107 4.37158 58.6783C4.4484 58.5922 4.51693 58.499 4.57626 58.3999C4.57626 58.3999 5.19784 56.8268 5.20646 56.2313L5.2474 56.0964C5.2474 56.0964 5.4844 56.406 5.451 56.6283C5.41761 56.8506 5.63306 57.0103 5.63306 57.0103V57.6857C5.65675 57.8033 5.66973 57.9228 5.67184 58.0428C5.6643 58.1507 5.7688 58.2651 5.72894 58.3611C5.70741 58.4472 5.70741 58.5372 5.72894 58.6233C5.72894 58.6233 5.72032 58.8455 5.72894 58.9092C5.73756 58.9729 5.69662 59.7033 5.90992 60.0216C5.90992 60.0216 5.99933 60.2514 5.90992 60.4024C5.8205 60.5535 5.99071 60.7046 5.99071 60.7046C5.99071 60.7046 5.88299 60.8793 5.99071 61.0067C6.0521 61.0868 6.07957 61.188 6.0672 61.2883C6.02411 61.4501 5.99287 61.6616 6.0672 61.8094L6.08659 62.0371L6.71356 61.9885V61.8623C6.9837 61.9287 7.26352 61.9462 7.53983 61.9141C7.64661 61.9044 7.75028 61.8729 7.84442 61.8215C7.93855 61.7701 8.02115 61.6999 8.08708 61.6152C8.08708 61.6152 8.33916 61.1782 7.65294 61.3454Z" fill="url(#paint1_linear)"/>
        <path d="M7.96969 61.6195C7.90636 61.7031 7.82633 61.7726 7.7347 61.8235C7.64308 61.8744 7.54186 61.9056 7.43752 61.9152C7.17046 61.9473 6.89977 61.9294 6.63926 61.8623V61.9896L6.03384 62.0371L6.01552 61.8105C5.9455 61.6616 5.97782 61.4458 6.02091 61.284C6.04045 61.2075 6.06529 61.1325 6.09524 61.0596C6.09524 61.0596 6.61664 60.6161 6.79008 60.9517C6.82779 61.0204 6.87999 61.08 6.94305 61.1264C7.12503 61.2475 7.33202 61.3257 7.54848 61.3552C8.21423 61.1847 7.96969 61.6195 7.96969 61.6195Z" fill="#FF6484"/>
        <path opacity="0.1" d="M6.36017 61.1846C6.36017 61.1846 6.36017 61.5957 6.65965 61.5882C6.95913 61.5806 7.00007 61.4242 6.90527 61.3184C6.84063 61.2435 6.78496 61.1613 6.73937 61.0735L6.36017 61.1846Z" fill="black"/>
        <path d="M3.77473 62.4265C3.61183 62.4936 3.43802 62.5302 3.26195 62.5344C3.20618 62.5338 3.15061 62.5276 3.09605 62.5161C2.78041 62.4449 2.50355 62.1201 2.50355 62.1201L2.44861 62.2075L1.82379 61.9227L1.89489 61.7565V61.7274C1.92398 61.5008 2.11034 61.2408 2.24177 61.0865C2.3161 61.0002 2.37428 60.9441 2.37428 60.9441L3.12836 61.052C3.12836 61.052 3.12836 61.1491 3.12836 61.2677C3.12572 61.3422 3.11852 61.4164 3.10682 61.49C3.07558 61.6637 3.42246 62.0748 3.42246 62.0748C4.00418 62.1309 3.77473 62.4265 3.77473 62.4265Z" fill="#FF6484"/>
        <path d="M2.27413 60.588C2.26143 60.5914 2.24805 60.5914 2.23535 60.588C2.24817 60.5857 2.26131 60.5857 2.27413 60.588Z" fill="#444053"/>
        <path opacity="0.1" d="M3.11977 61.0584C3.11977 61.0584 3.11977 61.1555 3.11977 61.2742L2.23749 61.1329C2.23749 61.1329 2.23749 61.1156 2.24718 61.0876C2.31613 61.0002 2.3743 60.9441 2.3743 60.9441L3.11977 61.0584Z" fill="black"/>
        <path opacity="0.1" d="M6.94511 61.1221C6.81153 61.4318 6.01758 61.3584 6.01758 61.3584C6.02205 61.3335 6.02385 61.3082 6.02296 61.2829C6.04251 61.2064 6.06734 61.1314 6.0973 61.0585C6.0973 61.0585 6.61869 60.615 6.79213 60.9506C6.83022 61.0181 6.8824 61.0766 6.94511 61.1221Z" fill="black"/>
        <path d="M6.95802 61.0347C6.87938 61.3897 6.01757 61.3109 6.01757 61.3109C6.03444 61.2055 6.00887 61.0976 5.94647 61.011C5.83874 60.8837 5.94647 60.7099 5.94647 60.7099C5.94647 60.7099 5.78057 60.56 5.86783 60.4089C5.95508 60.2579 5.86783 60.0291 5.86783 60.0291C5.66314 59.713 5.70193 58.9847 5.69331 58.9221C5.68469 58.8596 5.69331 58.6373 5.69331 58.6373C5.67239 58.5515 5.67239 58.462 5.69331 58.3762C5.73209 58.2812 5.63083 58.1701 5.63944 58.0601C5.63838 57.9417 5.62721 57.8237 5.60605 57.7072V57.0351C5.54858 56.9905 5.50271 56.9327 5.47232 56.8666C5.44194 56.8005 5.42794 56.728 5.43153 56.6553C5.46277 56.433 5.23331 56.1255 5.23331 56.1255L5.19453 56.2593C5.18591 56.8527 4.58588 58.4172 4.58588 58.4172C4.52871 58.5151 4.46272 58.6075 4.38874 58.6934C4.34134 58.7258 4.1916 58.6934 4.1916 58.6934C4.1916 58.6934 4.18298 58.8995 4.0731 58.9383C3.96321 58.9772 3.42673 60.0302 3.4332 60.1964C3.42895 60.2537 3.41264 60.3095 3.38535 60.3601C3.35806 60.4106 3.3204 60.4549 3.27484 60.4898C3.27484 60.4898 3.35348 60.6323 3.28238 60.711C3.21128 60.7898 3.2436 60.7661 3.2436 60.8459C3.2436 60.9257 3.2436 60.8934 3.1962 60.9247C3.1488 60.9559 3.1962 60.9646 3.1962 61.0196C3.19833 61.0479 3.18988 61.076 3.1725 61.0984L3.16496 61.2311L2.24066 61.0833C2.24066 61.0833 2.30314 60.8135 2.32684 60.6873C2.34085 60.6128 2.30853 60.5934 2.27944 60.5891C2.3053 60.5794 2.33223 60.5503 2.3193 60.4661C2.2956 60.3151 2.4615 60.1575 2.4615 60.1575C2.55712 59.4296 2.86175 58.7452 3.3384 58.1874C3.3384 58.1399 3.49568 58.005 3.49568 58.005C3.49568 58.005 3.51184 57.7892 3.6465 57.7677C3.78116 57.7461 3.6465 57.5702 3.6465 57.5702C3.7145 57.415 3.76718 57.2534 3.80378 57.0879C3.8124 56.9617 3.85656 56.3683 3.85656 56.3683C3.89222 56.2835 3.90233 56.1901 3.88565 56.0996C3.84902 55.9917 3.88565 55.9647 3.88565 55.9647C3.88565 55.9647 3.9309 55.7274 3.88565 55.6411C3.85955 55.5814 3.85024 55.5157 3.85872 55.4512L3.88026 55.1404L3.91366 54.6765C3.91366 54.6765 6.36983 54.2568 6.63807 54.5966C6.66779 54.6386 6.68936 54.6859 6.70163 54.7358C6.89339 55.3616 6.82767 57.4332 6.82767 57.4332L6.70917 58.0342C6.75248 58.0932 6.77243 58.1662 6.76519 58.2392C6.75481 58.3166 6.76293 58.3953 6.78889 58.469C6.78889 58.469 6.78889 58.5165 6.78027 58.6427C6.77337 58.701 6.77628 58.7601 6.78889 58.8175C6.78889 58.8175 6.79643 59.9083 6.80397 60.1306C6.79912 60.2401 6.82972 60.3484 6.89123 60.4391V60.7078C6.91257 60.7579 6.92322 60.8119 6.92247 60.8664C6.92104 60.9245 6.93321 60.9822 6.95802 61.0347Z" fill="#444053"/>
        <path opacity="0.1" d="M3.26194 62.5323C3.20618 62.5316 3.15061 62.5255 3.09605 62.514C2.78041 62.4427 2.50355 62.118 2.50355 62.118L2.44861 62.2054L1.82379 61.9205L1.89489 61.7544V61.7253L2.54125 62.0489C2.54125 62.0489 3.05834 62.3003 3.26194 62.5323Z" fill="black"/>
        <path opacity="0.1" d="M7.43744 61.9151C7.17038 61.9473 6.89969 61.9293 6.63918 61.8623V61.9896L6.03376 62.037L6.01544 61.8105C6.2072 61.8105 6.51637 61.818 6.64995 61.8105C6.91596 61.8096 7.18087 61.8448 7.43744 61.9151Z" fill="black"/>
        <path opacity="0.1" d="M2.5833 60.3841C2.61466 60.3821 2.64611 60.3861 2.67595 60.396C2.70692 60.415 2.73645 60.4363 2.76428 60.4596C2.78506 60.4709 2.80488 60.4839 2.82353 60.4985C2.84615 60.5211 2.85585 60.5546 2.87847 60.5772C2.92156 60.6193 2.9862 60.6107 3.04653 60.6301C3.05299 60.6301 3.05945 60.6301 3.06053 60.642C3.06059 60.6452 3.05969 60.6483 3.05797 60.651C3.05624 60.6537 3.05376 60.6558 3.05084 60.6571C3.03682 60.6648 3.02106 60.6689 3.00505 60.6689C2.98904 60.6689 2.97329 60.6648 2.95927 60.6571C2.93162 60.6412 2.90626 60.6216 2.88386 60.5988C2.84001 60.5598 2.7897 60.5288 2.7352 60.5071C2.66086 60.4769 2.53159 60.4694 2.48419 60.3992C2.51558 60.3865 2.54954 60.3813 2.5833 60.3841Z" fill="black"/>
        <path opacity="0.1" d="M2.51977 60.5503C2.53624 60.555 2.55214 60.5615 2.56717 60.5697L2.64797 60.6107C2.59065 60.6146 2.53341 60.6019 2.48315 60.574C2.46488 60.5673 2.44722 60.559 2.43036 60.5492C2.45998 60.5441 2.49028 60.5445 2.51977 60.5503Z" fill="black"/>
        <path opacity="0.1" d="M2.62741 60.6894C2.64458 60.6872 2.66195 60.6872 2.67912 60.6894C2.71012 60.7008 2.73864 60.718 2.76315 60.7401C2.82247 60.7875 2.89626 60.8131 2.97214 60.8124C2.95794 60.8187 2.94237 60.8213 2.92689 60.82H2.75668C2.73811 60.8227 2.71924 60.8227 2.70067 60.82C2.67625 60.8146 2.65269 60.8059 2.63064 60.7941C2.60156 60.7811 2.48198 60.7466 2.4809 60.7067C2.47983 60.6668 2.59833 60.6894 2.62741 60.6894Z" fill="black"/>
        <path opacity="0.1" d="M6.49054 60.8912C6.54252 60.8955 6.59477 60.8955 6.64674 60.8912C6.702 60.8891 6.75564 60.872 6.80187 60.8416C6.84712 60.8071 6.83742 60.7704 6.78033 60.7682C6.72628 60.7704 6.6732 60.7832 6.62412 60.806C6.59874 60.8166 6.57425 60.8292 6.55087 60.8437C6.54009 60.8545 6.50131 60.8923 6.49054 60.8912Z" fill="black"/>
        <path opacity="0.1" d="M6.6834 60.9775C6.6834 60.9969 6.65862 61.0077 6.64031 61.0142C6.59583 61.0316 6.54897 61.0421 6.50134 61.0455C6.48949 61.0455 6.45609 61.0455 6.4604 61.0271C6.46471 61.0088 6.51427 61.0142 6.52612 61.012C6.57929 61.0043 6.63185 60.9927 6.6834 60.9775Z" fill="black"/>
        <path opacity="0.1" d="M4.03647 57.8378C3.95735 57.7824 3.86366 57.7516 3.76715 57.7493C3.8649 57.7434 3.96122 57.775 4.03647 57.8378Z" fill="black"/>
        <path opacity="0.1" d="M3.96324 57.5184C4.03431 57.519 4.10391 57.5387 4.16469 57.5756L4.0979 57.5562C4.05376 57.5421 4.00826 57.5327 3.96216 57.5282C3.93631 57.5282 3.90938 57.5282 3.88352 57.5282C3.85767 57.5282 3.82319 57.5206 3.79303 57.5195C3.84582 57.5195 3.90507 57.5163 3.96324 57.5184Z" fill="black"/>
        <path opacity="0.1" d="M4.20567 57.6705C4.22829 57.6705 4.25522 57.6846 4.25953 57.7072C4.20314 57.6802 4.14436 57.6585 4.08394 57.6425C4.05054 57.6317 3.9482 57.5864 3.9245 57.6177C4.0096 57.6425 4.10763 57.6511 4.20567 57.6705Z" fill="black"/>
        <path opacity="0.1" d="M4.4211 56.9682C4.52457 56.9332 4.61782 56.8732 4.69257 56.7934C4.69169 56.8289 4.68208 56.8636 4.6646 56.8945C4.64713 56.9253 4.62232 56.9514 4.59239 56.9704C4.53188 57.0081 4.46451 57.0334 4.39417 57.0448C4.32409 57.0571 4.25573 57.0777 4.19057 57.1063C4.15933 57.1214 4.06237 57.2142 4.03113 57.2142C3.99989 57.2142 4.05483 57.1462 4.06883 57.1354C4.17751 57.0628 4.29618 57.0065 4.4211 56.9682Z" fill="black"/>
        <path opacity="0.1" d="M6.36019 57.9943C6.32679 57.9824 5.91851 58.0612 5.94328 57.9824C5.95944 57.9338 6.09195 57.9522 6.12426 57.9533C6.20447 57.9555 6.28393 57.9693 6.36019 57.9943Z" fill="black"/>
        <path d="M5.91531 48.5362C5.9153 48.6027 5.90807 48.6689 5.89376 48.7337C5.84363 48.9594 5.70909 49.1572 5.5178 49.2866C5.32651 49.416 5.093 49.4671 4.86527 49.4294C4.63753 49.3917 4.43287 49.268 4.29336 49.0838C4.15384 48.8996 4.09007 48.6689 4.11515 48.4391C4.14023 48.2093 4.25225 47.9978 4.42819 47.8482C4.60414 47.6985 4.83063 47.6221 5.06112 47.6345C5.29162 47.6469 5.5086 47.7473 5.66747 47.915C5.82634 48.0828 5.91503 48.3051 5.91531 48.5362Z" fill="#FBBEBE"/>
        <path d="M5.48118 48.9074C5.48118 48.9074 5.18924 49.7619 5.35514 49.9356C5.52104 50.1093 4.1626 50.2129 4.1626 50.2129C4.1626 50.2129 4.73032 49.1922 4.67538 48.9386C4.62044 48.6851 5.48118 48.9074 5.48118 48.9074Z" stroke="#FAA53B" stroke-miterlimit="10"/>
        <path opacity="0.1" d="M6.69738 54.7337C6.69847 54.7535 6.69847 54.7733 6.69738 54.7931C6.68123 55.1966 5.96269 56.0112 5.79679 55.872C5.63089 55.7328 4.50407 55.4685 4.50407 55.4685C4.50407 55.4685 4.33817 55.2074 4.16473 55.2074C4.0658 55.1991 3.96894 55.1743 3.87817 55.134L3.91157 54.6701C3.91157 54.6701 6.36774 54.2504 6.63598 54.5902C6.66544 54.6337 6.68628 54.6824 6.69738 54.7337Z" fill="black"/>
        <path d="M6.69742 54.7218C6.68988 54.9236 6.50567 55.2289 6.30207 55.4663C6.09846 55.7037 5.87978 55.872 5.79683 55.8051C5.73599 55.7654 5.67003 55.7342 5.60076 55.7123C5.22695 55.5753 4.50195 55.4016 4.50195 55.4016C4.50195 55.4016 4.33605 55.1405 4.16261 55.1405C3.98917 55.1405 3.65629 54.9668 3.65629 54.9668C3.65629 54.9668 3.68861 54.9193 3.65629 54.7456C3.62398 54.5719 3.11766 54.8405 3.11766 54.8405C3.11766 54.8405 3.09396 53.6699 3.27494 53.1002C3.45592 52.5305 3.36974 51.8054 3.36974 51.8054C3.36974 51.8054 3.50009 51.089 3.64121 50.5215C3.72632 50.1816 3.81573 49.8957 3.8836 49.8515C4.06566 49.7328 5.01257 49.8515 5.01257 49.8515C5.19519 49.8539 5.37738 49.8698 5.55767 49.899C5.60427 49.9175 5.6441 49.9499 5.67186 49.9917L5.69987 50.0317C5.82402 50.2501 5.9296 50.4785 6.01551 50.7146C6.16633 51.0782 6.75883 52.6125 6.75883 52.6125C6.75883 52.6125 6.74267 52.7204 6.60801 53.1822C6.47335 53.644 6.71358 54.3183 6.69742 54.7218Z" fill="#65617D"/>
        <path d="M6.01875 55.1879L6.30207 55.4663C6.30207 55.4663 6.56277 56.3672 6.22343 56.2874C5.88409 56.2075 5.60077 55.7123 5.60077 55.7123L6.01875 55.1879Z" fill="#FBBEBE"/>
        <path opacity="0.1" d="M6.7373 52.6805C6.06508 52.6729 5.89164 51.731 5.89164 51.731C5.89164 51.731 5.84424 50.7977 5.75699 50.624C5.70503 50.4541 5.67853 50.2774 5.67834 50.0996C5.80249 50.318 5.90807 50.5465 5.99398 50.7826C6.1448 51.1462 6.7373 52.6805 6.7373 52.6805Z" fill="black"/>
        <path d="M6.76098 52.6093C6.08877 52.6017 5.91533 51.6598 5.91533 51.6598C5.91533 51.6598 5.86793 50.7265 5.78067 50.5528C5.72872 50.3829 5.70221 50.2062 5.70203 50.0284C5.82617 50.2468 5.93176 50.4753 6.01767 50.7114C6.16848 51.075 6.76098 52.6093 6.76098 52.6093Z" fill="#65617D"/>
        <path opacity="0.1" d="M5.55761 50.2873C5.55761 50.2873 5.36047 49.7479 5.03729 50.2873C4.83335 50.6619 4.71972 51.0791 4.70549 51.5055L4.64948 52.9922C4.70127 53.0881 4.73488 53.1927 4.74858 53.3008C4.74858 53.4087 4.94249 53.7324 4.94249 53.7324C4.94249 53.7324 4.98989 54.3571 5.17087 54.4607L5.34539 54.9743C5.34539 54.9743 5.35293 55.3141 5.47143 55.449C5.50598 55.4981 5.52897 55.5543 5.53867 55.6136C5.54837 55.6728 5.54454 55.7335 5.52745 55.791L6.22983 55.545C6.22983 55.545 6.15011 55.5742 6.22983 55.3616C6.30955 55.1491 6.18243 54.8718 6.18243 54.8718C6.18243 54.8718 5.73213 53.891 5.67611 53.7486C5.6201 53.6062 5.54253 53.44 5.56839 53.2739C5.59424 53.1077 5.57485 51.3436 5.61579 51.075C5.65672 50.8063 5.55761 50.2873 5.55761 50.2873Z" fill="black"/>
        <path d="M5.63085 50.2129C5.63085 50.2129 5.43371 49.6734 5.10946 50.2129C4.9061 50.5877 4.79252 51.0047 4.77766 51.431L4.72272 52.9178C4.7742 53.0138 4.80778 53.1183 4.82183 53.2264C4.82183 53.3343 5.01466 53.6579 5.01466 53.6579C5.01466 53.6579 5.06206 54.2827 5.24411 54.3852L5.41755 54.8998C5.41755 54.8998 5.42617 55.2397 5.54467 55.3745C5.57922 55.4236 5.60221 55.4799 5.61191 55.5391C5.62161 55.5984 5.61778 55.659 5.60069 55.7166L6.30199 55.4706C6.30199 55.4706 6.22335 55.4997 6.30199 55.2861C6.38063 55.0724 6.25244 54.7941 6.25244 54.7941C6.25244 54.7941 5.80322 53.8133 5.7472 53.6709C5.69118 53.5285 5.61362 53.3623 5.63947 53.1962C5.66533 53.03 5.64594 51.2659 5.68579 50.9962C5.72565 50.7265 5.63085 50.2129 5.63085 50.2129Z" fill="#FF6484"/>
        <path opacity="0.1" d="M5.64486 54.8642C5.67482 54.868 5.70393 54.8768 5.73105 54.8901C5.75259 54.9009 5.7709 54.9182 5.79245 54.93C5.81702 54.9442 5.84489 54.9516 5.87324 54.9516C5.84167 54.9532 5.81002 54.9532 5.77844 54.9516C5.75875 54.953 5.73898 54.9504 5.72027 54.9441C5.70254 54.9357 5.68589 54.9252 5.67072 54.9128C5.65139 54.8984 5.63041 54.8865 5.60824 54.8772C5.591 54.8707 5.57269 54.8685 5.56622 54.8513C5.59275 54.8534 5.61905 54.8577 5.64486 54.8642Z" fill="black"/>
        <path opacity="0.1" d="M5.91205 55.0768C5.94221 55.0768 5.9713 55.0703 6.00146 55.0682C6.04502 55.0666 6.08863 55.0687 6.13181 55.0747C6.0684 55.1071 5.99676 55.1199 5.92606 55.1113C5.90594 55.1059 5.88476 55.1059 5.86465 55.1113C5.84311 55.12 5.77847 55.1933 5.77308 55.1286C5.7677 55.0639 5.87542 55.0779 5.91205 55.0768Z" fill="black"/>
        <path opacity="0.1" d="M5.54898 47.5867L5.43372 47.5026C5.44612 47.5067 5.45804 47.5121 5.46927 47.5188C5.49351 47.5319 5.51536 47.5491 5.5339 47.5695L5.57053 47.6029L5.54898 47.5867Z" fill="black"/>
        <path opacity="0.1" d="M5.67398 49.9885C5.65303 50.0358 5.6195 50.0765 5.57703 50.1061C5.55161 50.1234 5.52245 50.1345 5.49193 50.1384C5.44911 50.1426 5.4059 50.1382 5.36481 50.1255C5.31224 50.1114 5.26045 50.0944 5.20968 50.0748C5.1102 50.033 5.00841 49.997 4.90481 49.9669C4.82731 49.9433 4.74515 49.9394 4.66577 49.9556C4.58638 49.9718 4.51229 50.0076 4.45021 50.0597C4.35002 50.1611 4.32632 50.3186 4.22721 50.42C4.09363 50.556 3.87602 50.5474 3.68858 50.5204L3.64441 50.5139C3.72951 50.174 3.81893 49.8881 3.88679 49.8439C4.06885 49.7252 5.01577 49.8439 5.01577 49.8439C5.19839 49.8463 5.38058 49.8622 5.56087 49.8914C5.60767 49.9113 5.64717 49.9452 5.67398 49.9885Z" fill="black"/>
        <path opacity="0.1" d="M4.11518 48.5362C4.1145 48.3585 4.16627 48.1847 4.26399 48.0364C4.36171 47.8881 4.50101 47.7721 4.66437 47.7029C4.82774 47.6337 5.00789 47.6145 5.18216 47.6476C5.35643 47.6806 5.51705 47.7646 5.64382 47.8888C5.64382 48.0453 5.61258 48.2125 5.65675 48.3582C5.71128 48.4959 5.79174 48.6219 5.89375 48.7293C5.84462 48.9448 5.71817 49.1348 5.53842 49.2631C5.35866 49.3914 5.13812 49.4491 4.91867 49.4253C4.69922 49.4015 4.49616 49.2977 4.34803 49.1338C4.19991 48.9699 4.11705 48.7572 4.11518 48.5362Z" fill="black"/>
        <path d="M5.57059 47.5555C5.39594 47.3967 5.17581 47.2971 4.94144 47.2708C4.70708 47.2445 4.47038 47.2927 4.26495 47.4087C4.17048 47.4607 4.08992 47.5347 4.0301 47.6245C3.90622 47.822 3.93746 48.0777 3.87282 48.301C3.80818 48.5244 3.66491 48.6916 3.54318 48.8783C3.42144 49.0649 3.32018 49.2861 3.3665 49.504C3.3999 49.6627 3.5087 49.8051 3.50655 49.9669C3.50224 50.0571 3.46412 50.1423 3.39981 50.2055C3.3355 50.2687 3.24974 50.3052 3.15967 50.3079C3.31938 50.4064 3.50045 50.4648 3.68753 50.4783C3.87605 50.5053 4.09366 50.5139 4.22616 50.378C4.32527 50.2766 4.34897 50.119 4.44916 50.0176C4.51125 49.9655 4.58534 49.9297 4.66472 49.9135C4.7441 49.8973 4.82626 49.9012 4.90377 49.9248C5.06105 49.9615 5.20648 50.0327 5.36376 50.0791C5.40485 50.0919 5.44807 50.0963 5.49088 50.0921C5.62554 50.0737 5.70633 49.9238 5.71495 49.7878C5.72357 49.6799 5.70741 49.545 5.78713 49.4641C5.8176 49.4384 5.85042 49.4157 5.88516 49.3962C5.94678 49.3538 5.99557 49.2952 6.02616 49.2269C6.05676 49.1585 6.06798 49.0831 6.0586 49.0088C6.02089 48.7412 5.73542 48.5772 5.6557 48.314C5.61153 48.1629 5.64493 48.0011 5.64277 47.8446C5.64062 47.6882 5.58029 47.508 5.4327 47.4551" fill="#444053"/>
        <path opacity="0.1" d="M6.04456 49.0088C6.00793 48.7413 5.72138 48.5773 5.64166 48.314C5.59749 48.1629 5.63197 48.0011 5.62874 47.8447C5.63076 47.7353 5.59752 47.6282 5.53394 47.5393L5.55656 47.5555C5.54471 47.5436 5.53178 47.5328 5.51885 47.522C5.50064 47.5029 5.48 47.4862 5.45745 47.4724L5.41651 47.4444L5.43806 47.4649L5.41544 47.4487C5.47916 47.5375 5.51242 47.6447 5.51024 47.754C5.51024 47.9105 5.479 48.0777 5.52316 48.2223C5.59965 48.4823 5.88943 48.6539 5.92606 48.9182C5.93532 48.9925 5.92404 49.0679 5.89346 49.1362C5.86287 49.2045 5.81416 49.2631 5.75262 49.3055C5.71788 49.3251 5.68506 49.3478 5.65459 49.3735C5.57487 49.4534 5.59103 49.5893 5.58241 49.6972C5.57164 49.8331 5.49408 49.9831 5.35942 50.0015C5.31625 50.0052 5.27276 50.0009 5.23122 49.9885C5.07502 49.9475 4.92851 49.8709 4.77123 49.8342C4.69375 49.8104 4.61154 49.8064 4.53212 49.8226C4.4527 49.8388 4.37861 49.8747 4.31662 49.927C4.21751 50.0274 4.19274 50.186 4.09363 50.2874C3.96005 50.4222 3.74244 50.4147 3.55499 50.3877C3.4316 50.3737 3.31018 50.3459 3.19303 50.3046C3.17727 50.3062 3.16139 50.3062 3.14563 50.3046C3.30547 50.4029 3.48647 50.4613 3.67349 50.4751C3.86201 50.5021 4.07962 50.5107 4.21213 50.3748C4.31123 50.2733 4.33601 50.1158 4.43512 50.0144C4.49721 49.9623 4.5713 49.9265 4.65068 49.9103C4.73006 49.8941 4.81223 49.898 4.88973 49.9216C5.04701 49.9583 5.19352 50.0295 5.34972 50.0759C5.39115 50.0888 5.43475 50.0932 5.47792 50.0889C5.61258 50.0705 5.69337 49.9205 5.70091 49.7846C5.70953 49.6767 5.69337 49.5418 5.77309 49.4609C5.80356 49.4352 5.83638 49.4125 5.87112 49.3929C5.93222 49.3508 5.98067 49.2928 6.01123 49.2251C6.0418 49.1574 6.05332 49.0826 6.04456 49.0088Z" fill="black"/>
        <path opacity="0.1" d="M9.51121 61.8946C9.68357 62.4697 7.36637 62.842 4.63764 62.7362C2.19117 62.6424 0.272552 62.1914 0.13143 61.7198C-0.00969225 61.2483 1.65792 60.8642 4.07531 60.8567C6.77171 60.8567 9.33884 61.3196 9.51121 61.8946Z" fill="#FAA53B"/>
    </g>
    <defs>
        <linearGradient id="paint0_linear" x1="84.0162" y1="65.645" x2="84.0162" y2="41.2555" gradientUnits="userSpaceOnUse">
            <stop stop-color="#808080" stop-opacity="0.25"/>
            <stop offset="0.54" stop-color="#808080" stop-opacity="0.12"/>
            <stop offset="1" stop-color="#808080" stop-opacity="0.1"/>
        </linearGradient>
        <linearGradient id="paint1_linear" x1="660.047" y1="11143.3" x2="660.047" y2="8963.89" gradientUnits="userSpaceOnUse">
            <stop stop-color="#808080" stop-opacity="0.25"/>
            <stop offset="0.54" stop-color="#808080" stop-opacity="0.12"/>
            <stop offset="1" stop-color="#808080" stop-opacity="0.1"/>
        </linearGradient>
        <clipPath id="clip0">
            <rect width="117" height="66" fill="white"/>
        </clipPath>
    </defs>
</svg>
