
<svg width="106" height="27" viewBox="0 0 106 27" fill="none" xmlns="http://www.w3.org/2000/svg">
<path d="M17.87 9.408C17.326 8.41067 16.578 7.65133 15.626 7.13C14.674 6.60867 13.5633 6.348 12.294 6.348C10.8887 6.348 9.642 6.66533 8.554 7.3C7.466 7.93467 6.616 8.84133 6.004 10.02C5.392 11.1987 5.086 12.5587 5.086 14.1C5.086 15.6867 5.392 17.0693 6.004 18.248C6.63867 19.4267 7.51133 20.3333 8.622 20.968C9.73267 21.6027 11.0247 21.92 12.498 21.92C14.3113 21.92 15.796 21.444 16.952 20.492C18.108 19.5173 18.8673 18.1687 19.23 16.446H11.07V12.808H23.922V16.956C23.6047 18.6107 22.9247 20.1407 21.882 21.546C20.8393 22.9513 19.4907 24.0847 17.836 24.946C16.204 25.7847 14.368 26.204 12.328 26.204C10.0387 26.204 7.96467 25.694 6.106 24.674C4.27 23.6313 2.81933 22.192 1.754 20.356C0.711333 18.52 0.19 16.4347 0.19 14.1C0.19 11.7653 0.711333 9.68 1.754 7.844C2.81933 5.98533 4.27 4.546 6.106 3.526C7.96467 2.48333 10.0273 1.962 12.294 1.962C14.9687 1.962 17.292 2.61933 19.264 3.934C21.236 5.226 22.596 7.05067 23.344 9.408H17.87ZM32.2037 10.088C32.8157 9.09067 33.609 8.30867 34.5837 7.742C35.581 7.17533 36.7143 6.892 37.9837 6.892V11.89H36.7257C35.2297 11.89 34.0963 12.2413 33.3257 12.944C32.5777 13.6467 32.2037 14.8707 32.2037 16.616V26H27.4437V7.164H32.2037V10.088ZM39.9657 16.514C39.9657 14.61 40.3397 12.9213 41.0877 11.448C41.8584 9.97467 42.8898 8.84133 44.1818 8.048C45.4964 7.25467 46.9584 6.858 48.5678 6.858C49.9731 6.858 51.1971 7.14133 52.2398 7.708C53.3051 8.27467 54.1551 8.98867 54.7898 9.85V7.164H59.5838V26H54.7898V23.246C54.1778 24.13 53.3278 24.8667 52.2398 25.456C51.1744 26.0227 49.9391 26.306 48.5338 26.306C46.9471 26.306 45.4964 25.898 44.1818 25.082C42.8898 24.266 41.8584 23.1213 41.0877 21.648C40.3397 20.152 39.9657 18.4407 39.9657 16.514ZM54.7898 16.582C54.7898 15.426 54.5631 14.44 54.1098 13.624C53.6564 12.7853 53.0444 12.1507 52.2738 11.72C51.5031 11.2667 50.6758 11.04 49.7918 11.04C48.9078 11.04 48.0918 11.2553 47.3438 11.686C46.5958 12.1167 45.9838 12.7513 45.5078 13.59C45.0544 14.406 44.8278 15.3807 44.8278 16.514C44.8278 17.6473 45.0544 18.6447 45.5078 19.506C45.9838 20.3447 46.5958 20.9907 47.3438 21.444C48.1144 21.8973 48.9304 22.124 49.7918 22.124C50.6758 22.124 51.5031 21.9087 52.2738 21.478C53.0444 21.0247 53.6564 20.39 54.1098 19.574C54.5631 18.7353 54.7898 17.738 54.7898 16.582ZM63.0087 16.514C63.0087 14.61 63.3827 12.9213 64.1307 11.448C64.9014 9.97467 65.9441 8.84133 67.2587 8.048C68.5734 7.25467 70.0354 6.858 71.6447 6.858C72.8687 6.858 74.0361 7.13 75.1467 7.674C76.2574 8.19533 77.1414 8.898 77.7987 9.782V0.84H82.6267V26H77.7987V23.212C77.2094 24.1413 76.3821 24.8893 75.3167 25.456C74.2514 26.0227 73.0161 26.306 71.6107 26.306C70.0241 26.306 68.5734 25.898 67.2587 25.082C65.9441 24.266 64.9014 23.1213 64.1307 21.648C63.3827 20.152 63.0087 18.4407 63.0087 16.514ZM77.8327 16.582C77.8327 15.426 77.6061 14.44 77.1527 13.624C76.6994 12.7853 76.0874 12.1507 75.3167 11.72C74.5461 11.2667 73.7187 11.04 72.8347 11.04C71.9507 11.04 71.1347 11.2553 70.3867 11.686C69.6387 12.1167 69.0267 12.7513 68.5507 13.59C68.0974 14.406 67.8707 15.3807 67.8707 16.514C67.8707 17.6473 68.0974 18.6447 68.5507 19.506C69.0267 20.3447 69.6387 20.9907 70.3867 21.444C71.1574 21.8973 71.9734 22.124 72.8347 22.124C73.7187 22.124 74.5461 21.9087 75.3167 21.478C76.0874 21.0247 76.6994 20.39 77.1527 19.574C77.6061 18.7353 77.8327 17.738 77.8327 16.582ZM95.6397 26.306C93.8264 26.306 92.1944 25.9093 90.7437 25.116C89.293 24.3 88.1484 23.1553 87.3097 21.682C86.4937 20.2087 86.0857 18.5087 86.0857 16.582C86.0857 14.6553 86.505 12.9553 87.3437 11.482C88.205 10.0087 89.3724 8.87533 90.8457 8.082C92.319 7.266 93.9624 6.858 95.7757 6.858C97.589 6.858 99.2324 7.266 100.706 8.082C102.179 8.87533 103.335 10.0087 104.174 11.482C105.035 12.9553 105.466 14.6553 105.466 16.582C105.466 18.5087 105.024 20.2087 104.14 21.682C103.278 23.1553 102.1 24.3 100.604 25.116C99.1304 25.9093 97.4757 26.306 95.6397 26.306ZM95.6397 22.158C96.501 22.158 97.3057 21.954 98.0537 21.546C98.8244 21.1153 99.4364 20.4807 99.8897 19.642C100.343 18.8033 100.57 17.7833 100.57 16.582C100.57 14.7913 100.094 13.42 99.1417 12.468C98.2124 11.4933 97.0677 11.006 95.7077 11.006C94.3477 11.006 93.203 11.4933 92.2737 12.468C91.367 13.42 90.9137 14.7913 90.9137 16.582C90.9137 18.3727 91.3557 19.7553 92.2397 20.73C93.1464 21.682 94.2797 22.158 95.6397 22.158Z" fill="#30569F"/>
</svg>
