<svg width="541" height="432" viewBox="0 0 541 432" fill="none" xmlns="http://www.w3.org/2000/svg">
<g clip-path="url(#clip0)">
<path opacity="0.1" d="M155.414 74.0897H114.832C112.491 74.0897 110.594 75.9856 110.594 78.3242V84.6731C110.594 87.0118 112.491 88.9077 114.832 88.9077H155.414C157.755 88.9077 159.653 87.0118 159.653 84.6731V78.3242C159.653 75.9856 157.755 74.0897 155.414 74.0897Z" fill="#30569F"/>
<path opacity="0.1" d="M206.755 88.9077H166.173C163.832 88.9077 161.934 90.8035 161.934 93.1422V99.4911C161.934 101.83 163.832 103.726 166.173 103.726H206.755C209.096 103.726 210.993 101.83 210.993 99.4911V93.1422C210.993 90.8035 209.096 88.9077 206.755 88.9077Z" fill="#30569F"/>
<path opacity="0.1" d="M258.096 103.726H217.514C215.173 103.726 213.275 105.621 213.275 107.96V114.309C213.275 116.648 215.173 118.544 217.514 118.544H258.096C260.436 118.544 262.334 116.648 262.334 114.309V107.96C262.334 105.621 260.436 103.726 258.096 103.726Z" fill="#30569F"/>
<path opacity="0.1" d="M155.414 51.8628H114.832C112.491 51.8628 110.594 53.7586 110.594 56.0973V62.4462C110.594 64.7849 112.491 66.6807 114.832 66.6807H155.414C157.755 66.6807 159.653 64.7849 159.653 62.4462V56.0973C159.653 53.7586 157.755 51.8628 155.414 51.8628Z" fill="#30569F"/>
<path opacity="0.1" d="M206.755 66.6808H166.173C163.832 66.6808 161.934 68.5766 161.934 70.9153V77.2642C161.934 79.6029 163.832 81.4987 166.173 81.4987H206.755C209.096 81.4987 210.993 79.6029 210.993 77.2642V70.9153C210.993 68.5766 209.096 66.6808 206.755 66.6808Z" fill="#30569F"/>
<path opacity="0.1" d="M258.096 81.4987H217.514C215.173 81.4987 213.275 83.3945 213.275 85.7332V92.0821C213.275 94.4207 215.173 96.3166 217.514 96.3166H258.096C260.436 96.3166 262.334 94.4207 262.334 92.0821V85.7332C262.334 83.3945 260.436 81.4987 258.096 81.4987Z" fill="#30569F"/>
<path opacity="0.1" d="M315.141 74.0897H274.559C272.218 74.0897 270.32 75.9856 270.32 78.3242V84.6731C270.32 87.0118 272.218 88.9077 274.559 88.9077H315.141C317.482 88.9077 319.379 87.0118 319.379 84.6731V78.3242C319.379 75.9856 317.482 74.0897 315.141 74.0897Z" fill="#30569F"/>
<path opacity="0.1" d="M366.481 88.9077H325.899C323.559 88.9077 321.661 90.8035 321.661 93.1422V99.4911C321.661 101.83 323.559 103.726 325.899 103.726H366.481C368.822 103.726 370.72 101.83 370.72 99.4911V93.1422C370.72 90.8035 368.822 88.9077 366.481 88.9077Z" fill="#30569F"/>
<path opacity="0.1" d="M417.822 103.726H377.24C374.899 103.726 373.002 105.621 373.002 107.96V114.309C373.002 116.648 374.899 118.544 377.24 118.544H417.822C420.163 118.544 422.061 116.648 422.061 114.309V107.96C422.061 105.621 420.163 103.726 417.822 103.726Z" fill="#30569F"/>
<path opacity="0.1" d="M315.141 51.8628H274.559C272.218 51.8628 270.32 53.7586 270.32 56.0973V62.4462C270.32 64.7849 272.218 66.6807 274.559 66.6807H315.141C317.482 66.6807 319.379 64.7849 319.379 62.4462V56.0973C319.379 53.7586 317.482 51.8628 315.141 51.8628Z" fill="#30569F"/>
<path opacity="0.1" d="M366.481 66.6808H325.899C323.559 66.6808 321.661 68.5766 321.661 70.9153V77.2642C321.661 79.6029 323.559 81.4987 325.899 81.4987H366.481C368.822 81.4987 370.72 79.6029 370.72 77.2642V70.9153C370.72 68.5766 368.822 66.6808 366.481 66.6808Z" fill="#30569F"/>
<path opacity="0.1" d="M417.822 81.4987H377.24C374.899 81.4987 373.002 83.3945 373.002 85.7332V92.0821C373.002 94.4207 374.899 96.3166 377.24 96.3166H417.822C420.163 96.3166 422.061 94.4207 422.061 92.0821V85.7332C422.061 83.3945 420.163 81.4987 417.822 81.4987Z" fill="#30569F"/>
<path opacity="0.1" d="M155.414 22.2269H114.832C112.491 22.2269 110.594 24.1228 110.594 26.4614V32.8104C110.594 35.149 112.491 37.0449 114.832 37.0449H155.414C157.755 37.0449 159.653 35.149 159.653 32.8104V26.4614C159.653 24.1228 157.755 22.2269 155.414 22.2269Z" fill="#30569F"/>
<path opacity="0.1" d="M206.755 37.0449H166.173C163.832 37.0449 161.934 38.9407 161.934 41.2794V47.6283C161.934 49.9669 163.832 51.8628 166.173 51.8628H206.755C209.096 51.8628 210.993 49.9669 210.993 47.6283V41.2794C210.993 38.9407 209.096 37.0449 206.755 37.0449Z" fill="#30569F"/>
<path opacity="0.1" d="M258.096 51.8628H217.514C215.173 51.8628 213.275 53.7586 213.275 56.0973V62.4462C213.275 64.7849 215.173 66.6807 217.514 66.6807H258.096C260.436 66.6807 262.334 64.7849 262.334 62.4462V56.0973C262.334 53.7586 260.436 51.8628 258.096 51.8628Z" fill="#30569F"/>
<path opacity="0.1" d="M155.414 0H114.832C112.491 0 110.594 1.89586 110.594 4.23451V10.5834C110.594 12.9221 112.491 14.8179 114.832 14.8179H155.414C157.755 14.8179 159.653 12.9221 159.653 10.5834V4.23451C159.653 1.89586 157.755 0 155.414 0Z" fill="#30569F"/>
<path opacity="0.1" d="M206.755 14.8179H166.173C163.832 14.8179 161.934 16.7138 161.934 19.0524V25.4014C161.934 27.74 163.832 29.6359 166.173 29.6359H206.755C209.096 29.6359 210.993 27.74 210.993 25.4014V19.0524C210.993 16.7138 209.096 14.8179 206.755 14.8179Z" fill="#30569F"/>
<path opacity="0.1" d="M258.096 29.6359H217.514C215.173 29.6359 213.275 31.5317 213.275 33.8704V40.2193C213.275 42.558 215.173 44.4538 217.514 44.4538H258.096C260.436 44.4538 262.334 42.558 262.334 40.2193V33.8704C262.334 31.5317 260.436 29.6359 258.096 29.6359Z" fill="#30569F"/>
<path opacity="0.1" d="M315.141 22.2269H274.559C272.218 22.2269 270.32 24.1228 270.32 26.4614V32.8104C270.32 35.149 272.218 37.0449 274.559 37.0449H315.141C317.482 37.0449 319.379 35.149 319.379 32.8104V26.4614C319.379 24.1228 317.482 22.2269 315.141 22.2269Z" fill="#30569F"/>
<path opacity="0.1" d="M366.481 37.0449H325.899C323.559 37.0449 321.661 38.9407 321.661 41.2794V47.6283C321.661 49.9669 323.559 51.8628 325.899 51.8628H366.481C368.822 51.8628 370.72 49.9669 370.72 47.6283V41.2794C370.72 38.9407 368.822 37.0449 366.481 37.0449Z" fill="#30569F"/>
<path opacity="0.1" d="M417.822 51.8628H377.24C374.899 51.8628 373.002 53.7586 373.002 56.0973V62.4462C373.002 64.7849 374.899 66.6807 377.24 66.6807H417.822C420.163 66.6807 422.061 64.7849 422.061 62.4462V56.0973C422.061 53.7586 420.163 51.8628 417.822 51.8628Z" fill="#30569F"/>
<path opacity="0.1" d="M315.141 0H274.559C272.218 0 270.32 1.89586 270.32 4.23451V10.5834C270.32 12.9221 272.218 14.8179 274.559 14.8179H315.141C317.482 14.8179 319.379 12.9221 319.379 10.5834V4.23451C319.379 1.89586 317.482 0 315.141 0Z" fill="#30569F"/>
<path opacity="0.1" d="M366.481 14.8179H325.899C323.559 14.8179 321.661 16.7138 321.661 19.0524V25.4014C321.661 27.74 323.559 29.6359 325.899 29.6359H366.481C368.822 29.6359 370.72 27.74 370.72 25.4014V19.0524C370.72 16.7138 368.822 14.8179 366.481 14.8179Z" fill="#30569F"/>
<path opacity="0.1" d="M417.822 29.6359H377.24C374.899 29.6359 373.002 31.5317 373.002 33.8704V40.2193C373.002 42.558 374.899 44.4538 377.24 44.4538H417.822C420.163 44.4538 422.061 42.558 422.061 40.2193V33.8704C422.061 31.5317 420.163 29.6359 417.822 29.6359Z" fill="#30569F"/>
<path opacity="0.1" d="M155.414 337.963H114.832C112.491 337.963 110.594 339.859 110.594 342.198V348.546C110.594 350.885 112.491 352.781 114.832 352.781H155.414C157.755 352.781 159.653 350.885 159.653 348.546V342.198C159.653 339.859 157.755 337.963 155.414 337.963Z" fill="#30569F"/>
<path opacity="0.1" d="M206.755 352.781H166.173C163.832 352.781 161.934 354.677 161.934 357.016V363.364C161.934 365.703 163.832 367.599 166.173 367.599H206.755C209.096 367.599 210.993 365.703 210.993 363.364V357.016C210.993 354.677 209.096 352.781 206.755 352.781Z" fill="#30569F"/>
<path opacity="0.1" d="M258.096 367.599H217.514C215.173 367.599 213.275 369.495 213.275 371.833V378.182C213.275 380.521 215.173 382.417 217.514 382.417H258.096C260.436 382.417 262.334 380.521 262.334 378.182V371.833C262.334 369.495 260.436 367.599 258.096 367.599Z" fill="#30569F"/>
<path opacity="0.1" d="M155.414 315.736H114.832C112.491 315.736 110.594 317.632 110.594 319.971V326.32C110.594 328.658 112.491 330.554 114.832 330.554H155.414C157.755 330.554 159.653 328.658 159.653 326.32V319.971C159.653 317.632 157.755 315.736 155.414 315.736Z" fill="#30569F"/>
<path opacity="0.1" d="M206.755 330.554H166.173C163.832 330.554 161.934 332.45 161.934 334.789V341.138C161.934 343.476 163.832 345.372 166.173 345.372H206.755C209.096 345.372 210.993 343.476 210.993 341.138V334.789C210.993 332.45 209.096 330.554 206.755 330.554Z" fill="#30569F"/>
<path opacity="0.1" d="M258.096 345.372H217.514C215.173 345.372 213.275 347.268 213.275 349.607V355.955C213.275 358.294 215.173 360.19 217.514 360.19H258.096C260.436 360.19 262.334 358.294 262.334 355.955V349.607C262.334 347.268 260.436 345.372 258.096 345.372Z" fill="#30569F"/>
<path opacity="0.1" d="M315.141 337.963H274.559C272.218 337.963 270.32 339.859 270.32 342.198V348.546C270.32 350.885 272.218 352.781 274.559 352.781H315.141C317.482 352.781 319.379 350.885 319.379 348.546V342.198C319.379 339.859 317.482 337.963 315.141 337.963Z" fill="#30569F"/>
<path opacity="0.1" d="M366.481 352.781H325.899C323.559 352.781 321.661 354.677 321.661 357.016V363.364C321.661 365.703 323.559 367.599 325.899 367.599H366.481C368.822 367.599 370.72 365.703 370.72 363.364V357.016C370.72 354.677 368.822 352.781 366.481 352.781Z" fill="#30569F"/>
<path opacity="0.1" d="M417.822 367.599H377.24C374.899 367.599 373.002 369.495 373.002 371.833V378.182C373.002 380.521 374.899 382.417 377.24 382.417H417.822C420.163 382.417 422.061 380.521 422.061 378.182V371.833C422.061 369.495 420.163 367.599 417.822 367.599Z" fill="#30569F"/>
<path opacity="0.1" d="M315.141 315.736H274.559C272.218 315.736 270.32 317.632 270.32 319.971V326.32C270.32 328.658 272.218 330.554 274.559 330.554H315.141C317.482 330.554 319.379 328.658 319.379 326.32V319.971C319.379 317.632 317.482 315.736 315.141 315.736Z" fill="#30569F"/>
<path opacity="0.1" d="M366.481 330.554H325.899C323.559 330.554 321.661 332.45 321.661 334.789V341.138C321.661 343.476 323.559 345.372 325.899 345.372H366.481C368.822 345.372 370.72 343.476 370.72 341.138V334.789C370.72 332.45 368.822 330.554 366.481 330.554Z" fill="#30569F"/>
<path opacity="0.1" d="M417.822 345.372H377.24C374.899 345.372 373.002 347.268 373.002 349.607V355.955C373.002 358.294 374.899 360.19 377.24 360.19H417.822C420.163 360.19 422.061 358.294 422.061 355.955V349.607C422.061 347.268 420.163 345.372 417.822 345.372Z" fill="#30569F"/>
<path opacity="0.1" d="M155.414 286.1H114.832C112.491 286.1 110.594 287.996 110.594 290.335V296.684C110.594 299.022 112.491 300.918 114.832 300.918H155.414C157.755 300.918 159.653 299.022 159.653 296.684V290.335C159.653 287.996 157.755 286.1 155.414 286.1Z" fill="#30569F"/>
<path opacity="0.1" d="M206.755 300.918H166.173C163.832 300.918 161.934 302.814 161.934 305.153V311.502C161.934 313.84 163.832 315.736 166.173 315.736H206.755C209.096 315.736 210.993 313.84 210.993 311.502V305.153C210.993 302.814 209.096 300.918 206.755 300.918Z" fill="#30569F"/>
<path opacity="0.1" d="M258.096 315.736H217.514C215.173 315.736 213.275 317.632 213.275 319.971V326.32C213.275 328.658 215.173 330.554 217.514 330.554H258.096C260.436 330.554 262.334 328.658 262.334 326.32V319.971C262.334 317.632 260.436 315.736 258.096 315.736Z" fill="#30569F"/>
<path opacity="0.1" d="M155.414 263.873H114.832C112.491 263.873 110.594 265.769 110.594 268.108V274.457C110.594 276.795 112.491 278.691 114.832 278.691H155.414C157.755 278.691 159.653 276.795 159.653 274.457V268.108C159.653 265.769 157.755 263.873 155.414 263.873Z" fill="#30569F"/>
<path opacity="0.1" d="M206.755 278.691H166.173C163.832 278.691 161.934 280.587 161.934 282.926V289.275C161.934 291.613 163.832 293.509 166.173 293.509H206.755C209.096 293.509 210.993 291.613 210.993 289.275V282.926C210.993 280.587 209.096 278.691 206.755 278.691Z" fill="#30569F"/>
<path opacity="0.1" d="M258.096 293.509H217.514C215.173 293.509 213.275 295.405 213.275 297.744V304.093C213.275 306.431 215.173 308.327 217.514 308.327H258.096C260.436 308.327 262.334 306.431 262.334 304.093V297.744C262.334 295.405 260.436 293.509 258.096 293.509Z" fill="#30569F"/>
<path opacity="0.1" d="M315.141 286.1H274.559C272.218 286.1 270.32 287.996 270.32 290.335V296.684C270.32 299.022 272.218 300.918 274.559 300.918H315.141C317.482 300.918 319.379 299.022 319.379 296.684V290.335C319.379 287.996 317.482 286.1 315.141 286.1Z" fill="#30569F"/>
<path opacity="0.1" d="M366.481 300.918H325.899C323.559 300.918 321.661 302.814 321.661 305.153V311.502C321.661 313.84 323.559 315.736 325.899 315.736H366.481C368.822 315.736 370.72 313.84 370.72 311.502V305.153C370.72 302.814 368.822 300.918 366.481 300.918Z" fill="#30569F"/>
<path opacity="0.1" d="M417.822 315.736H377.24C374.899 315.736 373.002 317.632 373.002 319.971V326.32C373.002 328.658 374.899 330.554 377.24 330.554H417.822C420.163 330.554 422.061 328.658 422.061 326.32V319.971C422.061 317.632 420.163 315.736 417.822 315.736Z" fill="#30569F"/>
<path opacity="0.1" d="M315.141 263.873H274.559C272.218 263.873 270.32 265.769 270.32 268.108V274.457C270.32 276.795 272.218 278.691 274.559 278.691H315.141C317.482 278.691 319.379 276.795 319.379 274.457V268.108C319.379 265.769 317.482 263.873 315.141 263.873Z" fill="#30569F"/>
<path opacity="0.1" d="M366.481 278.691H325.899C323.559 278.691 321.661 280.587 321.661 282.926V289.275C321.661 291.613 323.559 293.509 325.899 293.509H366.481C368.822 293.509 370.72 291.613 370.72 289.275V282.926C370.72 280.587 368.822 278.691 366.481 278.691Z" fill="#30569F"/>
<path opacity="0.1" d="M417.822 293.509H377.24C374.899 293.509 373.002 295.405 373.002 297.744V304.093C373.002 306.431 374.899 308.327 377.24 308.327H417.822C420.163 308.327 422.061 306.431 422.061 304.093V297.744C422.061 295.405 420.163 293.509 417.822 293.509Z" fill="#30569F"/>
<path opacity="0.1" d="M275.169 432C413.319 432 525.312 422.814 525.312 411.483C525.312 400.152 413.319 390.966 275.169 390.966C137.019 390.966 25.0258 400.152 25.0258 411.483C25.0258 422.814 137.019 432 275.169 432Z" fill="#30569F"/>
<path d="M48.2888 106.461C71.877 116.674 85.4309 137.807 85.4309 137.807C85.4309 137.807 60.7361 142.366 37.1422 132.159C13.5482 121.952 0 100.813 0 100.813C0 100.813 24.6949 96.2483 48.2888 106.461Z" fill="#30569F"/>
<path d="M120.679 67.2507C127.975 55.2823 140.4 49.5831 140.4 49.5831C140.4 49.5831 140.97 63.227 133.697 75.1612C126.424 87.0953 113.971 92.7888 113.971 92.7888C113.971 92.7888 113.377 79.1506 120.679 67.2507Z" fill="#30569F"/>
<path d="M67.0453 80.0568C72.2649 98.6704 86.6517 110.924 86.6517 110.924C86.6517 110.924 92.5787 92.9883 87.3591 74.369C82.1395 55.7497 67.747 43.5021 67.747 43.5021C67.747 43.5021 61.82 61.4375 67.0453 80.0568Z" fill="#46455B"/>
<path d="M479.557 79.219H71.9227C69.6511 79.219 67.8097 81.0587 67.8097 83.3281V283.131C67.8097 285.4 69.6511 287.24 71.9227 287.24H479.557C481.828 287.24 483.67 285.4 483.67 283.131V83.3281C483.67 81.0587 481.828 79.219 479.557 79.219Z" fill="#3F3D56"/>
<path opacity="0.1" d="M67.8097 274.702H483.67V283.131C483.67 284.221 483.236 285.266 482.465 286.037C481.694 286.807 480.647 287.24 479.557 287.24H71.9227C70.8318 287.24 69.7857 286.807 69.0143 286.037C68.243 285.266 67.8097 284.221 67.8097 283.131V274.702Z" fill="black"/>
<path d="M137.69 259.314H109.738C108.95 259.314 108.312 259.952 108.312 260.739V273.277C108.312 274.064 108.95 274.702 109.738 274.702H137.69C138.478 274.702 139.116 274.064 139.116 273.277V260.739C139.116 259.952 138.478 259.314 137.69 259.314Z" fill="#30569F"/>
<path d="M167.639 272.422H148.814C148.184 272.422 147.673 272.932 147.673 273.562C147.673 274.192 148.184 274.702 148.814 274.702H167.639C168.269 274.702 168.78 274.192 168.78 273.562C168.78 272.932 168.269 272.422 167.639 272.422Z" fill="#30569F"/>
<path d="M128.934 119.9C143.988 122.675 159.345 119.9 174.336 118.019L219.898 112.32C221.741 112.086 224.422 110.986 225.506 113.238C226.116 114.497 225.705 117.227 225.751 118.675C225.871 122.664 225.859 126.654 225.751 130.643C225.546 138.269 224.986 145.877 224.273 153.468C222.887 168.326 220.925 183.104 219.944 198.019C219.442 205.61 219.191 213.224 219.413 220.816C219.465 222.628 219.539 224.441 219.647 226.247C219.767 228.27 220.674 231.274 218.466 232.625C217.206 233.4 214.724 233.36 213.281 233.588C210.999 233.947 208.717 234.232 206.39 234.465C191.05 235.999 175.511 235.36 160.115 235.269L113.623 235.03L102.282 234.967C101.255 234.967 97.5531 235.582 96.9199 234.363C96.6518 233.844 97.3649 231.416 97.4904 230.767C97.6653 229.695 97.8554 228.626 98.0608 227.558C99.3843 220.064 100.947 212.615 102.522 205.172C105.905 189.214 109.367 173.176 110.759 156.876C111.449 148.698 110.993 140.446 111.837 132.284C112.231 128.494 112.699 120.037 117.747 119.701C122.026 119.416 126.429 119.701 130.719 119.701C130.946 119.701 131.164 119.61 131.324 119.45C131.485 119.29 131.575 119.072 131.575 118.846C131.575 118.619 131.485 118.401 131.324 118.241C131.164 118.081 130.946 117.991 130.719 117.991C126.669 117.991 122.613 117.882 118.563 117.962C115.87 118.014 113.999 118.652 112.716 121.125C109.436 127.474 109.772 135.943 109.67 142.873C109.424 159.464 106.874 175.701 103.554 191.927C101.883 200.094 100.08 208.232 98.4202 216.405C97.6387 220.309 96.8914 224.224 96.2068 228.151C95.8874 230.02 94.273 234.141 95.6934 235.856C97.1139 237.572 101.484 236.648 103.44 236.66L117.051 236.739L143.132 236.888C159.983 236.984 176.892 237.458 193.737 236.962C201.78 236.722 210.28 236.392 218.113 234.471C220.446 233.901 221.569 232.83 221.661 230.345C221.798 226.492 221.17 222.52 221.09 218.65C220.52 185.538 228.307 152.887 227.508 119.763C227.457 117.512 228.307 111.836 225.842 110.473C224.735 109.858 223.298 110.194 222.134 110.331C219.909 110.587 217.69 110.901 215.466 111.163L186.572 114.765C177.337 115.905 168.107 117.136 158.854 118.185C149.059 119.324 139.168 120.003 129.407 118.185C128.329 117.985 127.867 119.632 128.951 119.832L128.934 119.9Z" fill="#30569F"/>
<path d="M110.77 140.047L224.758 134.461C225.859 134.404 225.865 132.695 224.758 132.752L110.77 138.337C109.675 138.388 109.67 140.098 110.77 140.047Z" fill="#30569F"/>
<path d="M145.888 125.953C145.569 126.29 145.337 126.7 145.213 127.147C145.089 127.595 145.076 128.065 145.176 128.519C145.275 128.972 145.484 129.394 145.784 129.748C146.084 130.103 146.466 130.379 146.897 130.552C148.432 131.253 150.234 130.666 151.757 130.284C154.039 129.714 156.321 129.207 158.666 128.791C163.769 127.888 168.937 127.408 174.119 127.354C176.481 127.326 178.825 127.434 181.187 127.537C182.898 127.605 184.741 127.742 186.19 126.682C187.844 125.474 188.381 123.114 186.76 121.644C184.479 119.564 179.561 120.772 176.926 120.988C167.363 121.782 157.862 123.199 148.483 125.229C147.411 125.457 147.861 127.109 148.939 126.876C155.127 125.542 161.362 124.471 167.645 123.661C170.733 123.281 173.826 122.96 176.926 122.698C178.386 122.579 179.847 122.47 181.307 122.385C181.877 122.351 182.482 122.288 183.064 122.305C184.872 122.345 185.083 122.02 183.999 124.203C183.035 126.135 183.343 125.913 181.672 125.85C180.965 125.85 180.257 125.77 179.55 125.736C178.101 125.675 176.652 125.643 175.203 125.639C172.119 125.639 169.042 125.787 165.973 126.084C163.372 126.334 160.776 126.688 158.204 127.144C156.595 127.429 154.998 127.759 153.406 128.124C152.704 128.289 151.997 128.46 151.295 128.637C150.959 128.728 150.617 128.808 150.28 128.893C149.033 129.326 147.97 128.757 147.091 127.184C147.856 126.391 146.652 125.177 145.882 125.975L145.888 125.953Z" fill="#30569F"/>
<path d="M166.549 150.277C158.295 149.958 149.379 152.186 143.942 158.826C139.687 164.018 137.262 172.925 141.769 178.773C146.612 185.042 157.234 183.936 163.64 181.263C170.417 178.414 177.833 172.538 179.869 165.186C182.408 156.004 174.165 149.063 165.58 148.96C164.479 148.96 164.479 150.67 165.58 150.67C170.474 150.727 175.277 152.824 177.559 157.378C179.949 162.177 177.89 167.215 174.707 171.056C169.607 177.171 161.632 181.782 153.509 181.651C148.631 181.577 143.241 179.907 141.729 174.766C140.485 170.6 141.432 166.046 143.6 162.353C148.289 154.374 157.833 151.673 166.584 152.015C167.685 152.055 167.685 150.345 166.584 150.305L166.549 150.277Z" fill="#30569F"/>
<path d="M158.352 162.94C158 162.81 157.621 162.771 157.25 162.826C156.878 162.882 156.527 163.03 156.229 163.258C155.931 163.485 155.695 163.785 155.543 164.128C155.392 164.471 155.33 164.847 155.363 165.22C155.534 167.443 157.987 168.07 159.829 167.939C161.421 167.802 163.281 167.215 162.722 165.226C162.619 164.874 162.441 164.548 162.201 164.271C161.961 163.993 161.664 163.771 161.33 163.619C160.819 163.416 160.265 163.348 159.721 163.419C159.51 163.419 157.576 164.126 158.397 163.277L157.051 163.1C157.201 163.247 157.315 163.426 157.386 163.623C157.457 163.821 157.483 164.031 157.462 164.24C157.465 164.389 157.506 164.534 157.582 164.663C157.658 164.791 157.765 164.897 157.895 164.972C158.024 165.046 158.171 165.085 158.32 165.085C158.469 165.086 158.616 165.048 158.745 164.975C158.941 164.893 159.156 164.867 159.365 164.901C159.575 164.934 159.771 165.025 159.932 165.164C160.092 165.302 160.211 165.483 160.275 165.685C160.338 165.887 160.344 166.103 160.291 166.309C160.245 166.506 160.271 166.713 160.363 166.894C160.455 167.075 160.608 167.217 160.795 167.296C160.981 167.375 161.19 167.386 161.384 167.326C161.578 167.266 161.745 167.14 161.854 166.97C162.425 165.944 163.115 163.904 162.259 162.832C161.689 162.108 160.588 162.325 159.903 162.747C159.481 163.045 159.088 163.383 158.728 163.755C158.038 164.365 157.587 164.65 157.844 163.482C158.272 161.356 160.303 159.663 162.157 158.814L160.902 157.851C160.244 160.321 159.067 162.623 157.451 164.605L158.911 165.209C158.869 164.426 159.071 163.65 159.487 162.986C159.904 162.322 160.515 161.802 161.238 161.498H160.4L160.845 162.228C160.679 163.305 162.328 163.767 162.493 162.678C162.71 161.271 161.82 159.441 160.172 160.131C158.204 160.951 157.182 163.203 157.222 165.209C157.222 165.893 158.192 166.423 158.688 165.818C160.503 163.617 161.827 161.054 162.573 158.301C162.613 158.138 162.604 157.967 162.548 157.808C162.492 157.65 162.391 157.511 162.257 157.409C162.124 157.307 161.963 157.246 161.795 157.233C161.628 157.221 161.46 157.257 161.313 157.338C159.604 158.11 158.16 159.366 157.16 160.951C156.464 162.091 155.591 163.869 156.298 165.18C156.414 165.39 156.571 165.575 156.758 165.724C156.946 165.872 157.162 165.983 157.393 166.048C157.623 166.113 157.865 166.132 158.103 166.103C158.341 166.075 158.571 165.999 158.78 165.881C159.307 165.569 159.789 165.185 160.212 164.741C160.423 164.553 160.656 164.228 160.936 164.171C161.187 164 161.176 164.097 160.896 164.473C160.892 165.064 160.72 165.641 160.4 166.138L161.963 166.793C162.104 166.261 162.087 165.699 161.915 165.176C161.744 164.653 161.424 164.191 160.995 163.846C160.566 163.5 160.046 163.287 159.498 163.23C158.95 163.174 158.397 163.277 157.907 163.527L159.196 164.268C159.223 163.543 158.995 162.831 158.552 162.256C158.484 162.146 158.393 162.051 158.284 161.98C158.175 161.91 158.052 161.864 157.924 161.847C157.795 161.83 157.664 161.842 157.541 161.882C157.417 161.923 157.305 161.99 157.211 162.08C156.344 162.986 156.178 164.553 157.268 165.391C158.084 166.012 158.483 165.391 159.379 165.249C162.419 164.855 160.645 166.223 159.573 166.269C159.093 166.32 158.608 166.285 158.141 166.166C156.95 165.763 156.876 165.245 157.918 164.61C158.939 165.026 159.379 163.374 158.375 162.963L158.352 162.94Z" fill="#30569F"/>
<path d="M156.977 166.064C157.679 168.343 154.781 169.095 153.406 169.882C152.441 170.423 151.6 171.158 150.936 172.042C149.498 173.968 148.962 176.419 148.489 178.727C148.272 179.804 149.921 180.26 150.143 179.183C150.404 177.487 150.889 175.833 151.586 174.265C152.613 172.224 154.085 171.54 156.002 170.492C157.918 169.443 159.305 167.819 158.626 165.608C158.306 164.559 156.652 165.009 156.977 166.064Z" fill="#30569F"/>
<path d="M159.829 164.918C159.421 164.974 159.049 165.181 158.785 165.497C158.521 165.813 158.385 166.217 158.403 166.628C158.403 167.306 158.854 167.739 159.162 168.281C159.893 169.388 160.451 170.601 160.816 171.877C161.09 173.102 161.358 175.296 160.719 176.436C159.538 178.55 157.405 178.146 155.585 178.146C153.874 178.146 152.55 178.716 152.607 176.333C152.642 174.994 153.577 173.638 154.319 172.583L152.756 172.378C153.086 174.118 153.259 175.885 153.275 177.656C153.275 178.448 154.49 178.887 154.866 178.083C155.784 176.156 156.511 174.144 157.04 172.076L155.357 171.848L155.654 176.18C155.659 176.364 155.723 176.543 155.837 176.688C155.952 176.834 156.11 176.938 156.288 176.987C156.467 177.036 156.656 177.025 156.829 176.958C157.001 176.891 157.147 176.77 157.245 176.613C157.445 176.392 157.591 176.129 157.673 175.843C157.73 175.576 157.205 173.769 156.994 174.413L158.671 174.641L158.791 170.526L157.08 170.754C157.442 171.914 157.55 173.139 157.399 174.344C157.291 175.296 158.894 175.513 159.111 174.572L160.183 169.044L158.62 169.244C158.991 170.008 159.094 170.876 158.911 171.706C158.785 172.8 160.497 172.789 160.622 171.706C160.768 170.571 160.586 169.418 160.098 168.383C160.011 168.24 159.884 168.126 159.734 168.054C159.583 167.982 159.415 167.955 159.249 167.977C159.083 167.998 158.928 168.068 158.801 168.176C158.674 168.285 158.581 168.428 158.534 168.588L157.456 174.117L159.139 174.344C159.31 172.986 159.18 171.606 158.757 170.304C158.7 170.107 158.574 169.938 158.403 169.826C158.231 169.715 158.026 169.668 157.823 169.695C157.62 169.722 157.434 169.821 157.297 169.973C157.161 170.125 157.084 170.322 157.08 170.526L156.96 174.641C156.96 175.638 158.346 175.781 158.643 174.869L158.734 174.59C158.774 174.444 158.774 174.291 158.736 174.145C158.698 173.999 158.623 173.865 158.517 173.757C156.743 171.831 156.384 174.897 155.768 175.746L157.365 176.18L157.068 171.848C157.006 170.925 155.637 170.64 155.386 171.62C154.903 173.548 154.235 175.424 153.389 177.223L154.986 177.656C154.968 175.731 154.777 173.813 154.416 171.922C154.267 171.136 153.235 171.17 152.853 171.717C151.712 173.359 149.738 176.943 151.261 178.91C152.59 180.619 156.772 179.958 158.557 179.85C161.375 179.69 162.396 177.906 162.704 175.251C162.851 173.979 162.78 172.691 162.493 171.444C162.339 170.771 160.782 166.508 160.314 166.594C161.398 166.394 160.936 164.741 159.858 164.941L159.829 164.918Z" fill="#30569F"/>
<path d="M156.515 168.759L151.843 174.92L153.321 175.781L156.743 170.834L155.18 170.173L153.475 176.675C153.429 176.873 153.454 177.08 153.546 177.261C153.638 177.441 153.791 177.584 153.978 177.663C154.165 177.742 154.373 177.752 154.567 177.693C154.761 177.633 154.928 177.507 155.038 177.337C155.814 176.052 156.685 174.827 157.645 173.672L156.218 172.84C155.835 174.312 155.097 175.668 154.068 176.789L155.5 177.622C155.587 176.834 155.797 176.065 156.121 175.342C156.561 174.356 155.169 173.484 154.644 174.476C154.161 175.379 153.61 176.244 152.995 177.063L154.558 177.268L154.906 175.644L153.343 175.439L153.594 176.864C153.636 177.007 153.713 177.137 153.82 177.241C153.927 177.346 154.059 177.42 154.203 177.458C154.348 177.496 154.499 177.496 154.644 177.458C154.788 177.419 154.92 177.344 155.026 177.24C156.473 175.744 157.633 173.996 158.449 172.082H156.977C157.364 172.795 157.636 173.564 157.781 174.362C157.987 175.387 159.35 175.006 159.459 174.134C159.704 172.225 159.829 170.302 159.835 168.377H158.124V171.962C158.124 172.891 159.647 173.165 159.807 172.19C159.92 171.326 160.205 170.492 160.645 169.74H159.145C159.506 170.322 159.704 170.992 159.715 171.677C159.715 171.904 159.805 172.121 159.966 172.282C160.126 172.442 160.344 172.532 160.571 172.532C160.798 172.532 161.016 172.442 161.176 172.282C161.337 172.121 161.427 171.904 161.427 171.677L161.643 170.537H159.995C160.16 171.546 160.788 177.228 158.557 176.561C158.181 176.47 158.072 176.493 158.232 176.624L158.74 175.541L159.932 173.017L158.335 172.583C158.437 173.757 158.546 175.433 157.839 176.436C157.268 177.251 155.511 177.576 154.615 177.097C154.024 176.676 153.519 176.146 153.127 175.536L151.957 176.675C152.904 177.365 154.439 179.058 155.659 179.155C156.589 179.229 157.371 178.459 157.981 177.844C158.917 176.877 159.647 175.731 160.127 174.474C160.606 173.217 160.825 171.876 160.771 170.532C160.771 170.305 160.68 170.088 160.52 169.927C160.36 169.767 160.142 169.677 159.915 169.677C159.688 169.677 159.47 169.767 159.31 169.927C159.149 170.088 159.059 170.305 159.059 170.532V172.481C159.059 172.708 159.149 172.925 159.31 173.085C159.47 173.246 159.688 173.336 159.915 173.336C160.142 173.336 160.36 173.246 160.52 173.085C160.68 172.925 160.771 172.708 160.771 172.481V167.699C160.771 167.472 160.68 167.255 160.52 167.095C160.36 166.934 160.142 166.844 159.915 166.844C159.688 166.844 159.47 166.934 159.31 167.095C159.149 167.255 159.059 167.472 159.059 167.699C159.056 168.845 158.957 169.989 158.763 171.119L160.445 171.347C160.311 169.985 160.249 168.617 160.257 167.249C160.255 167.044 160.178 166.847 160.042 166.694C159.907 166.54 159.72 166.441 159.517 166.413C159.314 166.385 159.107 166.432 158.936 166.543C158.764 166.655 158.637 166.824 158.58 167.021C158.323 168.11 158.01 169.181 157.707 170.247L159.27 170.042L159.151 169.586C159.071 168.497 157.359 168.491 157.439 169.586C157.458 170.047 157.579 170.499 157.793 170.908C158.124 171.603 159.156 171.358 159.356 170.703C159.681 169.631 159.972 168.56 160.229 167.477L158.546 167.249C158.537 168.617 158.6 169.985 158.734 171.347C158.82 172.224 160.234 172.601 160.411 171.575C160.639 170.287 160.759 168.984 160.771 167.676H159.059V172.458H160.771V170.509H159.059C159.16 172.659 158.412 174.763 156.977 176.368C156.755 176.62 156.515 176.856 156.258 177.074C155.853 177.462 155.483 177.405 155.157 176.898C154.347 176.561 153.509 175.695 152.801 175.188C152.094 174.681 151.124 175.684 151.626 176.356C152.938 178.1 154.895 180.044 157.331 179.206C159.892 178.3 160.24 174.835 160.046 172.555C159.983 171.797 158.848 171.284 158.455 172.127C157.884 173.33 157.314 174.527 156.743 175.735C156.544 176.157 156.173 176.738 156.23 177.24C156.418 178.522 157.975 178.311 158.934 178.237C162.647 177.958 162.06 172.697 161.632 170.053C161.489 169.175 160.212 169.312 159.983 170.053C159.802 170.574 159.708 171.12 159.704 171.672H161.415C161.353 170.692 161.079 169.737 160.611 168.873C160.534 168.746 160.426 168.64 160.297 168.567C160.167 168.494 160.021 168.455 159.872 168.455C159.723 168.455 159.577 168.494 159.448 168.567C159.318 168.64 159.21 168.746 159.133 168.873C158.623 169.753 158.279 170.719 158.118 171.723L159.829 171.951V168.366C159.829 168.139 159.739 167.922 159.579 167.762C159.418 167.601 159.201 167.511 158.974 167.511C158.747 167.511 158.529 167.601 158.369 167.762C158.208 167.922 158.118 168.139 158.118 168.366C158.112 170.291 157.987 172.213 157.742 174.122L159.424 173.894C159.231 172.963 158.902 172.064 158.449 171.227C158.372 171.1 158.264 170.994 158.135 170.921C158.005 170.848 157.859 170.809 157.71 170.809C157.561 170.809 157.415 170.848 157.286 170.921C157.156 170.994 157.048 171.1 156.971 171.227C156.227 173.012 155.158 174.643 153.817 176.037L155.249 176.413L154.998 174.989C154.866 174.231 153.794 174.208 153.435 174.783C153.151 175.212 152.959 175.694 152.869 176.2C152.78 176.706 152.796 177.225 152.915 177.724C153.058 178.533 154.085 178.448 154.479 177.929C155.093 177.112 155.644 176.249 156.127 175.348L154.65 174.481C154.255 175.333 153.986 176.237 153.851 177.166C153.748 177.918 154.644 178.704 155.283 177.998C156.509 176.657 157.397 175.043 157.873 173.29C158.084 172.515 157.011 171.78 156.441 172.458C155.391 173.715 154.438 175.048 153.589 176.447L155.152 177.109L156.892 170.629C156.938 170.431 156.912 170.224 156.82 170.043C156.728 169.863 156.575 169.72 156.388 169.641C156.202 169.562 155.993 169.552 155.799 169.611C155.605 169.671 155.438 169.797 155.329 169.968L151.906 174.92C151.267 175.838 152.733 176.63 153.383 175.781L158.038 169.626C158.7 168.748 157.217 167.916 156.561 168.759H156.515Z" fill="#30569F"/>
<path d="M229.293 189.328C236.139 185.144 241.581 178.904 247.628 173.683C254.188 168.024 261.073 162.752 268.164 157.76C281.935 148.071 296.396 139.403 310.845 130.757C311.032 130.639 311.166 130.452 311.219 130.237C311.272 130.022 311.239 129.795 311.127 129.604C311.015 129.413 310.834 129.272 310.621 129.212C310.407 129.152 310.179 129.176 309.984 129.281C295.534 137.927 281.068 146.578 267.297 156.284C260.799 160.843 254.456 165.676 248.375 170.805C241.758 176.39 235.865 183.344 228.409 187.852C227.468 188.422 228.329 189.903 229.271 189.328H229.293Z" fill="#30569F"/>
<path d="M332.939 104.21C325.523 104.962 317.537 106.849 312.973 113.329C309.031 118.903 309.117 128.625 312.819 134.347C317.023 140.85 325.614 141.084 332.289 138.981C338.963 136.878 345.871 133.19 345.808 125.223C345.774 120.949 344.228 116.497 342.522 112.622C341.051 109.277 338.444 106.353 334.496 106.723C333.407 106.826 333.395 108.536 334.496 108.433C339.784 107.943 341.484 114.218 342.739 118.179C343.88 121.878 344.935 126.255 343.144 129.931C341.353 133.607 337.035 135.482 333.344 136.827C329.351 138.274 324.964 139.158 320.794 137.966C312.534 135.658 310.252 125.2 312.631 117.78C315.369 109.231 325.067 106.718 332.967 105.92C334.051 105.811 334.063 104.102 332.967 104.21H332.939Z" fill="#30569F"/>
<path d="M344.348 170.321C336.932 171.073 328.946 172.96 324.382 179.44C320.44 185.013 320.526 194.736 324.228 200.458C328.432 206.961 337.023 207.195 343.698 205.092C350.372 202.989 357.28 199.301 357.217 191.334C357.183 187.059 355.637 182.608 353.932 178.733C352.46 175.387 349.853 172.464 345.905 172.834C344.816 172.937 344.804 174.647 345.905 174.544C351.193 174.054 352.893 180.329 354.148 184.29C355.289 187.988 356.345 192.365 354.553 196.041C352.762 199.717 348.444 201.592 344.753 202.937C340.76 204.385 336.373 205.268 332.203 204.077C323.943 201.769 321.661 191.311 324.04 183.891C326.778 175.342 336.476 172.829 344.376 172.031C345.46 171.922 345.472 170.213 344.376 170.321H344.348Z" fill="#30569F"/>
<path d="M321.752 120.857L327.155 127.013C327.261 127.116 327.393 127.189 327.537 127.226C327.681 127.264 327.832 127.263 327.976 127.225C328.119 127.186 328.25 127.111 328.356 127.007C328.462 126.903 328.54 126.773 328.581 126.631C329.722 123.633 329.505 120.527 329.773 117.375C330.069 114.118 330.887 110.929 332.197 107.932C334.829 101.852 339.292 96.7423 344.964 93.3131C345.905 92.7432 345.044 91.2614 344.103 91.837C338.509 95.2019 334.022 100.126 331.193 106.005C329.808 108.866 328.848 111.913 328.341 115.05C327.771 118.749 328.29 122.624 326.921 126.175L328.352 125.793L322.979 119.649C322.249 118.823 321.045 120.037 321.769 120.857H321.752Z" fill="#30569F"/>
<path d="M232.049 195.99C261.473 195.093 290.904 194.903 320.343 195.42C321.444 195.42 321.444 193.71 320.343 193.71C290.912 193.186 261.48 193.376 232.049 194.28C230.948 194.315 230.942 196.024 232.049 195.99Z" fill="#30569F"/>
<path d="M326.493 179.132C336.551 183.076 346.227 187.933 355.398 193.642C356.333 194.212 357.195 192.747 356.259 192.166C346.967 186.386 337.164 181.472 326.972 177.485C325.951 177.08 325.506 178.733 326.521 179.132H326.493Z" fill="#30569F"/>
<path d="M344.759 171.387C334.559 183.266 328.65 198.226 327.982 213.863C327.936 214.963 329.647 214.963 329.693 213.863C330.341 198.674 336.072 184.143 345.968 172.595C346.681 171.763 345.477 170.549 344.759 171.387Z" fill="#30569F"/>
<path d="M116.606 189.784L180.366 188.952L187.696 188.855C189.014 188.855 190.331 188.809 191.649 188.803C193.503 188.803 194.752 190.342 194.718 192.223C194.633 196.212 192.123 196.07 188.837 196.212L180.913 196.571L148.648 197.991C142.87 198.247 137.085 198.56 131.307 198.76C126.093 198.919 116.178 197.221 118.494 189.641C118.814 188.587 117.165 188.137 116.84 189.185C115.699 192.913 117.719 196.697 120.97 198.652C125.585 201.421 131.666 200.481 136.76 200.253L176.372 198.458L185.99 198.03C188.455 197.916 191.883 198.418 194.148 197.272C196.806 195.933 197.274 190.616 195.597 188.376C194.735 187.236 193.526 187.134 192.174 187.082C188.626 186.945 185.015 187.179 181.461 187.225L161.712 187.487L116.583 188.057C115.482 188.057 115.482 189.767 116.583 189.767L116.606 189.784Z" fill="#30569F"/>
<path d="M374.211 399.229C372.774 400.13 371.131 400.637 369.647 401.429C368.164 402.222 366.721 403.413 366.299 405.054C366.141 405.564 366.168 406.112 366.373 406.604C366.742 407.199 367.307 407.646 367.97 407.869C370.983 409.206 374.238 409.915 377.534 409.952C380.831 409.99 384.101 409.355 387.143 408.086C388.214 407.572 389.32 407.134 390.452 406.775C391.847 406.491 393.267 406.346 394.69 406.342C396.187 406.255 397.675 406.064 399.146 405.772C399.885 405.69 400.585 405.399 401.165 404.934C401.694 404.325 402.012 403.562 402.072 402.757C402.747 398.317 401.729 393.786 399.22 390.059C398.904 389.537 398.48 389.088 397.976 388.743C397.362 388.426 396.687 388.245 395.997 388.213C393.144 387.865 390.155 387.227 387.274 387.159C385.209 387.113 384.171 388.093 382.711 389.512C379.693 392.527 377.93 396.91 374.211 399.229Z" fill="#323444"/>
<path d="M416.248 398.808C416.248 401.6 416.584 404.558 418.279 406.787C419.053 407.75 419.992 408.57 421.051 409.209C424.633 411.489 429.38 412.326 433.156 410.394C433.766 410.121 434.287 409.683 434.662 409.129C435.232 408.137 434.93 406.901 434.611 405.806L429.146 386.885C425.615 387.426 420.423 387.808 417.286 389.598C415.01 390.892 416.248 396.312 416.248 398.808Z" fill="#323444"/>
<path d="M371.005 282.299C370.674 283.342 369.476 283.826 368.82 284.704C368.05 285.735 368.13 287.166 368.41 288.42C368.755 290.269 369.624 291.98 370.914 293.35C371.568 294.028 372.376 294.541 373.269 294.844C374.162 295.147 375.115 295.233 376.048 295.094C377.885 294.746 379.471 293.122 379.533 291.258C379.5 290.41 379.319 289.575 378.997 288.79L375.107 277.551C375.091 277.472 375.058 277.397 375.011 277.331C374.964 277.265 374.903 277.21 374.833 277.17C374.686 277.137 374.532 277.164 374.405 277.244C373.487 277.677 371.644 278.133 371.108 279.085C370.572 280.036 371.393 281.267 371.005 282.299Z" fill="#FBB3B2"/>
<path d="M369.185 281.735C370.606 281.512 371.849 280.68 373.179 280.133C374.508 279.586 376.173 279.375 377.292 280.287C377.611 280.549 377.919 280.908 378.335 280.903C377.769 278.116 376.912 275.396 375.78 272.787C375.74 272.662 375.662 272.552 375.557 272.473C375.402 272.41 375.228 272.41 375.072 272.473L371.233 273.477C369.813 273.847 369.647 273.733 369.756 275.129C369.784 275.751 370.104 281.735 369.185 281.735Z" fill="#323444"/>
<path d="M368.763 200.578C368.193 201.456 368.193 202.55 368.193 203.581C368.193 208.625 368.244 213.698 368.991 218.69C369.168 219.887 369.391 221.084 369.505 222.292C369.634 223.974 369.661 225.662 369.585 227.347L369.014 249.289C368.946 251.973 368.809 254.857 367.149 256.966C366.645 257.673 366.409 258.535 366.481 259.399C366.915 264.905 367.828 270.365 368.735 275.808C370.195 275.149 371.791 274.846 373.391 274.922C374.991 274.999 376.551 275.452 377.942 276.246C380.82 267.205 382.412 257.804 382.671 248.32C382.802 243.653 382.602 238.956 383.321 234.346C384.525 226.583 384.034 218.622 383.15 210.814C382.871 208.34 382.277 205.793 380.691 203.878C379.19 202.202 377.191 201.052 374.987 200.595C372.876 200.042 370.988 200.612 368.763 200.578Z" fill="#5B5583"/>
<path opacity="0.1" d="M368.763 200.578C368.193 201.456 368.193 202.55 368.193 203.581C368.193 208.625 368.244 213.698 368.991 218.69C369.168 219.887 369.391 221.084 369.505 222.292C369.634 223.974 369.661 225.662 369.585 227.347L369.014 249.289C368.946 251.973 368.809 254.857 367.149 256.966C366.645 257.673 366.409 258.535 366.481 259.399C366.915 264.905 367.828 270.365 368.735 275.808C370.195 275.149 371.791 274.846 373.391 274.922C374.991 274.999 376.551 275.452 377.942 276.246C380.82 267.205 382.412 257.804 382.671 248.32C382.802 243.653 382.602 238.956 383.321 234.346C384.525 226.583 384.034 218.622 383.15 210.814C382.871 208.34 382.277 205.793 380.691 203.878C379.19 202.202 377.191 201.052 374.987 200.595C372.876 200.042 370.988 200.612 368.763 200.578Z" fill="black"/>
<path d="M375.734 264.21C371.908 283.797 373.997 304.079 381.735 322.478C382.404 323.84 382.873 325.291 383.127 326.787C383.441 329.58 382.152 332.264 381.416 334.965C379.705 341.109 380.692 347.652 381.787 353.938C382.243 356.56 382.713 359.179 383.196 361.797C383.669 364.35 384.126 367.126 382.939 369.44C383.96 373.691 384.565 377.903 385.586 382.155C385.694 382.491 385.727 382.847 385.683 383.198C385.477 383.754 385.115 384.239 384.639 384.594C383.878 385.365 383.331 386.321 383.052 387.367C382.773 388.413 382.771 389.514 383.047 390.561C385.654 388.692 389.288 389.347 392.266 390.561C395.244 391.775 398.176 393.411 401.393 393.411C400.925 389.638 400.475 385.677 401.867 382.138C402.677 380.086 404.103 378.148 404.063 375.954C404.023 373.988 402.819 372.232 402.528 370.289C402.42 369.08 402.466 367.862 402.665 366.664C403.43 359.689 402.563 352.644 401.696 345.68C401.598 344.306 401.274 342.959 400.737 341.69C400.332 340.87 399.727 340.083 399.739 339.166C399.739 338.1 400.6 337.234 400.92 336.219C401.49 334.35 400.441 331.808 402.021 330.651C406.185 327.596 404.588 320.301 404.496 315.143C404.424 310.694 404.234 306.249 403.926 301.807C406.548 309.173 407.62 317 407.075 324.798C406.892 327.351 406.556 330.036 407.554 332.395C408.319 334.207 409.836 335.701 410.247 337.621C410.503 338.807 410.321 340.032 410.378 341.24C410.435 342.448 410.846 343.765 411.89 344.375C411.969 349.869 412.46 355.745 412.546 361.239C412.49 364.047 412.719 366.854 413.23 369.617C413.486 370.495 413.628 371.403 413.652 372.318C413.524 373.465 413.22 374.586 412.751 375.641C411.757 378.582 411.497 381.721 411.994 384.785C412.491 387.849 413.73 390.746 415.603 393.223C416.949 390.835 419.756 389.569 422.494 389.37C425.232 389.171 427.936 389.86 430.589 390.555C430.183 387.226 430.847 383.853 432.483 380.924C432.922 380.264 433.258 379.541 433.481 378.781C433.789 377.333 433.07 375.891 432.683 374.461C432.049 372.181 432.272 369.725 432.42 367.343C432.918 359.364 432.564 351.355 431.365 343.451C431.18 341.895 430.814 340.365 430.275 338.892C430.07 338.368 429.819 337.866 429.648 337.336C429.378 336.385 429.225 335.406 429.191 334.418L428.535 325.299C428.073 318.911 430.173 312.602 431.639 306.367C432.295 303.574 433.008 300.787 433.447 297.949C434.046 294.085 434.143 290.135 435.021 286.323C435.809 282.903 437.229 279.569 437.526 276.064C437.982 270.633 435.723 265.384 433.532 260.403C432.62 258.351 429.169 258.556 426.949 258.191C411.211 255.61 394.633 255.592 379.79 261.411C378.255 262.047 376.873 263.001 375.734 264.21Z" fill="#3C354C"/>
<path d="M387.081 163.054L388.826 169.836C389.301 171.392 389.564 173.004 389.608 174.629C389.626 175.222 389.494 175.81 389.225 176.339C388.938 176.774 388.57 177.149 388.142 177.445C386.949 178.351 386.122 180.465 384.759 181.092C385.46 182.312 386.43 181.52 387.697 182.13C389.927 183.212 391.969 184.768 394.388 185.304C396.67 185.806 399.066 185.333 401.33 184.734C404.542 183.862 407.737 182.66 410.321 180.557C412.905 178.454 414.377 176.596 414.365 173.273C411.513 173.609 408.974 170.731 407.714 168.144C407.277 167.16 406.955 166.129 406.755 165.072L405.227 158.353C403.561 158.717 402.203 159.908 400.612 160.53C399.02 161.151 397.138 161.208 395.369 161.288C392.23 161.43 389.108 161.834 386.037 162.496C385.614 162.581 385.084 162.849 385.187 163.26" fill="#FBB3B2"/>
<path opacity="0.1" d="M387.081 163.054L388.826 169.836C389.301 171.392 389.564 173.004 389.608 174.629C389.626 175.222 389.494 175.81 389.225 176.339C388.938 176.774 388.57 177.149 388.142 177.445C386.949 178.351 386.122 180.465 384.759 181.092C385.46 182.312 386.43 181.52 387.697 182.13C389.927 183.212 391.969 184.768 394.388 185.304C396.67 185.806 399.066 185.333 401.33 184.734C404.542 183.862 407.737 182.66 410.321 180.557C412.905 178.454 414.377 176.596 414.365 173.273C411.513 173.609 408.974 170.731 407.714 168.144C407.277 167.16 406.955 166.129 406.755 165.072L405.227 158.353C403.561 158.717 402.203 159.908 400.612 160.53C399.02 161.151 397.138 161.208 395.369 161.288C392.23 161.43 389.108 161.834 386.037 162.496C385.614 162.581 385.084 162.849 385.187 163.26" fill="black"/>
<path d="M394.576 166.793C402.919 166.793 409.682 160.036 409.682 151.702C409.682 143.367 402.919 136.61 394.576 136.61C386.234 136.61 379.471 143.367 379.471 151.702C379.471 160.036 386.234 166.793 394.576 166.793Z" fill="#FBB3B2"/>
<path d="M398.735 176.579C399.543 174.836 400.709 173.282 402.157 172.019C404.285 170.156 407.195 168.645 407.697 165.864L412.306 171.227C412.556 171.476 412.751 171.775 412.876 172.105C412.934 172.414 412.926 172.732 412.851 173.038C412.776 173.343 412.637 173.63 412.443 173.877C411.302 175.695 409.505 176.995 407.805 178.311C403.909 181.395 400.178 184.682 396.63 188.159C396.473 188.341 396.264 188.468 396.031 188.524C395.81 188.53 395.593 188.468 395.409 188.347C392.347 186.741 389.638 184.54 387.44 181.873C387.274 181.674 387.069 181.446 386.801 181.463C386.639 181.492 386.49 181.57 386.373 181.685C384.839 182.939 383.161 184.438 381.193 184.244C383.743 182.415 385.187 179.36 385.723 176.265C385.829 175.206 386.047 174.161 386.373 173.148C386.542 172.641 386.834 172.183 387.222 171.815C387.61 171.448 388.082 171.181 388.598 171.039C387.354 172.937 388.204 175.627 389.876 177.16C391.5 178.537 393.447 179.48 395.535 179.901C397.474 180.266 398.045 178.072 398.735 176.579Z" fill="#323444"/>
<path d="M379.083 265.76C381.233 266.29 383.27 267.19 385.358 267.857C389.163 269.048 393.168 269.468 397.138 269.094C398.359 269.067 399.548 268.689 400.56 268.005C400.828 267.789 401.074 267.532 401.359 267.333C401.836 267.047 402.353 266.834 402.893 266.7C408.125 265.065 412.506 261.537 416.755 258.083C416.892 257.969 417.046 257.826 417.035 257.644C417.015 257.52 416.955 257.406 416.864 257.319L414.628 254.755C408.763 255.752 402.757 255.376 396.807 255.228C395.585 255.173 394.361 255.206 393.144 255.325C391.969 255.461 390.811 255.758 389.653 256.008C385.255 256.966 380.76 257.331 376.305 257.958C375.993 257.981 375.691 258.074 375.42 258.231C375.233 258.376 375.072 258.554 374.947 258.755L373.384 260.95C372.777 261.688 372.33 262.544 372.072 263.463C371.707 265.173 372.471 265.743 373.926 265.52C375.644 265.269 377.395 265.35 379.083 265.76Z" fill="#323444"/>
<path d="M396.567 185.549C394.822 183.763 392.844 182.219 390.686 180.961C389.814 180.408 388.847 180.022 387.833 179.821C387.324 179.721 386.798 179.733 386.293 179.857C385.789 179.981 385.318 180.214 384.913 180.54C384.405 180.99 384.086 181.617 383.595 182.09C382.978 182.608 382.27 183.008 381.507 183.269C378.91 184.378 376.449 185.78 374.171 187.447C372.929 188.315 371.811 189.346 370.845 190.513C368.261 193.819 367.873 198.315 367.942 202.51C367.993 205.428 370.794 207.594 372.722 209.776C374.531 211.924 376.167 214.211 377.617 216.616C378.655 218.257 379.739 220.035 379.608 221.99C379.499 223.591 378.564 225.096 378.712 226.692C378.763 227.262 378.946 227.786 378.997 228.339C379.1 229.479 378.649 230.618 378.535 231.758C378.381 233.371 378.906 234.973 378.934 236.597C378.913 237.709 378.772 238.815 378.512 239.897C377.417 245.106 376.042 250.343 376.322 255.661L373.161 256.231C373.461 256.524 373.687 256.883 373.821 257.28C373.956 257.677 373.995 258.099 373.936 258.514C373.876 258.928 373.72 259.323 373.479 259.666C373.239 260.009 372.921 260.291 372.551 260.488C377.485 262.135 382.819 261.303 388.05 261.297C392.38 261.297 396.693 261.867 401.017 261.787C405.341 261.708 409.802 260.927 413.367 258.482C414.337 257.821 415.227 257.046 416.248 256.47C417.615 255.762 419.089 255.281 420.612 255.045C423.432 254.508 426.298 254.252 429.169 254.282C430.572 254.282 432.101 254.339 433.219 253.495C434.451 252.56 434.765 250.868 434.93 249.335C435.095 247.716 435.198 246.092 435.227 244.468C435.275 243.203 435.208 241.936 435.027 240.683C434.856 239.767 434.633 238.861 434.36 237.97L432.209 230.402C431.319 227.279 432.557 223.854 432.819 220.616C432.882 219.853 432.894 218.964 432.306 218.473C432.095 218.297 431.804 218.177 431.736 217.904C431.705 217.774 431.701 217.639 431.725 217.507C431.748 217.376 431.799 217.251 431.872 217.14C433.013 214.86 434.725 212.848 436.288 210.791C438.913 207.182 441.35 203.44 443.59 199.581C442.888 191.504 439.484 183.899 433.926 177.992C432.785 176.755 431.479 175.57 429.882 175.011C428.838 174.693 427.755 174.518 426.664 174.493C422.192 174.191 417.537 173.923 413.641 171.677C413.361 171.484 413.045 171.35 412.711 171.284C411.85 171.187 411.222 172.036 410.663 172.709C409.225 174.419 407.109 175.399 405.249 176.658C401.781 179.012 399.071 182.249 396.567 185.549Z" fill="#5B5583"/>
<path d="M443.977 201.912C444.867 204.727 444.782 207.736 445.073 210.671C445.245 212.442 445.556 214.197 446.002 215.92C446.206 216.867 446.573 217.771 447.086 218.593C447.6 219.345 448.336 219.955 448.661 220.804C448.839 221.38 448.918 221.981 448.895 222.583L448.963 226.515C449.11 228.599 448.792 230.689 448.033 232.636L445.575 240.108C444.245 244.154 442.882 248.263 440.486 251.785C440.149 252.381 439.637 252.861 439.02 253.159C438.537 253.286 438.042 253.363 437.543 253.387C436.673 253.542 435.885 253.995 435.313 254.668C434.741 255.341 434.422 256.192 434.411 257.074C433.84 256.241 433.128 255.514 432.306 254.926L427.303 250.936C425.592 249.546 423.806 248.132 421.73 247.329C424.523 246.457 427.002 244.795 428.867 242.543C430.733 240.291 431.903 237.546 432.238 234.642C432.236 233.778 432.431 232.924 432.808 232.146C433.224 231.473 433.995 230.96 434.052 230.168C434.12 229.171 432.99 228.419 432.99 227.421C432.99 226.76 433.481 226.213 433.698 225.592C433.9 224.824 433.9 224.017 433.698 223.249L433.008 219.42C432.967 219.036 432.851 218.664 432.665 218.325C432.407 218.001 432.121 217.699 431.81 217.425C430.623 216.097 431.148 214.005 431.81 212.37C433.329 208.739 435.287 205.307 437.64 202.151C438.477 201.091 439.252 199.984 439.961 198.834C440.566 197.785 440.703 196.332 441.342 195.414C442.163 197.569 443.276 199.695 443.977 201.912Z" fill="#5B5583"/>
<path d="M421.553 247.562C421.298 247.751 421.078 247.982 420.903 248.246C420.23 249.089 419.335 249.727 418.318 250.087C418.889 250.497 419.408 250.902 419.944 251.318C423.912 254.379 427.545 257.85 430.783 261.673C431.142 260.391 433.293 260.482 433.818 259.257C433.941 258.906 433.98 258.531 433.932 258.163C433.823 256.243 433.548 254.336 433.11 252.464C432.938 251.499 432.547 250.587 431.969 249.796C431.171 248.833 429.927 248.371 428.741 247.973C426.944 247.346 423.378 246.462 421.553 247.562Z" fill="#323444"/>
<path d="M414.422 252.042C412.711 253.307 411.211 254.891 409.288 255.758C407.931 256.373 406.385 256.641 405.198 257.559C405.843 258.978 407.52 259.713 409.077 259.656C410.636 259.503 412.13 258.956 413.418 258.066C414.439 257.439 415.637 256.709 416.75 257.148C416.921 258.015 416.179 258.83 416.179 259.707C416.179 260.585 416.909 261.223 417.628 261.685C421.051 263.89 425.455 263.708 429.534 263.452C429.768 263.46 429.998 263.392 430.19 263.258C430.278 263.155 430.345 263.035 430.387 262.906C430.429 262.777 430.446 262.641 430.435 262.506C430.486 261.605 430.509 260.71 430.515 259.81C430.63 259.084 430.536 258.34 430.243 257.666C429.95 256.991 429.47 256.414 428.86 256.003C426.647 254.102 424.26 252.413 421.73 250.959C419.22 249.506 416.676 250.366 414.422 252.042Z" fill="#FBB3B2"/>
<path d="M399.881 145.393C397.349 145.695 395.506 147.672 395.763 149.821C396.019 151.969 398.278 153.451 400.811 153.143C403.344 152.836 405.187 150.864 404.93 148.721C404.673 146.578 402.414 145.09 399.881 145.393ZM400.743 152.551C398.598 152.807 396.687 151.548 396.464 149.735C396.242 147.923 397.811 146.247 399.95 145.991C402.089 145.734 404.006 146.994 404.228 148.806C404.451 150.619 402.882 152.294 400.743 152.551Z" fill="#3C354C"/>
<path d="M387.537 146.874C385.004 147.176 383.161 149.154 383.418 151.297C383.675 153.44 385.934 154.927 388.467 154.625C390.999 154.323 392.842 152.346 392.585 150.197C392.329 148.048 390.07 146.572 387.537 146.874ZM388.398 154.027C386.253 154.283 384.342 153.024 384.126 151.217C383.909 149.41 385.466 147.729 387.611 147.467C389.756 147.205 391.667 148.47 391.884 150.282C392.1 152.095 390.537 153.77 388.398 154.027Z" fill="#3C354C"/>
<path d="M378.37 147.974L383.875 149.148L383.333 150.596L378.141 149.074L378.37 147.974Z" fill="#3C354C"/>
<path d="M409.054 144.293L403.977 146.738L404.85 148.014L409.534 145.307L409.054 144.293Z" fill="#3C354C"/>
<path d="M392.078 148.784L395.94 148.322L395.74 149.279L392.426 149.502L392.078 148.784Z" fill="#3C354C"/>
<path d="M384.588 147.49C384.951 146.709 385.145 145.86 385.158 144.999C385.172 144.484 385.26 143.973 385.42 143.483C385.701 142.861 386.127 142.316 386.664 141.893C388.444 140.389 390.994 139.614 393.509 139.505C396.253 139.379 398.981 139.968 401.427 141.215C402.175 141.565 402.844 142.061 403.395 142.674C404.194 143.649 404.365 144.908 405.17 145.871C405.718 146.456 406.409 146.889 407.175 147.128C407.94 147.368 408.755 147.406 409.539 147.239C409.819 146.247 409.454 145.199 409.596 144.184C409.821 143.315 410.125 142.468 410.503 141.654C411.387 139.049 410.098 136.029 407.44 134.473C406.51 133.903 405.409 133.532 404.713 132.763C404.017 131.994 403.852 131.196 403.373 130.426C402.1 128.392 398.809 127.44 396.305 128.38C395.517 128.677 394.822 129.127 394.023 129.446C392.54 130.056 390.851 130.164 389.22 130.369C387.612 130.518 386.039 130.93 384.565 131.589C383.156 132.284 381.975 133.401 381.65 134.735C381.496 135.351 381.53 135.989 381.376 136.599C380.589 139.693 375.506 141.198 375.221 144.355C375.118 145.495 375.74 146.589 376.516 147.518C377.052 148.151 378.335 149.844 379.242 150.089C380.149 150.334 380.84 149.473 381.707 149.177C383.076 148.749 383.903 148.658 384.588 147.49Z" fill="#CBCEDA"/>
<path d="M448.94 348.222C448.94 376.854 466.921 400.027 489.14 400.027L448.94 348.222Z" fill="#46455B"/>
<path d="M489.14 400.033C489.14 371.075 509.209 347.646 534.006 347.646L489.14 400.033Z" fill="#30569F"/>
<path d="M463.51 350.82C463.51 378.023 474.976 400.033 489.14 400.033L463.51 350.82Z" fill="#30569F"/>
<path d="M489.14 400.033C489.14 363.034 512.335 333.09 540.994 333.09L489.14 400.033Z" fill="#46455B"/>
<path opacity="0.1" d="M487.4 409.927C492.92 409.927 497.395 409.172 497.395 408.24C497.395 407.308 492.92 406.553 487.4 406.553C481.881 406.553 477.406 407.308 477.406 408.24C477.406 409.172 481.881 409.927 487.4 409.927Z" fill="#30569F"/>
<path d="M480.686 400.398C480.686 400.398 486.391 400.221 488.102 399.002C489.813 397.782 496.87 396.317 497.298 398.278C497.725 400.238 505.854 408.029 499.425 408.08C492.996 408.132 484.468 407.077 482.757 406.034C481.045 404.991 480.686 400.398 480.686 400.398Z" fill="#A8A8A8"/>
<path opacity="0.2" d="M499.545 407.396C493.111 407.448 484.594 406.393 482.877 405.35C481.57 404.558 481.051 401.703 480.874 400.392H480.686C480.686 400.392 481.045 404.986 482.762 406.029C484.48 407.072 492.996 408.126 499.431 408.075C501.291 408.075 501.93 407.396 501.895 406.422C501.639 407.015 500.96 407.385 499.545 407.396Z" fill="black"/>
<path d="M12.8295 364.954C12.8295 387.751 27.1307 406.171 44.809 406.171L12.8295 364.954Z" fill="#46455B"/>
<path d="M44.809 406.171C44.809 383.135 60.7817 364.493 80.5022 364.493L44.809 406.171Z" fill="#30569F"/>
<path d="M24.4153 367.029C24.4153 388.686 33.5426 406.183 44.809 406.183L24.4153 367.029Z" fill="#30569F"/>
<path d="M44.809 406.171C44.809 376.735 63.2632 352.912 86.0641 352.912L44.809 406.171Z" fill="#46455B"/>
<path opacity="0.1" d="M43.4228 414.047C47.8146 414.047 51.3749 413.445 51.3749 412.702C51.3749 411.96 47.8146 411.358 43.4228 411.358C39.031 411.358 35.4707 411.96 35.4707 412.702C35.4707 413.445 39.031 414.047 43.4228 414.047Z" fill="#30569F"/>
<path d="M38.0834 406.462C38.0834 406.462 42.6185 406.319 43.9819 405.322C45.3452 404.325 50.9642 403.185 51.3008 404.752C51.6373 406.319 58.1177 412.509 53.0121 412.549C47.9066 412.588 41.1125 411.751 39.7491 410.924C38.3857 410.098 38.0834 406.462 38.0834 406.462Z" fill="#A8A8A8"/>
<path opacity="0.2" d="M53.0863 412.053C47.9522 412.093 41.1866 411.255 39.8233 410.423C38.785 409.796 38.3743 407.522 38.2317 406.479H38.0834C38.0834 406.479 38.3686 410.132 39.732 410.964C41.0954 411.796 47.878 412.628 52.995 412.588C54.4725 412.588 54.9859 412.053 54.9574 411.272C54.752 411.728 54.1873 412.019 53.0863 412.053Z" fill="black"/>
</g>
<defs>
<clipPath id="clip0">
<rect width="541" height="432" fill="white"/>
</clipPath>
</defs>
</svg>
