<svg width="372" height="259" viewBox="0 0 372 259" fill="none" xmlns="http://www.w3.org/2000/svg">
    <g clip-path="url(#clip0)">
        <path d="M74.1185 259C115.053 259 148.237 256.478 148.237 253.367C148.237 250.256 115.053 247.734 74.1185 247.734C33.184 247.734 0 250.256 0 253.367C0 256.478 33.184 259 74.1185 259Z" fill="#E6E6E6"/>
        <path d="M56.6548 57.4675C69.5536 51.9774 85.6194 55.4559 101.309 57.8701C101.455 54.9465 103.225 51.3883 101.371 49.3486C99.119 46.8705 99.3263 44.2668 100.682 41.6481C104.147 34.9517 99.1819 27.8263 94.1684 21.9017C93.0384 20.5693 91.6103 19.5224 90 18.8461C88.3898 18.1698 86.6428 17.883 84.9011 18.0092L75.614 18.6731C73.354 18.8346 71.1973 19.6829 69.4324 21.1046C67.6674 22.5262 66.3785 24.4533 65.7379 26.6281C63.5204 29.6462 62.3335 32.6559 63.0807 35.6499C59.7592 37.9214 59.2011 40.6633 60.6937 43.7543C61.9593 45.7006 61.9459 47.595 60.6361 49.4371C58.916 51.7856 57.5986 54.4042 56.7378 57.1856L56.6548 57.4675Z" fill="#2F2E41"/>
        <path d="M363.185 223.901H100.29C97.9525 223.901 95.7103 222.972 94.0572 221.318C92.4041 219.663 91.4753 217.42 91.4753 215.08C186.775 203.997 280.283 203.997 372 215.08C372 217.42 371.071 219.663 369.418 221.318C367.765 222.972 365.523 223.901 363.185 223.901Z" fill="#2F2E41"/>
        <path d="M372 215.599L91.4753 215.08L123.987 160.337L124.143 160.078V39.4305C124.143 37.9661 124.431 36.516 124.991 35.1631C125.551 33.8101 126.371 32.5808 127.406 31.5453C128.441 30.5098 129.669 29.6885 131.021 29.1281C132.373 28.5678 133.823 28.2794 135.286 28.2795H326.634C328.097 28.2794 329.546 28.5678 330.898 29.1281C332.25 29.6885 333.479 30.5098 334.513 31.5453C335.548 32.5808 336.369 33.8101 336.929 35.1631C337.489 36.516 337.777 37.9661 337.777 39.4305V160.908L372 215.599Z" fill="#3F3D56"/>
        <path d="M135.032 36.063C134.069 36.0641 133.147 36.4471 132.466 37.128C131.786 37.809 131.403 38.7322 131.402 39.6952V149.7C131.403 150.663 131.786 151.586 132.466 152.267C133.147 152.948 134.069 153.331 135.032 153.332H328.443C329.406 153.331 330.328 152.948 331.009 152.267C331.689 151.586 332.072 150.663 332.073 149.7V39.6952C332.072 38.7322 331.689 37.809 331.009 37.1281C330.328 36.4472 329.406 36.0641 328.443 36.063H135.032Z" fill="white"/>
        <path d="M135.842 167.861C135.545 167.862 135.254 167.947 135.004 168.108C134.753 168.268 134.554 168.497 134.429 168.767L124.411 190.561C124.302 190.798 124.254 191.059 124.273 191.319C124.291 191.579 124.374 191.831 124.515 192.051C124.655 192.271 124.849 192.452 125.078 192.577C125.307 192.702 125.563 192.768 125.824 192.768H336.495C336.761 192.768 337.021 192.7 337.253 192.571C337.485 192.442 337.679 192.255 337.819 192.03C337.958 191.804 338.037 191.546 338.049 191.281C338.061 191.016 338.005 190.752 337.886 190.515L326.997 168.722C326.869 168.462 326.671 168.245 326.425 168.092C326.179 167.94 325.895 167.86 325.606 167.861H135.842Z" fill="#2F2E41"/>
        <path d="M230.96 34.2467C232.249 34.2467 233.293 33.2013 233.293 31.9117C233.293 30.6221 232.249 29.5767 230.96 29.5767C229.671 29.5767 228.626 30.6221 228.626 31.9117C228.626 33.2013 229.671 34.2467 230.96 34.2467Z" fill="white"/>
        <path d="M210.252 196.919C209.911 196.919 209.578 197.032 209.307 197.241C209.035 197.449 208.84 197.74 208.751 198.071L206.238 207.411C206.176 207.641 206.167 207.883 206.214 208.118C206.26 208.352 206.36 208.573 206.505 208.762C206.65 208.952 206.837 209.106 207.051 209.212C207.265 209.317 207.501 209.372 207.74 209.372H255.529C255.777 209.372 256.022 209.313 256.242 209.199C256.462 209.086 256.652 208.921 256.796 208.718C256.94 208.516 257.033 208.283 257.069 208.037C257.104 207.791 257.08 207.541 256.999 207.306L253.768 197.966C253.662 197.661 253.464 197.395 253.2 197.208C252.937 197.02 252.621 196.919 252.298 196.919H210.252Z" fill="#2F2E41"/>
        <path d="M337.777 158.262V160.337H123.987L124.148 160.078V158.262H337.777Z" fill="#2F2E41"/>
        <path d="M331.814 72.6447C351.86 72.6447 368.111 56.3826 368.111 36.3223C368.111 16.2621 351.86 0 331.814 0C311.768 0 295.517 16.2621 295.517 36.3223C295.517 56.3826 311.768 72.6447 331.814 72.6447Z" fill="#FF7E1E"/>
        <path d="M346.851 52.1485H316.777C316.227 52.1479 315.699 51.9291 315.31 51.54C314.922 51.1508 314.703 50.6232 314.702 50.0729V31.9117C314.703 31.3614 314.922 30.8339 315.311 30.4447C315.699 30.0556 316.227 29.8368 316.777 29.8362H346.851C347.401 29.8368 347.928 30.0556 348.317 30.4447C348.706 30.8339 348.925 31.3614 348.925 31.9117V50.0729C348.925 50.6232 348.706 51.1508 348.317 51.54C347.928 51.9291 347.401 52.1479 346.851 52.1485ZM316.777 31.9118V50.0729H346.853L346.851 31.9117L316.777 31.9118Z" fill="white"/>
        <path d="M341.148 31.9118H322.48V23.6095C322.48 17.5962 326.406 13.2317 331.814 13.2317C337.222 13.2317 341.148 17.5962 341.148 23.6095L341.148 31.9118ZM324.555 29.8362H339.073V23.6095C339.073 18.7213 336.088 15.3073 331.814 15.3073C327.54 15.3073 324.555 18.7213 324.555 23.6095L324.555 29.8362Z" fill="white"/>
        <path d="M331.814 42.5491C332.959 42.5491 333.888 41.6198 333.888 40.4735C333.888 39.3272 332.959 38.3979 331.814 38.3979C330.668 38.3979 329.74 39.3272 329.74 40.4735C329.74 41.6198 330.668 42.5491 331.814 42.5491Z" fill="white"/>
        <path d="M306.475 116.02H157C156.266 116.019 155.563 115.727 155.044 115.207C154.525 114.688 154.233 113.984 154.232 113.25V76.1455C154.233 75.4111 154.525 74.707 155.044 74.1878C155.563 73.6685 156.266 73.3764 157 73.3755H306.475C307.209 73.3764 307.913 73.6685 308.432 74.1878C308.951 74.707 309.243 75.4111 309.243 76.1455V113.25C309.243 113.984 308.951 114.688 308.432 115.207C307.913 115.727 307.209 116.019 306.475 116.02ZM157 74.4835C156.56 74.484 156.137 74.6592 155.826 74.9708C155.515 75.2824 155.34 75.7048 155.339 76.1455V113.25C155.34 113.69 155.515 114.113 155.826 114.424C156.137 114.736 156.56 114.911 157 114.912H306.475C306.916 114.911 307.338 114.736 307.649 114.424C307.961 114.113 308.136 113.69 308.136 113.25V76.1455C308.136 75.7048 307.961 75.2824 307.649 74.9708C307.338 74.6592 306.916 74.484 306.475 74.4835L157 74.4835Z" fill="#E6E6E6"/>
        <path d="M180.225 104.557C186.453 104.557 191.501 99.5056 191.501 93.274C191.501 87.0423 186.453 81.9905 180.225 81.9905C173.998 81.9905 168.95 87.0423 168.95 93.274C168.95 99.5056 173.998 104.557 180.225 104.557Z" fill="#E6E6E6"/>
        <path d="M206.267 85.7515C206.02 85.7511 205.775 85.7994 205.547 85.8938C205.318 85.9881 205.111 86.1266 204.936 86.3012C204.761 86.4759 204.622 86.6833 204.528 86.9117C204.433 87.14 204.385 87.3848 204.385 87.632C204.385 87.8792 204.433 88.124 204.528 88.3524C204.622 88.5807 204.761 88.7882 204.936 88.9629C205.111 89.1375 205.318 89.276 205.547 89.3703C205.775 89.4646 206.02 89.513 206.267 89.5126H294.861C295.359 89.5126 295.837 89.3145 296.19 88.9618C296.542 88.6091 296.74 88.1308 296.74 87.632C296.74 87.1333 296.542 86.6549 296.19 86.3023C295.837 85.9496 295.359 85.7515 294.861 85.7515H206.267Z" fill="#E6E6E6"/>
        <path d="M206.267 97.0352C205.768 97.0352 205.29 97.2333 204.938 97.586C204.585 97.9386 204.387 98.417 204.387 98.9157C204.387 99.4145 204.585 99.8928 204.938 100.246C205.29 100.598 205.768 100.796 206.267 100.796H244.389C244.887 100.796 245.365 100.598 245.718 100.246C246.07 99.8928 246.268 99.4145 246.268 98.9157C246.268 98.417 246.07 97.9386 245.718 97.586C245.365 97.2333 244.887 97.0352 244.389 97.0352H206.267Z" fill="#E6E6E6"/>
        <path d="M123.619 97.7957L95.9877 112.496L95.6379 100.246C104.657 98.7392 113.237 96.116 121.171 91.8455L124.061 84.7007C124.376 83.9222 124.888 83.239 125.546 82.7182C126.205 82.1974 126.987 81.8569 127.817 81.7301C128.646 81.6033 129.495 81.6946 130.279 81.995C131.062 82.2954 131.755 82.7947 132.287 83.4437C133.067 84.3932 133.456 85.6037 133.377 86.83C133.298 88.0563 132.756 89.2067 131.861 90.048L123.619 97.7957Z" fill="#FFB8B8"/>
        <path d="M56.1041 182.671C55.9025 181.931 55.8597 181.157 55.9785 180.4C56.0973 179.642 56.375 178.918 56.7933 178.276L62.8632 168.954C64.2989 166.749 66.5018 165.157 69.0446 164.485C71.5873 163.814 74.2886 164.112 76.6244 165.321C74.0734 169.666 74.429 173.478 77.5054 176.791C72.7297 179.124 68.3158 182.135 64.4005 185.731C63.6857 186.219 62.8648 186.528 62.0063 186.634C61.1477 186.74 60.2762 186.639 59.4646 186.34C58.6529 186.04 57.9244 185.551 57.3399 184.913C56.7553 184.275 56.3316 183.506 56.1041 182.671Z" fill="#2F2E41"/>
        <path d="M124.878 170.483C123.959 172.015 122.663 173.285 121.113 174.171C119.563 175.057 117.811 175.529 116.026 175.543L75.7012 175.849L73.9524 165.698L91.7906 160.448L76.7505 148.898L93.1896 129.647L123.048 157.496C124.793 159.123 125.927 161.301 126.26 163.665C126.593 166.029 126.105 168.436 124.878 170.483Z" fill="#2F2E41"/>
        <path d="M69.4053 239.901H59.9616C51.4825 181.739 42.8515 123.415 68.356 101.646L98.4361 106.546L94.5887 132.097L77.7998 151.348L69.4053 239.901Z" fill="#2F2E41"/>
        <path d="M77.7068 253.076C76.9675 253.278 76.1939 253.32 75.4368 253.202C74.6798 253.083 73.9565 252.805 73.3144 252.386L63.0605 251.007C60.8571 249.571 59.2655 247.366 58.5945 244.822C57.9235 242.277 58.221 239.574 59.4292 237.237C63.7716 239.789 67.5808 239.433 70.891 236.354C73.23 241.08 77.0837 240.792 80.7641 244.773C81.2514 245.489 81.5609 246.31 81.6667 247.169C81.7726 248.028 81.6718 248.9 81.3726 249.713C81.0735 250.525 80.5848 251.254 79.9471 251.839C79.3095 252.424 78.5413 252.848 77.7068 253.076Z" fill="#2F2E41"/>
        <path d="M91.7904 62.7946L74.302 58.5945C77.2065 52.645 77.4457 46.0249 76.0508 38.9938L87.9429 38.6438C88.3156 47.3871 89.4429 55.5556 91.7904 62.7946Z" fill="#FFB8B8"/>
        <path d="M96.5968 117.085C83.8659 125.766 74.8706 117.382 68.0061 104.446C68.96 96.5304 67.4155 87.0579 64.555 76.7652C63.2829 72.2255 63.7578 67.3734 65.8861 63.1669C68.0144 58.9605 71.6413 55.7053 76.0508 54.0442L91.0908 60.3444C103.862 70.7613 106.375 82.0448 101.584 93.9456L96.5968 117.085Z" fill="#FF7E1E"/>
        <path d="M59.9616 71.5448L45.9709 78.8951L70.8044 93.5955L74.2598 102.125C74.4905 102.694 74.6028 103.304 74.5901 103.919C74.5773 104.533 74.4396 105.138 74.1855 105.697C73.9314 106.256 73.5662 106.758 73.112 107.171C72.6579 107.584 72.1244 107.901 71.5441 108.101C70.8844 108.329 70.181 108.401 69.489 108.311C68.797 108.221 68.1352 107.972 67.5553 107.584C66.9755 107.195 66.4934 106.677 66.1468 106.071C65.8002 105.465 65.5985 104.787 65.5576 104.09L65.2081 98.1457L33.645 87.7226C32.5815 87.3714 31.6119 86.7827 30.8095 86.001C30.0071 85.2193 29.393 84.2651 29.0137 83.2107C28.4608 81.6738 28.4326 79.9968 28.9336 78.4422C29.4347 76.8875 30.4366 75.543 31.7826 74.6189L57.1635 57.1943L59.9616 71.5448Z" fill="#FFB8B8"/>
        <path d="M73.9522 72.945C68.1172 70.3861 62.8112 73.1658 56.114 75.3951L55.0647 56.8444C61.7148 53.2976 68.0552 52.3413 73.9522 55.0944L73.9522 72.945Z" fill="#FF7E1E"/>
        <path d="M80.9323 47.8325C87.0989 47.8325 92.098 42.83 92.098 36.659C92.098 30.4881 87.0989 25.4856 80.9323 25.4856C74.7656 25.4856 69.7666 30.4881 69.7666 36.659C69.7666 42.83 74.7656 47.8325 80.9323 47.8325Z" fill="#FFB8B8"/>
        <path d="M94.29 35.2494C83.235 36.3329 74.8112 34.5236 69.4275 29.3721V25.2234H93.3518L94.29 35.2494Z" fill="#2F2E41"/>
    </g>
    <defs>
        <clipPath id="clip0">
            <rect width="372" height="259" fill="white"/>
        </clipPath>
    </defs>
</svg>
