<svg width="37" height="36" viewBox="0 0 37 36" fill="none" xmlns="http://www.w3.org/2000/svg">
    <path fill-rule="evenodd" clip-rule="evenodd" d="M13.8582 12.8445L18.9202 0.900879L23.9823 12.8445L36.9347 13.9433L27.0988 22.4642L30.0532 35.1284L18.9202 28.409L7.78729 35.1284L10.7417 22.4642L0.905762 13.9433L13.8582 12.8445ZM20.6677 14.2675L18.9203 10.1423L17.1729 14.2315L16.3262 16.231L14.1644 16.4112L9.71484 16.7894L13.1016 19.7257L14.7409 21.1489L14.2545 23.2745L13.2457 27.6159L17.0648 25.3101L18.9203 24.1932L20.7758 25.3461L24.5949 27.6519L23.5861 23.3105L23.0997 21.1849L24.739 19.7618L28.1257 16.8255L23.6761 16.4472L21.5144 16.267L20.6677 14.2675Z" fill="white"/>
</svg>
