<svg width="47" height="47" viewBox="0 0 47 47" fill="none" xmlns="http://www.w3.org/2000/svg">
    <path d="M0.336914 23.4257C0.336914 10.6908 10.6606 0.367188 23.3954 0.367188C36.1303 0.367188 46.4539 10.6908 46.4539 23.4257C46.4539 36.1606 36.1303 46.4842 23.3954 46.4842C10.6606 46.4842 0.336914 36.1606 0.336914 23.4257Z" fill="white"/>
    <mask id="mask0" mask-type="alpha" maskUnits="userSpaceOnUse" x="0" y="0" width="47" height="47">
        <path fill-rule="evenodd" clip-rule="evenodd" d="M0.336914 23.4257C0.336914 10.6908 10.6606 0.367188 23.3954 0.367188C36.1303 0.367188 46.4539 10.6908 46.4539 23.4257C46.4539 36.1606 36.1303 46.4842 23.3954 46.4842C10.6606 46.4842 0.336914 36.1606 0.336914 23.4257Z" fill="white"/>
    </mask>
    <g mask="url(#mask0)">
        <path fill-rule="evenodd" clip-rule="evenodd" d="M23.3972 11.1279C20.0572 11.1279 19.6381 11.1425 18.3263 11.2022C17.0171 11.2622 16.1234 11.4695 15.3415 11.7736C14.5326 12.0877 13.8465 12.5079 13.1629 13.1917C12.4789 13.8753 12.0587 14.5614 11.7435 15.37C11.4386 16.1522 11.2311 17.0461 11.1722 18.3548C11.1135 19.6666 11.0981 20.086 11.0981 23.4259C11.0981 26.7659 11.113 27.1837 11.1724 28.4955C11.2327 29.8047 11.4399 30.6984 11.7438 31.4804C12.0582 32.2892 12.4783 32.9753 13.1622 33.6589C13.8455 34.343 14.5316 34.7642 15.3399 35.0783C16.1224 35.3824 17.0163 35.5897 18.3253 35.6496C19.6371 35.7093 20.056 35.7239 23.3956 35.7239C26.7358 35.7239 27.1537 35.7093 28.4655 35.6496C29.7747 35.5897 30.6694 35.3824 31.4518 35.0783C32.2604 34.7642 32.9455 34.343 33.6288 33.6589C34.3129 32.9753 34.7331 32.2892 35.0482 31.4806C35.3506 30.6984 35.5581 29.8045 35.6196 28.4958C35.6785 27.184 35.6939 26.7659 35.6939 23.4259C35.6939 20.086 35.6785 19.6668 35.6196 18.3551C35.5581 17.0458 35.3506 16.1522 35.0482 15.3702C34.7331 14.5614 34.3129 13.8753 33.6288 13.1917C32.9448 12.5076 32.2607 12.0874 31.4511 11.7736C30.6671 11.4695 29.7729 11.2622 28.4637 11.2022C27.1519 11.1425 26.7343 11.1279 23.3933 11.1279H23.3972ZM22.9868 13.3441H22.9869L23.3968 13.3443C26.6804 13.3443 27.0696 13.356 28.3662 13.415C29.5653 13.4698 30.2161 13.6702 30.6496 13.8385C31.2235 14.0614 31.6326 14.3278 32.0628 14.7583C32.4932 15.1887 32.7597 15.5986 32.9831 16.1725C33.1514 16.6055 33.352 17.2563 33.4066 18.4554C33.4655 19.7518 33.4784 20.1412 33.4784 23.4232C33.4784 26.7053 33.4655 27.0947 33.4066 28.3911C33.3518 29.5902 33.1514 30.2409 32.9831 30.6739C32.7602 31.2478 32.4932 31.6565 32.0628 32.0867C31.6324 32.5171 31.2237 32.7836 30.6496 33.0065C30.2166 33.1756 29.5653 33.3754 28.3662 33.4302C27.0698 33.4892 26.6804 33.502 23.3968 33.502C20.113 33.502 19.7238 33.4892 18.4274 33.4302C17.2283 33.3749 16.5776 33.1745 16.1438 33.0062C15.5699 32.7833 15.16 32.5168 14.7295 32.0864C14.2991 31.656 14.0327 31.2471 13.8092 30.6729C13.6409 30.2399 13.4403 29.5892 13.3857 28.3901C13.3268 27.0937 13.315 26.7042 13.315 23.4202C13.315 20.1361 13.3268 19.7487 13.3857 18.4523C13.4406 17.2532 13.6409 16.6025 13.8092 16.169C14.0321 15.5951 14.2991 15.1851 14.7295 14.7547C15.16 14.3243 15.5699 14.0578 16.1438 13.8344C16.5773 13.6653 17.2283 13.4654 18.4274 13.4104C19.5619 13.3591 20.0015 13.3437 22.2936 13.3412V13.3443C22.5077 13.3439 22.738 13.344 22.9865 13.3441H22.9867H22.9868ZM28.4856 16.8614C28.4856 16.0464 29.1467 15.3862 29.9614 15.3862V15.3856C30.7761 15.3856 31.4372 16.0467 31.4372 16.8614C31.4372 17.6761 30.7761 18.3372 29.9614 18.3372C29.1467 18.3372 28.4856 17.6761 28.4856 16.8614ZM23.3969 17.1101C19.9093 17.1103 17.0816 19.938 17.0816 23.4257C17.0816 26.9134 19.9094 29.7399 23.3972 29.7399C26.8849 29.7399 29.7117 26.9134 29.7117 23.4257C29.7117 19.9379 26.8847 17.1101 23.3969 17.1101ZM27.4965 23.4256C27.4965 21.1615 25.661 19.3263 23.3971 19.3263C21.133 19.3263 19.2978 21.1615 19.2978 23.4256C19.2978 25.6895 21.133 27.525 23.3971 27.525C25.661 27.525 27.4965 25.6895 27.4965 23.4256Z" fill="black"/>
    </g>
</svg>
