<svg width="47" height="47" viewBox="0 0 47 47" fill="none" xmlns="http://www.w3.org/2000/svg">
    <path d="M0.826172 23.4257C0.826172 10.6908 11.1498 0.367188 23.8847 0.367188C36.6195 0.367188 46.9432 10.6908 46.9432 23.4257C46.9432 36.1606 36.6195 46.4842 23.8847 46.4842C11.1498 46.4842 0.826172 36.1606 0.826172 23.4257Z" fill="#B92B27"/>
    <path fill-rule="evenodd" clip-rule="evenodd" d="M22.5878 34.4711C23.6845 34.4711 24.7919 34.3167 25.8354 34.038L25.8318 34.0398C27.0741 36.1694 28.7334 37.9867 31.8657 37.9867C37.0424 37.9867 37.6156 33.2181 37.5091 32.0699H35.6564C35.5605 32.9324 34.9855 34.0292 33.5658 34.0292C32.2632 34.0292 31.3262 33.1241 30.4211 31.7629C33.2339 29.5836 35.1683 26.2136 35.1683 22.0662C35.1683 14.6091 29.028 9.59033 22.586 9.59033C16.2505 9.59033 10.0498 14.6481 10.0498 22.0662C10.0498 29.4168 16.2522 34.4711 22.5878 34.4711ZM20.2666 27.8392C22.5187 27.8392 23.6722 29.7966 24.6554 31.731C24.0271 31.9156 23.3421 31.9972 22.5861 31.9972C17.83 31.9972 15.7714 28.6395 15.7714 22.0662C15.7714 15.4574 17.83 12.0642 22.5861 12.0642C27.4132 12.0642 29.4789 15.4574 29.4789 22.0662C29.4789 24.7122 29.1346 26.8489 28.407 28.4284C27.1789 26.5792 25.6332 25.1239 22.6216 25.1239C20.6855 25.1239 19.1788 25.7593 18.2489 26.5614L19.012 28.0876C19.4059 27.9102 19.8372 27.8392 20.2666 27.8392Z" fill="white"/>
</svg>
