<svg width="33" height="34" viewBox="0 0 33 34" fill="none" xmlns="http://www.w3.org/2000/svg">
    <path fill-rule="evenodd" clip-rule="evenodd" d="M2.1159 0.619141H8.42096C9.41176 0.619141 10.2224 1.42979 10.2224 2.42059C10.2224 4.67239 10.5827 6.83413 11.2492 8.85175C11.4474 9.48226 11.3033 10.1848 10.7989 10.6892L6.83569 14.6524C9.42977 19.7505 13.6091 23.9118 18.7072 26.5239L22.6704 22.5608C23.0307 22.2185 23.481 22.0383 23.9494 22.0383C24.1296 22.0383 24.3277 22.0563 24.5079 22.1284C26.5255 22.7949 28.7052 23.1552 30.939 23.1552C31.9298 23.1552 32.7405 23.9659 32.7405 24.9567V31.2437C32.7405 32.2345 31.9298 33.0452 30.939 33.0452C14.0235 33.0452 0.314453 19.3362 0.314453 2.42059C0.314453 1.42979 1.1251 0.619141 2.1159 0.619141ZM6.69158 4.22203C6.79966 5.82532 7.06988 7.39258 7.50223 8.88778L5.34049 11.0495C4.6019 8.88778 4.13352 6.59994 3.97139 4.22203H6.69158ZM24.4538 25.8754C25.9851 26.3078 27.5523 26.578 29.1376 26.6861V29.3702C26.7597 29.2081 24.4718 28.7397 22.2921 28.0191L24.4538 25.8754Z" fill="white"/>
</svg>
