<svg width="30" height="39" viewBox="0 0 30 39" fill="none" xmlns="http://www.w3.org/2000/svg">
    <path fill-rule="evenodd" clip-rule="evenodd" d="M24.034 12.8801H25.8355C27.8171 12.8801 29.4384 14.5014 29.4384 16.483V34.4975C29.4384 36.4791 27.8171 38.1004 25.8355 38.1004H4.21813C2.23654 38.1004 0.615234 36.4791 0.615234 34.4975V16.483C0.615234 14.5014 2.23654 12.8801 4.21813 12.8801H6.01957V9.27725C6.01957 4.30526 10.0548 0.27002 15.0268 0.27002C19.9988 0.27002 24.034 4.30526 24.034 9.27725V12.8801ZM15.0268 3.87293C12.0364 3.87293 9.62247 6.28687 9.62247 9.27727V12.8802H20.4311V9.27727C20.4311 6.28687 18.0172 3.87293 15.0268 3.87293ZM4.21813 34.4975V16.483H25.8355V34.4975H4.21813ZM18.6297 25.4903C18.6297 27.4719 17.0084 29.0932 15.0268 29.0932C13.0452 29.0932 11.4239 27.4719 11.4239 25.4903C11.4239 23.5087 13.0452 21.8874 15.0268 21.8874C17.0084 21.8874 18.6297 23.5087 18.6297 25.4903Z" fill="white"/>
</svg>
