<svg width="48" height="47" viewBox="0 0 48 47" fill="none" xmlns="http://www.w3.org/2000/svg">
    <path d="M47.0824 23.4257C47.0824 10.6895 36.76 0.367188 24.0238 0.367188C11.2877 0.367188 0.965332 10.6895 0.965332 23.4257C0.965332 34.937 9.3961 44.4756 20.4209 46.205V30.091H14.5662V23.4257H20.4209V18.3456C20.4209 12.5674 23.8618 9.37442 29.1309 9.37442C31.6529 9.37442 34.2921 9.82478 34.2921 9.82478V15.4993H31.3828C28.5184 15.4993 27.6267 17.2783 27.6267 19.1022V23.4257H34.0218L32.9996 30.091H27.6267V46.205C38.6516 44.4756 47.0824 34.937 47.0824 23.4257Z" fill="#1877F2"/>
    <path d="M32.9998 30.0907L34.022 23.4253H27.6269V19.1018C27.6269 17.2779 28.5186 15.4989 31.383 15.4989H34.2923V9.82438C34.2923 9.82438 31.6531 9.37402 29.1311 9.37402C23.862 9.37402 20.4212 12.5671 20.4212 18.3452V23.4253H14.5664V30.0907H20.4212V46.2046C21.5966 46.3893 22.7991 46.4838 24.024 46.4838C25.249 46.4838 26.4515 46.3893 27.6269 46.2046V30.0907H32.9998Z" fill="white"/>
</svg>
