<svg width="55" height="55" viewBox="0 0 55 55" fill="none" xmlns="http://www.w3.org/2000/svg">
    <path d="M0 27.5C0 12.3122 12.3122 0 27.5 0C42.6878 0 55 12.3122 55 27.5C55 42.6878 42.6878 55 27.5 55C12.3122 55 0 42.6878 0 27.5Z" fill="#F2F1F1"/>
    <path d="M27.5 20.1911C29.7377 20.1911 31.2471 21.1577 32.1078 21.9654L35.4709 18.6817C33.4054 16.7618 30.7175 15.5833 27.5 15.5833C22.8392 15.5833 18.8141 18.258 16.8544 22.1507L20.7075 25.1432C21.6741 22.2699 24.3487 20.1911 27.5 20.1911Z" fill="#EA4335"/>
    <path d="M38.94 27.7648C38.94 26.785 38.8606 26.07 38.6884 25.3285H27.5V29.7509H34.0674C33.935 30.8499 33.22 32.505 31.6311 33.6172L35.3915 36.5302C37.6424 34.4514 38.94 31.3928 38.94 27.7648Z" fill="#4285F4"/>
    <path d="M20.7207 29.8569C20.4691 29.1154 20.3235 28.3209 20.3235 27.5C20.3235 26.6791 20.4691 25.8846 20.7075 25.1432L16.8544 22.1507C16.0467 23.7661 15.5833 25.5801 15.5833 27.5C15.5833 29.4199 16.0467 31.2339 16.8544 32.8493L20.7207 29.8569Z" fill="#FBBC05"/>
    <path d="M27.5 39.4167C30.7175 39.4167 33.4186 38.3574 35.3915 36.5302L31.6311 33.6172C30.6248 34.319 29.2742 34.8089 27.5 34.8089C24.3487 34.8089 21.6741 32.7301 20.7207 29.8568L16.8677 32.8493C18.8273 36.742 22.8392 39.4167 27.5 39.4167Z" fill="#34A853"/>
</svg>
