<svg width="55" height="55" viewBox="0 0 55 55" fill="none" xmlns="http://www.w3.org/2000/svg">
    <path d="M0 27.5C0 12.3122 12.3122 0 27.5 0C42.6878 0 55 12.3122 55 27.5C55 42.6878 42.6878 55 27.5 55C12.3122 55 0 42.6878 0 27.5Z" fill="#0077B5"/>
    <path fill-rule="evenodd" clip-rule="evenodd" d="M19.8444 16.9843C19.8444 18.7823 18.491 20.2209 16.318 20.2209H16.2782C14.1859 20.2209 12.8333 18.7823 12.8333 16.9843C12.8333 15.1484 14.2271 13.75 16.3591 13.75C18.491 13.75 19.8039 15.1484 19.8444 16.9843ZM19.4339 22.7767V41.5016H13.2018V22.7767H19.4339ZM41.909 41.5016L41.9093 30.7653C41.9093 25.0138 38.8348 22.337 34.7338 22.337C31.4249 22.337 29.9435 24.1545 29.1164 25.4294V22.7772H22.8835C22.9657 24.5342 22.8835 41.5021 22.8835 41.5021H29.1164V31.0446C29.1164 30.4849 29.1568 29.9267 29.3216 29.526C29.772 28.408 30.7976 27.2505 32.5193 27.2505C34.7754 27.2505 35.6772 28.9675 35.6772 31.4838V41.5016H41.909Z" fill="white"/>
</svg>
