<svg width="44" height="44" viewBox="0 0 44 44" fill="none" xmlns="http://www.w3.org/2000/svg">
    <path fill-rule="evenodd" clip-rule="evenodd" d="M29.275 27.5H31.25L43.725 40L40 43.725L27.5 31.25V29.275L26.825 28.575C23.975 31.025 20.275 32.5 16.25 32.5C7.275 32.5 0 25.225 0 16.25C0 7.275 7.275 0 16.25 0C25.225 0 32.5 7.275 32.5 16.25C32.5 20.275 31.025 23.975 28.575 26.825L29.275 27.5ZM5 16.25C5 22.475 10.025 27.5 16.25 27.5C22.475 27.5 27.5 22.475 27.5 16.25C27.5 10.025 22.475 5 16.25 5C10.025 5 5 10.025 5 16.25Z" fill="#91FF9C"/>
</svg>
