<svg width="631" height="456" viewBox="0 0 631 456" fill="none" xmlns="http://www.w3.org/2000/svg">
<g clip-path="url(#clip0)">
<path d="M93.545 323.245C93.0273 322.462 92.3441 321.801 91.5434 321.311C90.7427 320.82 89.8441 320.51 88.9109 320.404C87.9776 320.298 87.0324 320.397 86.1418 320.696C85.2513 320.994 84.437 321.484 83.7564 322.131L63.4675 311.664L64.7287 323.456L83.8021 331.588C84.9653 332.659 86.4811 333.266 88.0622 333.294C89.6434 333.323 91.18 332.771 92.381 331.742C93.5819 330.714 94.3637 329.281 94.5783 327.715C94.7928 326.149 94.4252 324.558 93.545 323.245H93.545Z" fill="#A0616A"/>
<path d="M75.5142 327.992C75.1471 328.16 74.7487 328.249 74.3448 328.254C73.9409 328.258 73.5406 328.177 73.17 328.017L53.8985 319.661C47.3091 316.805 41.9819 311.654 38.9079 305.165L28.7763 283.79C28.0286 282.83 27.4776 281.732 27.1548 280.558C26.832 279.385 26.7436 278.16 26.8949 276.953C27.0462 275.745 27.4341 274.58 28.0364 273.522C28.6387 272.465 29.4436 271.537 30.4051 270.791C31.3666 270.044 32.4658 269.495 33.6399 269.174C34.814 268.852 36.04 268.766 37.2477 268.918C38.4553 269.071 39.621 269.46 40.6782 270.064C41.7353 270.667 42.663 271.473 43.4084 272.434L61.2171 305.46L77.6611 317.876C78.1318 318.233 78.4814 318.726 78.6628 319.288C78.8441 319.85 78.8483 320.455 78.6749 321.019L77.0609 326.23C76.8875 326.789 76.5479 327.281 76.0873 327.642C75.9107 327.781 75.7184 327.898 75.5142 327.992Z" fill="#CCCCCC"/>
<path d="M28.3305 258.651C36.9974 258.651 44.0233 251.628 44.0233 242.965C44.0233 234.303 36.9974 227.28 28.3305 227.28C19.6636 227.28 12.6377 234.303 12.6377 242.965C12.6377 251.628 19.6636 258.651 28.3305 258.651Z" fill="#A0616A"/>
<path d="M34.6869 448.73L42.5196 448.729L46.2465 418.53L34.685 418.53L34.6869 448.73Z" fill="#A0616A"/>
<path d="M57.6269 455.999L33.0084 456L33.008 446.493L48.1148 446.492C50.6374 446.492 53.0568 447.494 54.8407 449.277C56.6245 451.059 57.6268 453.478 57.6269 455.999L57.6269 455.999Z" fill="#2F2E41"/>
<path d="M9.12969 448.73L16.9623 448.729L20.6892 418.53L9.12778 418.53L9.12969 448.73Z" fill="#A0616A"/>
<path d="M32.0696 455.999L7.45116 456L7.45073 446.493L22.5575 446.492C25.0802 446.492 27.4996 447.494 29.2834 449.277C31.0673 451.059 32.0695 453.478 32.0696 455.999L32.0696 455.999Z" fill="#2F2E41"/>
<path d="M6.3943 440.086C6.1244 439.777 5.92348 439.415 5.80502 439.023C5.68656 438.631 5.65329 438.219 5.70744 437.813L19.4218 335.003L53.4951 340.787L57.1316 338.606L47.7281 436.153C47.6499 436.811 47.3468 437.423 46.87 437.884C46.3933 438.345 45.772 438.628 45.1109 438.684L34.7937 439.544C34.3835 439.578 33.9707 439.524 33.5833 439.385C33.1958 439.246 32.8428 439.025 32.548 438.738C32.2532 438.451 32.0235 438.104 31.8745 437.72C31.7255 437.337 31.6607 436.926 31.6843 436.515L34.3555 390.06C34.3602 389.981 34.3354 389.903 34.286 389.841C34.2366 389.779 34.166 389.738 34.088 389.725C34.0099 389.713 33.9299 389.729 33.8634 389.772C33.7969 389.815 33.7487 389.881 33.7281 389.957L20.513 438.941C20.3478 439.55 19.9865 440.089 19.4848 440.473C18.9832 440.857 18.369 441.066 17.737 441.067H8.55756C8.14786 441.067 7.74288 440.979 7.36978 440.81C6.99669 440.641 6.66409 440.394 6.3943 440.086Z" fill="#2F2E41"/>
<path d="M29.9915 342.199C29.6004 341.845 29.0977 341.639 28.5705 341.617C28.0434 341.595 27.5252 341.759 27.106 342.079L20.2938 347.375C19.9231 347.664 19.4871 347.858 19.024 347.939C18.561 348.02 18.0851 347.987 17.638 347.841C17.1909 347.696 16.7864 347.443 16.4599 347.105C16.1334 346.767 15.895 346.354 15.7655 345.902C12.424 334.205 4.85357 304.762 6.71857 284.04C7.77572 272.294 17.9236 263.367 29.3399 264.116C37.1448 264.636 42.2796 269.136 44.6014 277.492C50.3024 298.006 56.5675 335.635 57.7655 342.971C57.8601 343.54 57.7803 344.124 57.5367 344.647C57.2931 345.17 56.897 345.607 56.4004 345.901C53.1773 347.835 49.4947 348.871 45.7355 348.901C41.1868 348.901 35.7328 347.318 29.9915 342.199Z" fill="#CCCCCC"/>
<path d="M32.5619 349.497C32.6382 348.561 32.5083 347.62 32.1813 346.74C31.8544 345.859 31.3383 345.062 30.6695 344.402C30.0007 343.743 29.1955 343.239 28.3105 342.924C27.4255 342.61 26.4822 342.493 25.5472 342.582L16.0451 321.831L9.75705 331.888L19.7444 350.052C19.9986 351.612 20.8165 353.024 22.0431 354.022C23.2697 355.02 24.8199 355.533 26.3998 355.464C27.9797 355.396 29.4796 354.751 30.6153 353.651C31.7511 352.551 32.4437 351.073 32.5619 349.497Z" fill="#A0616A"/>
<path d="M15.4435 342.109C15.0507 342.015 14.6821 341.84 14.3616 341.594C14.0412 341.348 13.7761 341.038 13.5835 340.683L3.57835 322.221C0.156741 315.909 -0.854641 308.57 0.732335 301.568L5.95781 278.499C5.96255 277.282 6.20712 276.079 6.67754 274.957C7.14796 273.835 7.83501 272.816 8.69941 271.96C9.5638 271.103 10.5886 270.426 11.7152 269.965C12.8418 269.505 14.0482 269.271 15.2653 269.277C16.4823 269.283 17.6863 269.529 18.8084 270C19.9305 270.471 20.9486 271.159 21.8046 272.024C22.6606 272.889 23.3376 273.914 23.7971 275.04C24.2565 276.167 24.4893 277.373 24.4821 278.589L18.1047 315.561L23.3782 335.474C23.5281 336.045 23.4989 336.649 23.2945 337.203C23.0902 337.757 22.7205 338.235 22.2354 338.573L17.7482 341.677C17.2668 342.01 16.6954 342.188 16.1102 342.188C15.8856 342.188 15.6618 342.162 15.4435 342.109Z" fill="#CCCCCC"/>
<path  opacity="0.2" d="M23.2091 294.181L17.4588 318.449L25.7649 338.886L20.0145 319.088L23.2091 294.181Z" fill="black"/>
<path d="M19.3754 255.864C17.9794 255.89 16.5922 255.639 15.2939 255.126C14.7226 254.905 14.1296 254.725 13.5594 254.504C8.52351 252.56 5.2062 247.199 5.08739 241.804C4.96858 236.41 7.76366 231.173 11.9141 227.723C16.0646 224.272 21.4405 222.5 26.8236 222.091C32.622 221.649 39.1512 223.119 42.3914 227.946C43.2538 229.23 43.857 230.789 43.3459 232.34C43.1928 232.809 42.9195 233.228 42.5531 233.558C41.1062 234.844 39.6636 233.877 38.1885 233.791C36.161 233.674 34.34 235.314 33.6855 237.236C33.031 239.158 33.3191 241.273 33.8475 243.233C34.2501 244.412 34.504 245.637 34.6031 246.88C34.6457 247.503 34.5285 248.126 34.2626 248.691C33.9966 249.256 33.5907 249.744 33.0833 250.108C31.8164 250.873 30.1526 250.43 28.8849 249.666C27.6172 248.902 26.5219 247.839 25.1526 247.277C23.7833 246.715 21.9436 246.839 21.1466 248.086C20.8933 248.54 20.7219 249.035 20.6401 249.548C19.9256 252.801 20.0898 252.61 19.3753 255.864L19.3754 255.864Z" fill="#2F2E41"/>
<path d="M483.884 147.192H96.0531C94.5758 147.193 93.1594 147.78 92.1148 148.824C91.0702 149.868 90.4828 151.284 90.4814 152.76V415.442C90.4828 416.919 91.0702 418.334 92.1148 419.378C93.1594 420.423 94.5758 421.01 96.0531 421.011H483.884C484.69 421.011 485.486 420.836 486.217 420.499C486.948 420.161 487.598 419.669 488.12 419.057C488.164 419.009 488.205 418.957 488.242 418.903C488.574 418.497 488.843 418.043 489.04 417.556C489.321 416.887 489.464 416.168 489.462 415.442V251.921H487.871V415.442C487.872 416.219 487.643 416.979 487.213 417.626C486.831 418.196 486.312 418.661 485.705 418.98C485.142 419.271 484.518 419.422 483.884 419.421H96.0531C94.9977 419.419 93.9859 419 93.2396 418.254C92.4934 417.508 92.0735 416.497 92.0722 415.442V152.761C92.0735 151.706 92.4933 150.694 93.2396 149.948C93.9859 149.203 94.9977 148.783 96.0531 148.782H483.884C484.94 148.782 485.954 149.201 486.701 149.947C487.449 150.693 487.869 151.705 487.871 152.761V188.058H489.462V152.761C489.46 151.283 488.872 149.867 487.826 148.822C486.78 147.778 485.362 147.192 483.884 147.192Z" fill="#3F3D56"/>
<path d="M488.662 169.514H91.2745V171.106H488.662V169.514Z" fill="#3F3D56"/>
<path d="M104.813 163.91C107.452 163.91 109.591 161.772 109.591 159.134C109.591 156.496 107.452 154.358 104.813 154.358C102.174 154.358 100.035 156.496 100.035 159.134C100.035 161.772 102.174 163.91 104.813 163.91Z" fill="#CCCCCC"/>
<path d="M118.55 163.91C121.189 163.91 123.328 161.772 123.328 159.134C123.328 156.496 121.189 154.358 118.55 154.358C115.911 154.358 113.772 156.496 113.772 159.134C113.772 161.772 115.911 163.91 118.55 163.91Z" fill="#CCCCCC"/>
<path d="M132.287 163.91C134.926 163.91 137.066 161.772 137.066 159.134C137.066 156.496 134.926 154.358 132.287 154.358C129.648 154.358 127.509 156.496 127.509 159.134C127.509 161.772 129.648 163.91 132.287 163.91Z" fill="#CCCCCC"/>
<path d="M228.262 388.814C226.617 388.806 225 388.389 223.557 387.599C222.115 386.809 220.892 385.672 220 384.291C219.107 382.91 218.574 381.328 218.447 379.689C218.32 378.05 218.605 376.405 219.275 374.903L230.658 349.518C221.693 341.592 214.518 331.849 209.612 320.938C204.705 310.026 202.178 298.195 202.199 286.232C202.199 239.494 240.241 201.469 287.002 201.469C333.763 201.469 371.806 239.494 371.806 286.232C371.806 332.97 333.763 370.996 287.002 370.996C278.822 370.987 270.687 369.79 262.852 367.44L233.8 387.099C232.168 388.212 230.238 388.81 228.262 388.814ZM287.002 213.296C271.869 213.287 257.107 217.985 244.764 226.737C232.421 235.489 223.107 247.863 218.115 262.143C213.122 276.423 212.698 291.901 216.901 306.433C221.103 320.965 229.725 333.83 241.57 343.244L245.156 346.103L232.908 373.419L261.016 354.4L263.791 355.332C273.817 358.698 284.455 359.845 294.969 358.694C305.482 357.542 315.62 354.12 324.678 348.663C333.737 343.206 341.5 335.846 347.43 327.092C353.359 318.338 357.314 308.4 359.019 297.967C360.724 287.533 360.138 276.854 357.304 266.669C354.469 256.485 349.453 247.038 342.602 238.983C335.752 230.929 327.231 224.46 317.63 220.025C308.03 215.589 297.579 213.293 287.002 213.296Z" fill="#3F3D56"/>
<path d="M287.002 294.117C293.538 294.117 298.835 288.822 298.835 282.29C298.835 275.758 293.538 270.462 287.002 270.462C280.467 270.462 275.169 275.758 275.169 282.29C275.169 288.822 280.467 294.117 287.002 294.117Z" fill="#3F3D56"/>
<path d="M253.475 294.117C260.011 294.117 265.309 288.822 265.309 282.29C265.309 275.758 260.011 270.462 253.475 270.462C246.94 270.462 241.642 275.758 241.642 282.29C241.642 288.822 246.94 294.117 253.475 294.117Z" fill="#3F3D56"/>
<path d="M320.529 294.117C327.064 294.117 332.362 288.822 332.362 282.29C332.362 275.758 327.064 270.462 320.529 270.462C313.994 270.462 308.696 275.758 308.696 282.29C308.696 288.822 313.994 294.117 320.529 294.117Z" fill="#3F3D56"/>
<path d="M584.566 235.477H472.114C470.758 235.477 469.458 234.939 468.499 233.981C467.541 233.023 467.002 231.723 467.002 230.368C467.002 229.013 467.541 227.714 468.499 226.755C469.458 225.797 470.758 225.259 472.114 225.259H584.566C585.921 225.259 587.221 225.797 588.18 226.755C589.139 227.714 589.677 229.013 589.677 230.368C589.677 231.723 589.139 233.023 588.18 233.981C587.221 234.939 585.921 235.477 584.566 235.477Z" fill="#CCCCCC"/>
<path d="M511.089 213.764H472.114C470.758 213.764 469.458 213.225 468.499 212.267C467.541 211.309 467.002 210.01 467.002 208.655C467.002 207.3 467.541 206 468.499 205.042C469.458 204.084 470.758 203.546 472.114 203.546H511.089C512.444 203.546 513.744 204.084 514.703 205.042C515.661 206 516.2 207.3 516.2 208.655C516.2 210.01 515.661 211.309 514.703 212.267C513.744 213.225 512.444 213.764 511.089 213.764Z" fill="#CCCCCC"/>
<path d="M421.18 241.703C433.178 241.703 442.904 231.981 442.904 219.989C442.904 207.997 433.178 198.276 421.18 198.276C409.183 198.276 399.457 207.997 399.457 219.989C399.457 231.981 409.183 241.703 421.18 241.703Z" fill="#618BDC"/>
<path d="M595.837 186.78H393.296C390.417 186.784 387.656 187.929 385.62 189.965C383.584 192 382.439 194.759 382.435 197.637V242.341C382.439 245.219 383.584 247.978 385.62 250.013C387.656 252.049 390.417 253.194 393.296 253.198H595.837C598.717 253.194 601.477 252.049 603.513 250.013C605.549 247.978 606.695 245.219 606.699 242.341V197.637C606.695 194.759 605.549 192 603.513 189.965C601.477 187.929 598.717 186.784 595.837 186.78ZM605.421 242.341C605.418 244.881 604.408 247.316 602.611 249.111C600.814 250.907 598.378 251.917 595.837 251.921H393.296C390.755 251.917 388.32 250.907 386.523 249.111C384.726 247.316 383.715 244.881 383.712 242.341V197.637C383.715 195.097 384.726 192.663 386.523 190.867C388.32 189.071 390.755 188.061 393.296 188.058H595.837C598.378 188.061 600.814 189.071 602.611 190.867C604.408 192.663 605.418 195.097 605.421 197.637V242.341Z" fill="#3F3D56"/>
<path d="M605.421 204.662C613.537 204.662 620.117 198.086 620.117 189.973C620.117 181.861 613.537 175.285 605.421 175.285C597.305 175.285 590.726 181.861 590.726 189.973C590.726 198.086 597.305 204.662 605.421 204.662Z" fill="#618BDC"/>
<path d="M604.97 198.234C604.91 198.175 604.863 198.104 604.831 198.027C604.799 197.949 604.782 197.866 604.783 197.783V181.526C604.783 181.356 604.85 181.194 604.97 181.074C605.089 180.954 605.252 180.887 605.421 180.887C605.591 180.887 605.753 180.954 605.873 181.074C605.993 181.194 606.06 181.356 606.06 181.526V197.783C606.06 197.909 606.023 198.032 605.953 198.137C605.882 198.242 605.783 198.324 605.666 198.372C605.549 198.421 605.421 198.433 605.297 198.409C605.173 198.384 605.059 198.323 604.97 198.234Z" fill="white"/>
<path d="M596.837 190.106C596.748 190.016 596.687 189.903 596.663 189.779C596.638 189.655 596.651 189.526 596.699 189.41C596.747 189.293 596.829 189.193 596.934 189.123C597.039 189.053 597.163 189.016 597.289 189.016H613.554C613.723 189.016 613.886 189.083 614.006 189.203C614.125 189.322 614.193 189.485 614.193 189.654C614.193 189.823 614.125 189.986 614.006 190.106C613.886 190.225 613.723 190.293 613.554 190.293H597.289C597.205 190.293 597.122 190.276 597.045 190.244C596.967 190.212 596.897 190.165 596.837 190.106Z" fill="white"/>
<path d="M623.013 385.207H592.338C592.338 386.088 560.724 386.803 560.724 386.803C560.228 387.177 559.776 387.605 559.376 388.081C558.175 389.512 557.519 391.322 557.523 393.19V394.467C557.524 396.584 558.365 398.614 559.863 400.111C561.361 401.608 563.392 402.449 565.51 402.45H623.013C625.131 402.448 627.161 401.606 628.659 400.11C630.156 398.613 630.998 396.584 631 394.467V393.19C630.997 391.073 630.155 389.045 628.658 387.548C627.16 386.052 625.131 385.21 623.013 385.207Z" fill="#3F3D56"/>
<path d="M598.731 402.133H590.425V455.778H598.731V402.133Z" fill="#3F3D56"/>
<path d="M622.371 455.486C622.371 456.383 609.785 455.833 594.258 455.833C578.732 455.833 566.145 456.383 566.145 455.486C566.145 454.589 578.732 447.476 594.258 447.476C609.785 447.476 622.371 454.589 622.371 455.486Z" fill="#3F3D56"/>
<path d="M597.243 313.318C607.123 313.318 615.133 305.312 615.133 295.436C615.133 285.56 607.123 277.554 597.243 277.554C587.362 277.554 579.353 285.56 579.353 295.436C579.353 305.312 587.362 313.318 597.243 313.318Z" fill="#2F2E41"/>
<path d="M552.722 448.43L544.889 448.43L541.162 418.23L552.723 418.231L552.722 448.43Z" fill="#FFB8B8"/>
<path d="M539.293 446.193H554.4V455.7H529.782C529.782 453.179 530.784 450.76 532.568 448.977C534.351 447.195 536.771 446.193 539.293 446.193Z" fill="#2F2E41"/>
<path d="M540.494 444.06L533.021 441.716L538.51 411.786L549.541 415.246L540.494 444.06Z" fill="#FFB8B8"/>
<path d="M528.352 437.907L542.766 442.428L539.918 451.499L516.429 444.132C517.184 441.726 518.865 439.719 521.101 438.551C523.337 437.384 525.945 437.152 528.352 437.907Z" fill="#2F2E41"/>
<path d="M602.035 379.972C601.854 378.45 601.529 376.949 601.064 375.489L599.601 373.65L595.793 368.873L595.627 368.879C595.345 368.892 594.176 368.956 592.368 369.096H592.349C591.231 369.185 589.863 369.3 588.311 369.447C587.902 369.492 587.474 369.53 587.033 369.575V376.242H595.019C595.408 376.243 595.782 376.384 596.074 376.64C596.365 376.897 596.554 377.25 596.604 377.635C596.61 377.705 596.617 377.769 596.617 377.839C596.617 378.262 596.448 378.668 596.149 378.968C595.849 379.267 595.443 379.435 595.019 379.435H548.633C548.042 379.828 547.474 380.254 546.933 380.713C545.299 381.977 544.122 383.739 543.579 385.732C540.87 397.636 535.931 419.835 534.474 426.356C534.369 426.847 534.393 427.357 534.544 427.836C534.695 428.316 534.968 428.747 535.337 429.089C535.609 429.342 535.928 429.54 536.276 429.67L542.039 431.829C542.276 431.916 542.523 431.974 542.774 432.001C542.806 432.001 542.831 432.008 542.864 432.008C542.923 432.013 542.983 432.015 543.042 432.014C543.625 432.012 544.194 431.834 544.673 431.503C545.153 431.173 545.522 430.705 545.732 430.162L550.282 418.232L557.291 399.84L560.064 392.566C563.277 393.319 590.24 399.284 599.268 389.673C600.159 388.726 600.862 387.618 601.339 386.409C602.098 384.354 602.338 382.142 602.035 379.972Z" fill="#2F2E41"/>
<path d="M609.855 381.709C609.715 381.141 609.555 380.553 609.37 379.959L604.099 373.343L603.933 373.349C603.6 373.368 602.022 373.451 599.601 373.649C596.853 373.879 593.013 374.25 588.7 374.831C588.573 374.844 588.439 374.863 588.311 374.882C587.889 374.939 587.461 374.997 587.033 375.061V376.242H595.02C595.408 376.243 595.782 376.384 596.074 376.64C596.365 376.897 596.554 377.25 596.604 377.635C596.61 377.705 596.617 377.769 596.617 377.839C596.617 378.262 596.448 378.668 596.149 378.968C595.849 379.267 595.443 379.435 595.02 379.435H566.791C565.558 379.838 564.37 380.259 563.233 380.713C557.265 383.076 552.799 386.173 551.885 390.203C551.578 391.557 551.24 393.045 550.882 394.628C549.553 400.517 547.937 407.727 546.474 414.279V414.286C546.173 415.639 545.873 416.955 545.585 418.232C544.365 423.724 543.33 428.38 542.78 430.826C542.768 430.896 542.755 430.96 542.742 431.03V431.043C542.678 431.538 542.74 432.041 542.921 432.506L542.927 432.512V432.518C543.103 432.964 543.389 433.357 543.758 433.662C544.005 433.865 544.283 434.027 544.582 434.141L550.346 436.299C550.666 436.419 551.006 436.482 551.349 436.484C551.829 436.485 552.301 436.365 552.722 436.133C553.326 435.806 553.793 435.274 554.038 434.632L566.446 402.088L568.37 397.036C571.583 397.79 598.546 403.748 607.574 394.143C609.358 392.213 610.376 389.7 610.437 387.073C610.5 385.267 610.304 383.46 609.855 381.709Z" fill="#2F2E41"/>
<path d="M609.146 325.369C609.044 325.248 608.935 325.126 608.82 325.011C607.119 323.223 605.017 321.863 602.688 321.043C600.36 320.222 597.869 319.965 595.422 320.292C593.287 320.572 591.172 320.988 589.09 321.537C586.401 322.228 583.939 323.608 581.947 325.541C580.395 327.045 579.173 328.855 578.358 330.856C577.543 332.857 577.153 335.005 577.212 337.164C577.238 338.039 577.244 338.933 577.232 339.84C577.232 340.262 577.225 340.69 577.219 341.118H583.519C583.792 341.117 584.064 341.149 584.33 341.213C585.099 341.397 585.784 341.834 586.274 342.454C586.764 343.073 587.031 343.84 587.033 344.63V374.339C587.461 374.46 587.889 374.582 588.311 374.71C588.445 374.754 588.573 374.793 588.7 374.831C588.847 374.876 588.994 374.92 589.135 374.965C590.432 375.367 591.699 375.793 592.936 376.242H595.019C595.408 376.243 595.782 376.384 596.074 376.64C596.365 376.896 596.554 377.25 596.604 377.634C597.039 377.807 597.46 377.979 597.875 378.152C599.351 378.765 600.751 379.378 602.035 379.972C603.766 380.764 605.306 381.517 606.597 382.175C607.003 382.382 607.451 382.491 607.907 382.494C608.505 382.492 609.087 382.3 609.568 381.945C609.668 381.872 609.764 381.793 609.855 381.709C610.197 381.388 610.456 380.989 610.608 380.546C610.761 380.104 610.803 379.63 610.731 379.167C610.071 374.151 609.879 369.084 610.156 364.032C610.334 359.785 610.718 355.429 611.216 351.221C611.485 348.941 611.785 346.705 612.098 344.553C612.399 342.497 612.718 340.524 613.031 338.659C613.442 336.294 613.305 333.867 612.632 331.563C611.958 329.259 610.766 327.141 609.146 325.369Z" fill="#618BDC"/>
<path d="M582.956 325.893C582.629 325.752 582.291 325.635 581.947 325.541C580.244 325.083 578.433 325.252 576.845 326.018C575.257 326.783 573.997 328.095 573.296 329.712L568.906 339.84L568.357 341.118H583.519C583.792 341.117 584.064 341.149 584.33 341.213L584.841 340.032L586.783 335.549C587.555 333.761 587.585 331.74 586.868 329.93C586.15 328.119 584.744 326.667 582.956 325.893Z" fill="#618BDC"/>
<path d="M596.589 315.305C605.256 315.305 612.282 308.283 612.282 299.62C612.282 290.957 605.256 283.934 596.589 283.934C587.922 283.934 580.896 290.957 580.896 299.62C580.896 308.283 587.922 315.305 596.589 315.305Z" fill="#FFB8B8"/>
<path d="M580.613 291.913C588.047 296.449 596.427 299.209 605.101 299.978L602.52 296.887C604.399 297.581 606.377 297.974 608.379 298.05C610.379 298.019 612.475 297.249 613.61 295.603C614.116 294.784 614.417 293.856 614.487 292.896C614.556 291.937 614.392 290.974 614.01 290.092C613.223 288.331 611.998 286.801 610.453 285.647C607.713 283.481 604.48 282.026 601.042 281.411C597.603 280.797 594.066 281.043 590.746 282.126C588.468 282.807 586.428 284.114 584.859 285.9C583.372 287.734 580.508 289.369 581.269 291.604L580.613 291.913Z" fill="#2F2E41"/>
<path d="M599.227 279.255C594.278 274.238 588.288 270.367 581.68 267.913C577.439 266.343 572.822 265.372 568.387 266.264C563.953 267.156 559.759 270.223 558.522 274.572C557.51 278.128 558.555 281.956 560.125 285.304C561.695 288.652 563.791 291.756 565.06 295.228C566.356 298.771 566.745 302.582 566.194 306.314C565.642 310.045 564.167 313.58 561.902 316.598C559.636 319.615 556.653 322.019 553.223 323.592C549.792 325.164 546.023 325.856 542.258 325.603C546.615 326.187 550.631 328.234 554.89 329.323C559.149 330.412 564.175 330.338 567.34 327.289C570.689 324.062 570.756 318.816 570.594 314.17C570.353 307.263 570.112 300.356 569.872 293.449C569.749 289.927 569.644 286.292 570.915 283.004C572.186 279.717 575.206 276.838 578.732 276.868C581.405 276.89 583.77 278.508 585.913 280.104C588.056 281.7 590.324 283.403 592.986 283.64C595.648 283.877 598.687 281.908 598.488 279.245L599.227 279.255Z" fill="#2F2E41"/>
<path d="M612.098 344.554L603.14 344.796L602.489 351.087L602.342 352.543L588.311 358.84L587.033 359.414V370.61L588.311 370.246L592.349 369.096H592.368L610.156 364.032L610.36 363.974C611.797 363.559 613.062 362.692 613.967 361.501C614.872 360.311 615.368 358.86 615.382 357.364L615.427 349.937L615.465 344.464L612.098 344.554Z" fill="#FFB8B8"/>
<path d="M615.012 332.113C614.892 330.169 614.005 328.351 612.545 327.061C611.085 325.77 609.172 325.112 607.226 325.232C605.281 325.351 603.463 326.238 602.172 327.697C600.881 329.157 600.222 331.069 600.342 333.013L601.319 348.954C601.346 349.373 601.464 349.782 601.666 350.15C601.868 350.519 602.149 350.839 602.488 351.087C603.029 351.489 603.695 351.686 604.367 351.642L611.216 351.221L613.293 351.093C613.671 351.074 614.042 350.979 614.382 350.814C614.723 350.648 615.026 350.415 615.274 350.129C615.329 350.068 615.38 350.004 615.427 349.937C615.833 349.394 616.032 348.724 615.989 348.047L615.012 332.113Z" fill="#618BDC"/>
<path d="M589.135 374.965H588.311V374.882C587.889 374.94 587.461 374.997 587.033 375.061V376.242H592.936C591.697 375.795 590.43 375.37 589.135 374.965ZM589.135 374.965H588.311V374.882C587.889 374.94 587.461 374.997 587.033 375.061V376.242H592.936C591.697 375.795 590.43 375.37 589.135 374.965ZM595.019 374.965H588.311V344.63C588.308 343.592 587.969 342.582 587.343 341.753C586.718 340.923 585.84 340.32 584.841 340.032C584.412 339.903 583.967 339.838 583.519 339.84H526.654C525.383 339.842 524.166 340.347 523.267 341.245C522.369 342.143 521.863 343.36 521.862 344.63V375.923C521.862 377.193 522.367 378.411 523.266 379.309C524.165 380.208 525.383 380.712 526.654 380.713H595.019C595.727 380.712 596.41 380.45 596.937 379.977C597.463 379.505 597.798 378.855 597.875 378.152C597.888 378.048 597.895 377.944 597.895 377.839C597.894 377.077 597.59 376.347 597.051 375.808C596.512 375.269 595.782 374.966 595.019 374.965ZM596.617 377.839C596.617 378.262 596.448 378.668 596.149 378.968C595.849 379.267 595.443 379.435 595.019 379.435H526.654C525.722 379.435 524.829 379.065 524.17 378.406C523.511 377.747 523.14 376.854 523.14 375.923V344.63C523.14 343.699 523.511 342.806 524.17 342.147C524.829 341.488 525.722 341.118 526.654 341.118H583.519C583.792 341.117 584.065 341.149 584.33 341.213C585.099 341.397 585.784 341.834 586.274 342.454C586.764 343.073 587.031 343.84 587.033 344.63V376.242H595.019C595.408 376.243 595.782 376.384 596.074 376.64C596.365 376.897 596.554 377.25 596.604 377.635C596.61 377.705 596.617 377.769 596.617 377.839ZM589.135 374.965H588.311V374.882C587.889 374.94 587.461 374.997 587.033 375.061V376.242H592.936C591.697 375.795 590.43 375.37 589.135 374.965Z" fill="#3F3D56"/>
<path d="M555.084 364.109C557.202 364.109 558.918 362.394 558.918 360.277C558.918 358.161 557.202 356.446 555.084 356.446C552.967 356.446 551.251 358.161 551.251 360.277C551.251 362.394 552.967 364.109 555.084 364.109Z" fill="#618BDC"/>
<path d="M212.671 45.5778C212.656 45.8696 212.665 46.162 212.697 46.4524L192.633 63.2829L186.65 61.1176L182.2 69.7159L195.282 75.9396L217.216 51.3372C218.324 51.5381 219.466 51.3971 220.492 50.9331C221.517 50.4691 222.377 49.704 222.957 48.7397C223.537 47.7753 223.809 46.6574 223.738 45.5345C223.666 44.4116 223.255 43.337 222.558 42.4537C221.861 41.5703 220.911 40.92 219.835 40.5893C218.759 40.2585 217.608 40.263 216.534 40.6022C215.461 40.9413 214.517 41.599 213.826 42.4878C213.136 43.3766 212.733 44.4544 212.67 45.5778L212.671 45.5778Z" fill="#FFB8B8"/>
<path d="M185.762 73.8401L166.387 66.85C164.608 66.2083 163.157 64.8866 162.354 63.1757C161.55 61.4648 161.459 59.5048 162.101 57.727C162.743 55.9491 164.065 54.4989 165.777 53.6956C167.489 52.8922 169.45 52.8014 171.228 53.4431L190.603 60.4331C190.897 60.539 191.167 60.7016 191.397 60.9117C191.628 61.1219 191.815 61.3753 191.948 61.6577C192.08 61.9401 192.156 62.2458 192.17 62.5574C192.185 62.869 192.138 63.1804 192.032 63.4738L188.804 72.4121C188.589 73.0042 188.149 73.487 187.578 73.7547C187.008 74.0224 186.355 74.0531 185.762 73.8401V73.8401Z" fill="#CCCCCC"/>
<path d="M171.572 141.937L178.047 141.936L181.127 116.972L171.571 116.973L171.572 141.937Z" fill="#FFB8B8"/>
<path d="M190.535 147.946L170.185 147.946L170.184 140.088L182.672 140.087C184.757 140.087 186.757 140.915 188.232 142.389C189.706 143.862 190.535 145.861 190.535 147.946L190.535 147.946Z" fill="#2F2E41"/>
<path d="M155.569 134.576L160.866 138.298L177.752 119.649L169.935 114.155L155.569 134.576Z" fill="#FFB8B8"/>
<path d="M166.985 148.117L150.337 136.417L154.86 129.988L165.075 137.168C166.781 138.366 167.94 140.193 168.299 142.247C168.657 144.3 168.184 146.412 166.985 148.117L166.985 148.117Z" fill="#2F2E41"/>
<path d="M185.741 96.9673C185.741 96.9673 201.9 95.0617 198.999 105.543C196.099 116.023 163.781 125.075 163.781 125.075L185.741 96.9673Z" fill="#FFB8B8"/>
<path d="M174.618 43.4885C181.783 43.4885 187.591 37.6834 187.591 30.5225C187.591 23.3615 181.783 17.5564 174.618 17.5564C167.454 17.5564 161.646 23.3615 161.646 30.5225C161.646 37.6834 167.454 43.4885 174.618 43.4885Z" fill="#FFB8B8"/>
<path d="M133.249 122.929C125.868 114.338 123.285 101.153 135.056 90.187C137.964 87.5452 141.255 85.3602 144.819 83.7066L154.306 57.1873C155.292 54.418 157.099 52.0149 159.486 50.2986C161.873 48.5823 164.727 47.6343 167.667 47.5812C170.522 47.4581 173.345 48.2213 175.748 49.7661C178.151 51.3109 180.017 53.5615 181.089 56.2088C182.248 58.902 182.38 61.9259 181.462 64.71C178.637 73.5009 174.929 81.9828 170.392 90.0256L170.882 93.9483L194.863 96.0785L194.639 96.442C194.522 96.6317 182.786 114.505 167.772 126.369C162.638 130.425 157.33 132.106 152.32 132.105C144.722 132.105 137.812 128.239 133.249 122.929Z" fill="#CCCCCC"/>
<path d="M130.986 39.5904C133.281 36.8569 134.265 33.2816 135.057 29.8021C136.31 24.2966 137.28 18.6037 140.064 13.6906C142.847 8.77764 147.963 4.70673 153.603 5.0166C159.211 5.3247 163.745 9.83451 166.152 14.9658C166.734 14.7395 167.358 14.6382 167.983 14.6683C168.607 14.6984 169.218 14.8592 169.777 15.1405C171.511 16.0899 172.16 18.7885 170.716 20.1394C172.235 19.4167 173.888 19.0215 175.57 18.9796C177.251 18.9377 178.922 19.25 180.475 19.8963C182.472 20.7459 184.195 22.1295 185.456 23.8949C186.717 25.6603 187.466 27.739 187.621 29.9025C187.681 30.7805 187.561 31.6617 187.266 32.4913C186.972 33.3209 186.511 34.0813 185.911 34.7253C183.422 37.2864 179.902 36.403 176.772 35.7506C173.815 35.1344 170.214 34.968 168.549 37.7836C167.892 38.9567 167.709 40.3361 168.035 41.64C168.673 44.4507 170.755 46.4085 172.775 48.2821L173.105 48.8955C165.974 50.2855 158.186 45.4174 156.315 38.3999C154.445 31.3825 158.776 23.2868 165.654 20.9457C165.196 20.96 164.743 20.8518 164.341 20.6324C163.939 20.4129 163.603 20.0902 163.368 19.6976C163.132 19.3049 163.006 18.8566 163.002 18.3988C162.998 17.9411 163.116 17.4906 163.345 17.0938C161.441 16.0278 159.286 15.4905 157.105 15.5377C153.552 15.7706 150.477 18.2984 148.629 21.3396C146.78 24.3808 145.942 27.9107 145.094 31.367C144.246 34.8233 143.328 38.3456 141.351 41.3054C139.982 43.3553 138.152 45.0569 136.008 46.2746C133.864 47.4922 131.465 48.192 129.002 48.3183C126.54 48.4446 124.081 47.9937 121.824 47.0018C119.567 46.0098 117.572 44.5042 116 42.6051C118.484 43.8091 121.295 44.1662 124.001 43.6217C126.708 43.0772 129.161 41.6612 130.986 39.5904Z" fill="#2F2E41"/>
<path d="M226.264 69.926C236.678 69.926 245.12 61.4878 245.12 51.0788C245.12 40.6698 236.678 32.2317 226.264 32.2317C215.85 32.2317 207.408 40.6698 207.408 51.0788C207.408 61.4878 215.85 69.926 226.264 69.926Z" fill="#618BDC"/>
<path d="M215.249 51.2484C215.135 51.1338 215.057 50.9878 215.025 50.8288C214.993 50.6699 215.01 50.5052 215.072 50.3554C215.134 50.2057 215.239 50.0778 215.374 49.9877C215.508 49.8977 215.667 49.8496 215.829 49.8496H236.698C236.916 49.8496 237.124 49.9359 237.278 50.0896C237.432 50.2433 237.518 50.4517 237.518 50.669C237.518 50.8863 237.432 51.0947 237.278 51.2483C237.124 51.402 236.916 51.4883 236.698 51.4883H215.829C215.721 51.4885 215.615 51.4674 215.515 51.4262C215.416 51.385 215.325 51.3246 215.249 51.2484Z" fill="white"/>
<path d="M225.684 61.6783C225.608 61.6023 225.547 61.512 225.506 61.4125C225.465 61.3131 225.444 61.2065 225.444 61.0989V40.2393C225.444 40.022 225.53 39.8136 225.684 39.6599C225.838 39.5062 226.046 39.4199 226.264 39.4199C226.481 39.4199 226.69 39.5062 226.843 39.6599C226.997 39.8136 227.083 40.022 227.083 40.2393V61.0989C227.083 61.2609 227.035 61.4193 226.945 61.5541C226.855 61.6888 226.727 61.7938 226.577 61.8559C226.428 61.9179 226.263 61.9341 226.104 61.9025C225.945 61.8709 225.799 61.7929 225.684 61.6783H225.684Z" fill="white"/>
<path d="M213.32 63.685C213.184 63.9431 213.067 64.2115 212.972 64.4879L187.654 71.1986L183.159 66.6967L175.475 72.5894L184.67 83.7803L214.986 70.8293C215.903 71.4817 216.997 71.8394 218.123 71.8551C219.248 71.8708 220.352 71.5436 221.287 70.917C222.222 70.2904 222.944 69.3942 223.357 68.3475C223.77 67.3009 223.854 66.1533 223.599 65.0575C223.343 63.9617 222.76 62.9696 221.927 62.2132C221.094 61.4567 220.05 60.9717 218.934 60.8227C217.818 60.6737 216.683 60.8678 215.681 61.3791C214.678 61.8903 213.855 62.6946 213.321 63.685L213.32 63.685Z" fill="#FFB8B8"/>
<path d="M176.945 77.8356L162.38 63.2773C161.716 62.6159 161.189 61.8302 160.829 60.965C160.469 60.0999 160.284 59.1723 160.283 58.2354C160.282 57.2985 160.466 56.3706 160.824 55.5048C161.183 54.6391 161.708 53.8524 162.371 53.1899C163.034 52.5274 163.821 52.002 164.687 51.6439C165.553 51.2857 166.482 51.1017 167.419 51.1025C168.356 51.1033 169.284 51.2889 170.15 51.6485C171.016 52.0082 171.802 52.5349 172.463 53.1985L187.029 67.7569C187.249 67.9774 187.424 68.2393 187.544 68.5275C187.663 68.8156 187.725 69.1245 187.725 69.4365C187.725 69.7484 187.663 70.0573 187.544 70.3455C187.424 70.6337 187.249 70.8956 187.029 71.1161L180.306 77.8357C179.86 78.2804 179.256 78.5301 178.626 78.5301C177.996 78.5301 177.391 78.2804 176.945 77.8357V77.8356Z" fill="#CCCCCC"/>
</g>
<defs>
<clipPath id="clip0">
<rect width="631" height="456" fill="white"/>
</clipPath>
</defs>
</svg>
