<svg width="43" height="40" viewBox="0 0 43 40" fill="none" xmlns="http://www.w3.org/2000/svg">
    <path fill-rule="evenodd" clip-rule="evenodd" d="M21.4791 0.833252C9.74906 0.833252 0.250305 9.40075 0.250305 19.9999C0.250305 30.5991 9.74906 39.1666 21.4791 39.1666C33.2091 39.1666 42.7503 30.5991 42.7503 19.9999C42.7503 9.40075 33.2303 0.833252 21.4791 0.833252ZM21.5006 35.3333C12.1081 35.3333 4.50059 28.4716 4.50059 19.9999C4.50059 11.5283 12.1081 4.66661 21.5006 4.66661C30.8931 4.66661 38.5006 11.5283 38.5006 19.9999C38.5006 28.4716 30.8931 35.3333 21.5006 35.3333ZM25.8781 18.0832L23.6256 16.0515L28.1306 11.9882L32.6356 16.0515L30.3831 18.0832L28.1306 16.0515L25.8781 18.0832ZM14.8703 16.0515L17.1228 18.0832L19.3753 16.0515L14.8703 11.9882L10.3653 16.0515L12.6178 18.0832L14.8703 16.0515ZM32.3596 23.8332C30.6596 27.7433 26.4521 30.5416 21.5008 30.5416C16.5496 30.5416 12.3421 27.7433 10.6421 23.8332H32.3596Z" fill="#FFC884"/>
</svg>
