<svg width="50" height="50" viewBox="0 0 50 50" fill="none" xmlns="http://www.w3.org/2000/svg">
    <path fill-rule="evenodd" clip-rule="evenodd" d="M50 25C50 38.8 38.8 50 25 50C11.2 50 0 38.8 0 25C0 11.2 11.2 0 25 0C38.8 0 50 11.2 50 25ZM17.5 30.625C19.225 30.625 20.625 29.225 20.625 27.5C20.625 25.775 19.225 24.375 17.5 24.375C15.775 24.375 14.375 25.775 14.375 27.5C14.375 29.225 15.775 30.625 17.5 30.625ZM29.375 27.5C29.375 25.775 30.775 24.375 32.5 24.375C34.225 24.375 35.625 25.775 35.625 27.5C35.625 29.225 34.225 30.625 32.5 30.625C30.775 30.625 29.375 29.225 29.375 27.5ZM38.7502 15C31.5002 15 25.1502 11.1 21.6502 5.3C22.7252 5.125 23.8502 5 25.0002 5C32.2502 5 38.6002 8.9 42.1002 14.7C41.0252 14.875 39.9002 15 38.7502 15ZM6.04988 18.675C10.3249 16.25 13.6249 12.3 15.1999 7.57504C10.9249 10 7.62488 13.95 6.04988 18.675ZM44.175 19.4001C44.7 21.1751 45 23.0501 45 25.0001C45 36.0251 36.025 45.0001 25 45.0001C13.975 45.0001 5 36.0251 5 25.0001C5 24.9575 5.00291 24.9148 5.00575 24.8732C5.01124 24.7927 5.01647 24.716 5 24.6501C11.5 22.2001 16.725 17.1751 19.35 10.7751C23.95 16.4001 30.925 20.0001 38.75 20.0001C40.625 20.0001 42.425 19.7751 44.175 19.4001Z" fill="#ECE54E"/>
</svg>
