<svg width="46" height="42" viewBox="0 0 46 42" fill="none" xmlns="http://www.w3.org/2000/svg">
    <path fill-rule="evenodd" clip-rule="evenodd" d="M23 5.0587C25.4525 2.1787 29.21 0.356201 33.125 0.356201C40.055 0.356201 45.5 5.8012 45.5 12.7312C45.5 21.2292 37.8626 28.1548 26.291 38.6478L26.2625 38.6737L23 41.6437L19.7375 38.6962L19.6487 38.6155C8.11093 28.1308 0.5 21.2145 0.5 12.7312C0.5 5.8012 5.945 0.356201 12.875 0.356201C16.79 0.356201 20.5475 2.1787 23 5.0587ZM23 35.5687L23.225 35.3437C33.935 25.6462 41 19.2337 41 12.7312C41 8.2312 37.625 4.8562 33.125 4.8562C29.66 4.8562 26.285 7.0837 25.115 10.1662H20.9075C19.715 7.0837 16.34 4.8562 12.875 4.8562C8.375 4.8562 5 8.2312 5 12.7312C5 19.2337 12.065 25.6462 22.775 35.3437L23 35.5687Z" fill="#BF37FF"/>
</svg>
